<mxfile host="app.diagrams.net" agent="Mozilla/5.0 (Windows NT 10.0; Win64; x64) AppleWebKit/537.36 (KHTML, like Gecko) Chrome/134.0.0.0 Safari/537.36 Edg/134.0.0.0" version="26.1.1" pages="8">
  <diagram name="Page-1" id="-ow4DpQ6KdscyZ0m3crN">
    <mxGraphModel dx="3698" dy="2985" grid="1" gridSize="10" guides="1" tooltips="1" connect="1" arrows="1" fold="1" page="1" pageScale="1" pageWidth="850" pageHeight="1100" math="0" shadow="0">
      <root>
        <mxCell id="0" />
        <mxCell id="1" parent="0" />
        <mxCell id="BszTIMBWG0lswgFkeqeu-5" value="" style="shape=folder;fontStyle=1;spacingTop=10;tabWidth=70;tabHeight=30;tabPosition=left;html=1;whiteSpace=wrap;" vertex="1" parent="1">
          <mxGeometry x="-460" y="-550" width="2040" height="910" as="geometry" />
        </mxCell>
        <mxCell id="BszTIMBWG0lswgFkeqeu-6" value="Models" style="text;html=1;align=center;verticalAlign=middle;whiteSpace=wrap;rounded=0;" vertex="1" parent="1">
          <mxGeometry x="-440" y="-550" width="50" height="30" as="geometry" />
        </mxCell>
        <mxCell id="BszTIMBWG0lswgFkeqeu-172" style="edgeStyle=orthogonalEdgeStyle;rounded=0;orthogonalLoop=1;jettySize=auto;html=1;entryX=1;entryY=0.5;entryDx=0;entryDy=0;exitX=0.519;exitY=0.002;exitDx=0;exitDy=0;exitPerimeter=0;endArrow=block;endFill=0;" edge="1" parent="1" source="BszTIMBWG0lswgFkeqeu-13" target="BszTIMBWG0lswgFkeqeu-167">
          <mxGeometry relative="1" as="geometry">
            <Array as="points">
              <mxPoint x="410" y="-159" />
              <mxPoint x="410" y="-350" />
              <mxPoint x="520" y="-350" />
            </Array>
          </mxGeometry>
        </mxCell>
        <mxCell id="BszTIMBWG0lswgFkeqeu-13" value="Game" style="swimlane;fontStyle=0;childLayout=stackLayout;horizontal=1;startSize=26;fillColor=none;horizontalStack=0;resizeParent=1;resizeParentMax=0;resizeLast=0;collapsible=1;marginBottom=0;whiteSpace=wrap;html=1;" vertex="1" parent="1">
          <mxGeometry x="300" y="-120" width="210" height="390" as="geometry" />
        </mxCell>
        <mxCell id="BszTIMBWG0lswgFkeqeu-14" value="+ GameName: string" style="text;strokeColor=none;fillColor=none;align=left;verticalAlign=top;spacingLeft=4;spacingRight=4;overflow=hidden;rotatable=0;points=[[0,0.5],[1,0.5]];portConstraint=eastwest;whiteSpace=wrap;html=1;" vertex="1" parent="BszTIMBWG0lswgFkeqeu-13">
          <mxGeometry y="26" width="210" height="26" as="geometry" />
        </mxCell>
        <mxCell id="BszTIMBWG0lswgFkeqeu-15" value="+ HostId: int" style="text;strokeColor=none;fillColor=none;align=left;verticalAlign=top;spacingLeft=4;spacingRight=4;overflow=hidden;rotatable=0;points=[[0,0.5],[1,0.5]];portConstraint=eastwest;whiteSpace=wrap;html=1;" vertex="1" parent="BszTIMBWG0lswgFkeqeu-13">
          <mxGeometry y="52" width="210" height="26" as="geometry" />
        </mxCell>
        <mxCell id="BszTIMBWG0lswgFkeqeu-16" value="+ CreateTime: DateTime" style="text;strokeColor=none;fillColor=none;align=left;verticalAlign=top;spacingLeft=4;spacingRight=4;overflow=hidden;rotatable=0;points=[[0,0.5],[1,0.5]];portConstraint=eastwest;whiteSpace=wrap;html=1;" vertex="1" parent="BszTIMBWG0lswgFkeqeu-13">
          <mxGeometry y="78" width="210" height="26" as="geometry" />
        </mxCell>
        <mxCell id="BszTIMBWG0lswgFkeqeu-23" value="+ StartTime: DateTime" style="text;strokeColor=none;fillColor=none;align=left;verticalAlign=top;spacingLeft=4;spacingRight=4;overflow=hidden;rotatable=0;points=[[0,0.5],[1,0.5]];portConstraint=eastwest;whiteSpace=wrap;html=1;" vertex="1" parent="BszTIMBWG0lswgFkeqeu-13">
          <mxGeometry y="104" width="210" height="26" as="geometry" />
        </mxCell>
        <mxCell id="BszTIMBWG0lswgFkeqeu-29" value="+ EndTime: DateTime" style="text;strokeColor=none;fillColor=none;align=left;verticalAlign=top;spacingLeft=4;spacingRight=4;overflow=hidden;rotatable=0;points=[[0,0.5],[1,0.5]];portConstraint=eastwest;whiteSpace=wrap;html=1;" vertex="1" parent="BszTIMBWG0lswgFkeqeu-13">
          <mxGeometry y="130" width="210" height="26" as="geometry" />
        </mxCell>
        <mxCell id="BszTIMBWG0lswgFkeqeu-28" value="+&amp;nbsp;MaxPlayers: int" style="text;strokeColor=none;fillColor=none;align=left;verticalAlign=top;spacingLeft=4;spacingRight=4;overflow=hidden;rotatable=0;points=[[0,0.5],[1,0.5]];portConstraint=eastwest;whiteSpace=wrap;html=1;" vertex="1" parent="BszTIMBWG0lswgFkeqeu-13">
          <mxGeometry y="156" width="210" height="26" as="geometry" />
        </mxCell>
        <mxCell id="BszTIMBWG0lswgFkeqeu-27" value="+&amp;nbsp;GameCoverImageUrl: string" style="text;strokeColor=none;fillColor=none;align=left;verticalAlign=top;spacingLeft=4;spacingRight=4;overflow=hidden;rotatable=0;points=[[0,0.5],[1,0.5]];portConstraint=eastwest;whiteSpace=wrap;html=1;" vertex="1" parent="BszTIMBWG0lswgFkeqeu-13">
          <mxGeometry y="182" width="210" height="26" as="geometry" />
        </mxCell>
        <mxCell id="BszTIMBWG0lswgFkeqeu-26" value="+ IsPrivate: bool" style="text;strokeColor=none;fillColor=none;align=left;verticalAlign=top;spacingLeft=4;spacingRight=4;overflow=hidden;rotatable=0;points=[[0,0.5],[1,0.5]];portConstraint=eastwest;whiteSpace=wrap;html=1;" vertex="1" parent="BszTIMBWG0lswgFkeqeu-13">
          <mxGeometry y="208" width="210" height="26" as="geometry" />
        </mxCell>
        <mxCell id="BszTIMBWG0lswgFkeqeu-25" value="+ RoomPassword: string" style="text;strokeColor=none;fillColor=none;align=left;verticalAlign=top;spacingLeft=4;spacingRight=4;overflow=hidden;rotatable=0;points=[[0,0.5],[1,0.5]];portConstraint=eastwest;whiteSpace=wrap;html=1;" vertex="1" parent="BszTIMBWG0lswgFkeqeu-13">
          <mxGeometry y="234" width="210" height="26" as="geometry" />
        </mxCell>
        <mxCell id="BszTIMBWG0lswgFkeqeu-24" value="+ Status: GameStatus" style="text;strokeColor=none;fillColor=none;align=left;verticalAlign=top;spacingLeft=4;spacingRight=4;overflow=hidden;rotatable=0;points=[[0,0.5],[1,0.5]];portConstraint=eastwest;whiteSpace=wrap;html=1;" vertex="1" parent="BszTIMBWG0lswgFkeqeu-13">
          <mxGeometry y="260" width="210" height="26" as="geometry" />
        </mxCell>
        <mxCell id="BszTIMBWG0lswgFkeqeu-31" value="+ Comments:&amp;nbsp;List&amp;lt;GameComment&amp;gt;" style="text;strokeColor=none;fillColor=none;align=left;verticalAlign=top;spacingLeft=4;spacingRight=4;overflow=hidden;rotatable=0;points=[[0,0.5],[1,0.5]];portConstraint=eastwest;whiteSpace=wrap;html=1;" vertex="1" parent="BszTIMBWG0lswgFkeqeu-13">
          <mxGeometry y="286" width="210" height="26" as="geometry" />
        </mxCell>
        <mxCell id="BszTIMBWG0lswgFkeqeu-32" value="+ Players:&amp;nbsp;List&amp;lt;Player&amp;gt;" style="text;strokeColor=none;fillColor=none;align=left;verticalAlign=top;spacingLeft=4;spacingRight=4;overflow=hidden;rotatable=0;points=[[0,0.5],[1,0.5]];portConstraint=eastwest;whiteSpace=wrap;html=1;" vertex="1" parent="BszTIMBWG0lswgFkeqeu-13">
          <mxGeometry y="312" width="210" height="26" as="geometry" />
        </mxCell>
        <mxCell id="BszTIMBWG0lswgFkeqeu-33" value="+&amp;nbsp;List&amp;lt;GameQuestion&amp;gt;: Questions" style="text;strokeColor=none;fillColor=none;align=left;verticalAlign=top;spacingLeft=4;spacingRight=4;overflow=hidden;rotatable=0;points=[[0,0.5],[1,0.5]];portConstraint=eastwest;whiteSpace=wrap;html=1;" vertex="1" parent="BszTIMBWG0lswgFkeqeu-13">
          <mxGeometry y="338" width="210" height="26" as="geometry" />
        </mxCell>
        <mxCell id="BszTIMBWG0lswgFkeqeu-34" value="+&amp;nbsp;List&amp;lt;GameResults&amp;gt;: GameResults" style="text;strokeColor=none;fillColor=none;align=left;verticalAlign=top;spacingLeft=4;spacingRight=4;overflow=hidden;rotatable=0;points=[[0,0.5],[1,0.5]];portConstraint=eastwest;whiteSpace=wrap;html=1;" vertex="1" parent="BszTIMBWG0lswgFkeqeu-13">
          <mxGeometry y="364" width="210" height="26" as="geometry" />
        </mxCell>
        <mxCell id="BszTIMBWG0lswgFkeqeu-168" style="edgeStyle=orthogonalEdgeStyle;rounded=0;orthogonalLoop=1;jettySize=auto;html=1;exitX=0.5;exitY=0;exitDx=0;exitDy=0;endArrow=block;endFill=0;" edge="1" parent="1" source="BszTIMBWG0lswgFkeqeu-35" target="BszTIMBWG0lswgFkeqeu-167">
          <mxGeometry relative="1" as="geometry" />
        </mxCell>
        <mxCell id="BszTIMBWG0lswgFkeqeu-35" value="GameAnswerOption" style="swimlane;fontStyle=0;childLayout=stackLayout;horizontal=1;startSize=26;fillColor=none;horizontalStack=0;resizeParent=1;resizeParentMax=0;resizeLast=0;collapsible=1;marginBottom=0;whiteSpace=wrap;html=1;" vertex="1" parent="1">
          <mxGeometry x="425" y="-310" width="190" height="130" as="geometry" />
        </mxCell>
        <mxCell id="BszTIMBWG0lswgFkeqeu-36" value="+ Text: string" style="text;strokeColor=none;fillColor=none;align=left;verticalAlign=top;spacingLeft=4;spacingRight=4;overflow=hidden;rotatable=0;points=[[0,0.5],[1,0.5]];portConstraint=eastwest;whiteSpace=wrap;html=1;" vertex="1" parent="BszTIMBWG0lswgFkeqeu-35">
          <mxGeometry y="26" width="190" height="26" as="geometry" />
        </mxCell>
        <mxCell id="BszTIMBWG0lswgFkeqeu-37" value="+ IsCorrect: bool" style="text;strokeColor=none;fillColor=none;align=left;verticalAlign=top;spacingLeft=4;spacingRight=4;overflow=hidden;rotatable=0;points=[[0,0.5],[1,0.5]];portConstraint=eastwest;whiteSpace=wrap;html=1;" vertex="1" parent="BszTIMBWG0lswgFkeqeu-35">
          <mxGeometry y="52" width="190" height="26" as="geometry" />
        </mxCell>
        <mxCell id="BszTIMBWG0lswgFkeqeu-38" value="+ QuestionId: int" style="text;strokeColor=none;fillColor=none;align=left;verticalAlign=top;spacingLeft=4;spacingRight=4;overflow=hidden;rotatable=0;points=[[0,0.5],[1,0.5]];portConstraint=eastwest;whiteSpace=wrap;html=1;" vertex="1" parent="BszTIMBWG0lswgFkeqeu-35">
          <mxGeometry y="78" width="190" height="26" as="geometry" />
        </mxCell>
        <mxCell id="BszTIMBWG0lswgFkeqeu-39" value="+&amp;nbsp;GameQuestion:&amp;nbsp;GameQuestion" style="text;strokeColor=none;fillColor=none;align=left;verticalAlign=top;spacingLeft=4;spacingRight=4;overflow=hidden;rotatable=0;points=[[0,0.5],[1,0.5]];portConstraint=eastwest;whiteSpace=wrap;html=1;" vertex="1" parent="BszTIMBWG0lswgFkeqeu-35">
          <mxGeometry y="104" width="190" height="26" as="geometry" />
        </mxCell>
        <mxCell id="BszTIMBWG0lswgFkeqeu-186" style="edgeStyle=orthogonalEdgeStyle;rounded=0;orthogonalLoop=1;jettySize=auto;html=1;entryX=1;entryY=0.5;entryDx=0;entryDy=0;endArrow=block;endFill=0;" edge="1" parent="1" source="BszTIMBWG0lswgFkeqeu-40" target="BszTIMBWG0lswgFkeqeu-167">
          <mxGeometry relative="1" as="geometry">
            <Array as="points">
              <mxPoint x="-350" y="-350" />
              <mxPoint x="520" y="-350" />
            </Array>
          </mxGeometry>
        </mxCell>
        <mxCell id="BszTIMBWG0lswgFkeqeu-40" value="GameComment" style="swimlane;fontStyle=0;childLayout=stackLayout;horizontal=1;startSize=26;fillColor=none;horizontalStack=0;resizeParent=1;resizeParentMax=0;resizeLast=0;collapsible=1;marginBottom=0;whiteSpace=wrap;html=1;" vertex="1" parent="1">
          <mxGeometry x="-430" y="-310" width="160" height="208" as="geometry" />
        </mxCell>
        <mxCell id="BszTIMBWG0lswgFkeqeu-41" value="+ GameId: int" style="text;strokeColor=none;fillColor=none;align=left;verticalAlign=top;spacingLeft=4;spacingRight=4;overflow=hidden;rotatable=0;points=[[0,0.5],[1,0.5]];portConstraint=eastwest;whiteSpace=wrap;html=1;" vertex="1" parent="BszTIMBWG0lswgFkeqeu-40">
          <mxGeometry y="26" width="160" height="26" as="geometry" />
        </mxCell>
        <mxCell id="BszTIMBWG0lswgFkeqeu-42" value="+ UserId: int" style="text;strokeColor=none;fillColor=none;align=left;verticalAlign=top;spacingLeft=4;spacingRight=4;overflow=hidden;rotatable=0;points=[[0,0.5],[1,0.5]];portConstraint=eastwest;whiteSpace=wrap;html=1;" vertex="1" parent="BszTIMBWG0lswgFkeqeu-40">
          <mxGeometry y="52" width="160" height="26" as="geometry" />
        </mxCell>
        <mxCell id="BszTIMBWG0lswgFkeqeu-43" value="+ Content: string" style="text;strokeColor=none;fillColor=none;align=left;verticalAlign=top;spacingLeft=4;spacingRight=4;overflow=hidden;rotatable=0;points=[[0,0.5],[1,0.5]];portConstraint=eastwest;whiteSpace=wrap;html=1;" vertex="1" parent="BszTIMBWG0lswgFkeqeu-40">
          <mxGeometry y="78" width="160" height="26" as="geometry" />
        </mxCell>
        <mxCell id="BszTIMBWG0lswgFkeqeu-44" value="+&amp;nbsp;Username:&amp;nbsp;string" style="text;strokeColor=none;fillColor=none;align=left;verticalAlign=top;spacingLeft=4;spacingRight=4;overflow=hidden;rotatable=0;points=[[0,0.5],[1,0.5]];portConstraint=eastwest;whiteSpace=wrap;html=1;" vertex="1" parent="BszTIMBWG0lswgFkeqeu-40">
          <mxGeometry y="104" width="160" height="26" as="geometry" />
        </mxCell>
        <mxCell id="BszTIMBWG0lswgFkeqeu-47" value="+&amp;nbsp;ProfileImageUrl: string" style="text;strokeColor=none;fillColor=none;align=left;verticalAlign=top;spacingLeft=4;spacingRight=4;overflow=hidden;rotatable=0;points=[[0,0.5],[1,0.5]];portConstraint=eastwest;whiteSpace=wrap;html=1;" vertex="1" parent="BszTIMBWG0lswgFkeqeu-40">
          <mxGeometry y="130" width="160" height="26" as="geometry" />
        </mxCell>
        <mxCell id="BszTIMBWG0lswgFkeqeu-46" value="+&amp;nbsp;CommentDate: DateTIme" style="text;strokeColor=none;fillColor=none;align=left;verticalAlign=top;spacingLeft=4;spacingRight=4;overflow=hidden;rotatable=0;points=[[0,0.5],[1,0.5]];portConstraint=eastwest;whiteSpace=wrap;html=1;" vertex="1" parent="BszTIMBWG0lswgFkeqeu-40">
          <mxGeometry y="156" width="160" height="26" as="geometry" />
        </mxCell>
        <mxCell id="BszTIMBWG0lswgFkeqeu-45" value="+&amp;nbsp;Game:&amp;nbsp;Game" style="text;strokeColor=none;fillColor=none;align=left;verticalAlign=top;spacingLeft=4;spacingRight=4;overflow=hidden;rotatable=0;points=[[0,0.5],[1,0.5]];portConstraint=eastwest;whiteSpace=wrap;html=1;" vertex="1" parent="BszTIMBWG0lswgFkeqeu-40">
          <mxGeometry y="182" width="160" height="26" as="geometry" />
        </mxCell>
        <mxCell id="BszTIMBWG0lswgFkeqeu-171" style="edgeStyle=orthogonalEdgeStyle;rounded=0;orthogonalLoop=1;jettySize=auto;html=1;exitX=0.5;exitY=0;exitDx=0;exitDy=0;endArrow=block;endFill=0;" edge="1" parent="1" source="BszTIMBWG0lswgFkeqeu-48" target="BszTIMBWG0lswgFkeqeu-167">
          <mxGeometry relative="1" as="geometry">
            <Array as="points">
              <mxPoint x="1270" y="-350" />
              <mxPoint x="520" y="-350" />
            </Array>
          </mxGeometry>
        </mxCell>
        <mxCell id="BszTIMBWG0lswgFkeqeu-48" value="GameQuestion" style="swimlane;fontStyle=0;childLayout=stackLayout;horizontal=1;startSize=26;fillColor=none;horizontalStack=0;resizeParent=1;resizeParentMax=0;resizeLast=0;collapsible=1;marginBottom=0;whiteSpace=wrap;html=1;" vertex="1" parent="1">
          <mxGeometry x="1090" y="-310" width="260" height="182" as="geometry" />
        </mxCell>
        <mxCell id="BszTIMBWG0lswgFkeqeu-49" value="+ Text: string" style="text;strokeColor=none;fillColor=none;align=left;verticalAlign=top;spacingLeft=4;spacingRight=4;overflow=hidden;rotatable=0;points=[[0,0.5],[1,0.5]];portConstraint=eastwest;whiteSpace=wrap;html=1;" vertex="1" parent="BszTIMBWG0lswgFkeqeu-48">
          <mxGeometry y="26" width="260" height="26" as="geometry" />
        </mxCell>
        <mxCell id="BszTIMBWG0lswgFkeqeu-50" value="+ GameId: int" style="text;strokeColor=none;fillColor=none;align=left;verticalAlign=top;spacingLeft=4;spacingRight=4;overflow=hidden;rotatable=0;points=[[0,0.5],[1,0.5]];portConstraint=eastwest;whiteSpace=wrap;html=1;" vertex="1" parent="BszTIMBWG0lswgFkeqeu-48">
          <mxGeometry y="52" width="260" height="26" as="geometry" />
        </mxCell>
        <mxCell id="BszTIMBWG0lswgFkeqeu-51" value="+ Game: Game" style="text;strokeColor=none;fillColor=none;align=left;verticalAlign=top;spacingLeft=4;spacingRight=4;overflow=hidden;rotatable=0;points=[[0,0.5],[1,0.5]];portConstraint=eastwest;whiteSpace=wrap;html=1;" vertex="1" parent="BszTIMBWG0lswgFkeqeu-48">
          <mxGeometry y="78" width="260" height="26" as="geometry" />
        </mxCell>
        <mxCell id="BszTIMBWG0lswgFkeqeu-52" value="+&amp;nbsp;QuestionImageUrl:&amp;nbsp;string" style="text;strokeColor=none;fillColor=none;align=left;verticalAlign=top;spacingLeft=4;spacingRight=4;overflow=hidden;rotatable=0;points=[[0,0.5],[1,0.5]];portConstraint=eastwest;whiteSpace=wrap;html=1;" vertex="1" parent="BszTIMBWG0lswgFkeqeu-48">
          <mxGeometry y="104" width="260" height="26" as="geometry" />
        </mxCell>
        <mxCell id="BszTIMBWG0lswgFkeqeu-53" value="+&amp;nbsp;IsCustom: string" style="text;strokeColor=none;fillColor=none;align=left;verticalAlign=top;spacingLeft=4;spacingRight=4;overflow=hidden;rotatable=0;points=[[0,0.5],[1,0.5]];portConstraint=eastwest;whiteSpace=wrap;html=1;" vertex="1" parent="BszTIMBWG0lswgFkeqeu-48">
          <mxGeometry y="130" width="260" height="26" as="geometry" />
        </mxCell>
        <mxCell id="BszTIMBWG0lswgFkeqeu-54" value="+&amp;nbsp;AnswerOptions: &amp;nbsp;List&amp;lt;GameAnswerOption&amp;gt;" style="text;strokeColor=none;fillColor=none;align=left;verticalAlign=top;spacingLeft=4;spacingRight=4;overflow=hidden;rotatable=0;points=[[0,0.5],[1,0.5]];portConstraint=eastwest;whiteSpace=wrap;html=1;" vertex="1" parent="BszTIMBWG0lswgFkeqeu-48">
          <mxGeometry y="156" width="260" height="26" as="geometry" />
        </mxCell>
        <mxCell id="BszTIMBWG0lswgFkeqeu-185" style="edgeStyle=orthogonalEdgeStyle;rounded=0;orthogonalLoop=1;jettySize=auto;html=1;entryX=1;entryY=0.5;entryDx=0;entryDy=0;endArrow=block;endFill=0;" edge="1" parent="1" source="BszTIMBWG0lswgFkeqeu-56" target="BszTIMBWG0lswgFkeqeu-167">
          <mxGeometry relative="1" as="geometry">
            <Array as="points">
              <mxPoint x="-175" y="-350" />
              <mxPoint x="520" y="-350" />
            </Array>
          </mxGeometry>
        </mxCell>
        <mxCell id="BszTIMBWG0lswgFkeqeu-56" value="GameResults" style="swimlane;fontStyle=0;childLayout=stackLayout;horizontal=1;startSize=26;fillColor=none;horizontalStack=0;resizeParent=1;resizeParentMax=0;resizeLast=0;collapsible=1;marginBottom=0;whiteSpace=wrap;html=1;" vertex="1" parent="1">
          <mxGeometry x="-250" y="-310" width="190" height="182" as="geometry" />
        </mxCell>
        <mxCell id="BszTIMBWG0lswgFkeqeu-57" value="+ NumberOfCorrectAnswers: int" style="text;strokeColor=none;fillColor=none;align=left;verticalAlign=top;spacingLeft=4;spacingRight=4;overflow=hidden;rotatable=0;points=[[0,0.5],[1,0.5]];portConstraint=eastwest;whiteSpace=wrap;html=1;" vertex="1" parent="BszTIMBWG0lswgFkeqeu-56">
          <mxGeometry y="26" width="190" height="26" as="geometry" />
        </mxCell>
        <mxCell id="BszTIMBWG0lswgFkeqeu-58" value="+ NumberOfQuestions: int" style="text;strokeColor=none;fillColor=none;align=left;verticalAlign=top;spacingLeft=4;spacingRight=4;overflow=hidden;rotatable=0;points=[[0,0.5],[1,0.5]];portConstraint=eastwest;whiteSpace=wrap;html=1;" vertex="1" parent="BszTIMBWG0lswgFkeqeu-56">
          <mxGeometry y="52" width="190" height="26" as="geometry" />
        </mxCell>
        <mxCell id="BszTIMBWG0lswgFkeqeu-59" value="+ UserId: int" style="text;strokeColor=none;fillColor=none;align=left;verticalAlign=top;spacingLeft=4;spacingRight=4;overflow=hidden;rotatable=0;points=[[0,0.5],[1,0.5]];portConstraint=eastwest;whiteSpace=wrap;html=1;" vertex="1" parent="BszTIMBWG0lswgFkeqeu-56">
          <mxGeometry y="78" width="190" height="26" as="geometry" />
        </mxCell>
        <mxCell id="BszTIMBWG0lswgFkeqeu-60" value="+&amp;nbsp;User:&amp;nbsp;User" style="text;strokeColor=none;fillColor=none;align=left;verticalAlign=top;spacingLeft=4;spacingRight=4;overflow=hidden;rotatable=0;points=[[0,0.5],[1,0.5]];portConstraint=eastwest;whiteSpace=wrap;html=1;" vertex="1" parent="BszTIMBWG0lswgFkeqeu-56">
          <mxGeometry y="104" width="190" height="26" as="geometry" />
        </mxCell>
        <mxCell id="BszTIMBWG0lswgFkeqeu-61" value="+&amp;nbsp;GameId: int" style="text;strokeColor=none;fillColor=none;align=left;verticalAlign=top;spacingLeft=4;spacingRight=4;overflow=hidden;rotatable=0;points=[[0,0.5],[1,0.5]];portConstraint=eastwest;whiteSpace=wrap;html=1;" vertex="1" parent="BszTIMBWG0lswgFkeqeu-56">
          <mxGeometry y="130" width="190" height="26" as="geometry" />
        </mxCell>
        <mxCell id="BszTIMBWG0lswgFkeqeu-62" value="+&amp;nbsp;Game: &amp;nbsp;Game" style="text;strokeColor=none;fillColor=none;align=left;verticalAlign=top;spacingLeft=4;spacingRight=4;overflow=hidden;rotatable=0;points=[[0,0.5],[1,0.5]];portConstraint=eastwest;whiteSpace=wrap;html=1;" vertex="1" parent="BszTIMBWG0lswgFkeqeu-56">
          <mxGeometry y="156" width="190" height="26" as="geometry" />
        </mxCell>
        <mxCell id="BszTIMBWG0lswgFkeqeu-189" style="edgeStyle=orthogonalEdgeStyle;rounded=0;orthogonalLoop=1;jettySize=auto;html=1;exitX=0.5;exitY=0;exitDx=0;exitDy=0;entryX=1;entryY=0.5;entryDx=0;entryDy=0;endArrow=block;endFill=0;" edge="1" parent="1" source="BszTIMBWG0lswgFkeqeu-63" target="BszTIMBWG0lswgFkeqeu-167">
          <mxGeometry relative="1" as="geometry">
            <Array as="points">
              <mxPoint x="1070" y="-350" />
              <mxPoint x="520" y="-350" />
            </Array>
          </mxGeometry>
        </mxCell>
        <mxCell id="BszTIMBWG0lswgFkeqeu-63" value="GameStatus" style="swimlane;fontStyle=0;childLayout=stackLayout;horizontal=1;startSize=26;fillColor=none;horizontalStack=0;resizeParent=1;resizeParentMax=0;resizeLast=0;collapsible=1;marginBottom=0;whiteSpace=wrap;html=1;" vertex="1" parent="1">
          <mxGeometry x="1000" y="-108" width="140" height="78" as="geometry" />
        </mxCell>
        <mxCell id="BszTIMBWG0lswgFkeqeu-64" value="+ Name: string" style="text;strokeColor=none;fillColor=none;align=left;verticalAlign=top;spacingLeft=4;spacingRight=4;overflow=hidden;rotatable=0;points=[[0,0.5],[1,0.5]];portConstraint=eastwest;whiteSpace=wrap;html=1;" vertex="1" parent="BszTIMBWG0lswgFkeqeu-63">
          <mxGeometry y="26" width="140" height="26" as="geometry" />
        </mxCell>
        <mxCell id="BszTIMBWG0lswgFkeqeu-65" value="+ Games: List&amp;lt;Game&amp;gt;" style="text;strokeColor=none;fillColor=none;align=left;verticalAlign=top;spacingLeft=4;spacingRight=4;overflow=hidden;rotatable=0;points=[[0,0.5],[1,0.5]];portConstraint=eastwest;whiteSpace=wrap;html=1;" vertex="1" parent="BszTIMBWG0lswgFkeqeu-63">
          <mxGeometry y="52" width="140" height="26" as="geometry" />
        </mxCell>
        <mxCell id="BszTIMBWG0lswgFkeqeu-184" style="edgeStyle=orthogonalEdgeStyle;rounded=0;orthogonalLoop=1;jettySize=auto;html=1;entryX=1;entryY=0.5;entryDx=0;entryDy=0;endArrow=block;endFill=0;" edge="1" parent="1" source="BszTIMBWG0lswgFkeqeu-70" target="BszTIMBWG0lswgFkeqeu-167">
          <mxGeometry relative="1" as="geometry">
            <Array as="points">
              <mxPoint x="-40" y="-350" />
              <mxPoint x="520" y="-350" />
            </Array>
          </mxGeometry>
        </mxCell>
        <mxCell id="BszTIMBWG0lswgFkeqeu-70" value="Notification" style="swimlane;fontStyle=0;childLayout=stackLayout;horizontal=1;startSize=26;fillColor=none;horizontalStack=0;resizeParent=1;resizeParentMax=0;resizeLast=0;collapsible=1;marginBottom=0;whiteSpace=wrap;html=1;" vertex="1" parent="1">
          <mxGeometry x="-110" y="-108" width="140" height="182" as="geometry" />
        </mxCell>
        <mxCell id="BszTIMBWG0lswgFkeqeu-71" value="+ UserId: int" style="text;strokeColor=none;fillColor=none;align=left;verticalAlign=top;spacingLeft=4;spacingRight=4;overflow=hidden;rotatable=0;points=[[0,0.5],[1,0.5]];portConstraint=eastwest;whiteSpace=wrap;html=1;" vertex="1" parent="BszTIMBWG0lswgFkeqeu-70">
          <mxGeometry y="26" width="140" height="26" as="geometry" />
        </mxCell>
        <mxCell id="BszTIMBWG0lswgFkeqeu-74" value="+&amp;nbsp;User:&amp;nbsp;User" style="text;strokeColor=none;fillColor=none;align=left;verticalAlign=top;spacingLeft=4;spacingRight=4;overflow=hidden;rotatable=0;points=[[0,0.5],[1,0.5]];portConstraint=eastwest;whiteSpace=wrap;html=1;" vertex="1" parent="BszTIMBWG0lswgFkeqeu-70">
          <mxGeometry y="52" width="140" height="26" as="geometry" />
        </mxCell>
        <mxCell id="BszTIMBWG0lswgFkeqeu-75" value="+&amp;nbsp;Title: string" style="text;strokeColor=none;fillColor=none;align=left;verticalAlign=top;spacingLeft=4;spacingRight=4;overflow=hidden;rotatable=0;points=[[0,0.5],[1,0.5]];portConstraint=eastwest;whiteSpace=wrap;html=1;" vertex="1" parent="BszTIMBWG0lswgFkeqeu-70">
          <mxGeometry y="78" width="140" height="26" as="geometry" />
        </mxCell>
        <mxCell id="BszTIMBWG0lswgFkeqeu-76" value="+&amp;nbsp;Message: &amp;nbsp;String" style="text;strokeColor=none;fillColor=none;align=left;verticalAlign=top;spacingLeft=4;spacingRight=4;overflow=hidden;rotatable=0;points=[[0,0.5],[1,0.5]];portConstraint=eastwest;whiteSpace=wrap;html=1;" vertex="1" parent="BszTIMBWG0lswgFkeqeu-70">
          <mxGeometry y="104" width="140" height="26" as="geometry" />
        </mxCell>
        <mxCell id="BszTIMBWG0lswgFkeqeu-77" value="+&amp;nbsp;CreatedAt: DateTime" style="text;strokeColor=none;fillColor=none;align=left;verticalAlign=top;spacingLeft=4;spacingRight=4;overflow=hidden;rotatable=0;points=[[0,0.5],[1,0.5]];portConstraint=eastwest;whiteSpace=wrap;html=1;" vertex="1" parent="BszTIMBWG0lswgFkeqeu-70">
          <mxGeometry y="130" width="140" height="26" as="geometry" />
        </mxCell>
        <mxCell id="BszTIMBWG0lswgFkeqeu-78" value="+&amp;nbsp;IsRead: bool" style="text;strokeColor=none;fillColor=none;align=left;verticalAlign=top;spacingLeft=4;spacingRight=4;overflow=hidden;rotatable=0;points=[[0,0.5],[1,0.5]];portConstraint=eastwest;whiteSpace=wrap;html=1;" vertex="1" parent="BszTIMBWG0lswgFkeqeu-70">
          <mxGeometry y="156" width="140" height="26" as="geometry" />
        </mxCell>
        <mxCell id="BszTIMBWG0lswgFkeqeu-183" style="edgeStyle=orthogonalEdgeStyle;rounded=0;orthogonalLoop=1;jettySize=auto;html=1;entryX=1;entryY=0.5;entryDx=0;entryDy=0;endArrow=block;endFill=0;" edge="1" parent="1" source="BszTIMBWG0lswgFkeqeu-79" target="BszTIMBWG0lswgFkeqeu-167">
          <mxGeometry relative="1" as="geometry">
            <Array as="points">
              <mxPoint x="60" y="-350" />
              <mxPoint x="520" y="-350" />
            </Array>
          </mxGeometry>
        </mxCell>
        <mxCell id="BszTIMBWG0lswgFkeqeu-79" value="Player" style="swimlane;fontStyle=0;childLayout=stackLayout;horizontal=1;startSize=26;fillColor=none;horizontalStack=0;resizeParent=1;resizeParentMax=0;resizeLast=0;collapsible=1;marginBottom=0;whiteSpace=wrap;html=1;" vertex="1" parent="1">
          <mxGeometry y="-310" width="110" height="182" as="geometry" />
        </mxCell>
        <mxCell id="BszTIMBWG0lswgFkeqeu-80" value="+ GameId: int" style="text;strokeColor=none;fillColor=none;align=left;verticalAlign=top;spacingLeft=4;spacingRight=4;overflow=hidden;rotatable=0;points=[[0,0.5],[1,0.5]];portConstraint=eastwest;whiteSpace=wrap;html=1;" vertex="1" parent="BszTIMBWG0lswgFkeqeu-79">
          <mxGeometry y="26" width="110" height="26" as="geometry" />
        </mxCell>
        <mxCell id="BszTIMBWG0lswgFkeqeu-81" value="+ Game:&amp;nbsp;Game" style="text;strokeColor=none;fillColor=none;align=left;verticalAlign=top;spacingLeft=4;spacingRight=4;overflow=hidden;rotatable=0;points=[[0,0.5],[1,0.5]];portConstraint=eastwest;whiteSpace=wrap;html=1;" vertex="1" parent="BszTIMBWG0lswgFkeqeu-79">
          <mxGeometry y="52" width="110" height="26" as="geometry" />
        </mxCell>
        <mxCell id="BszTIMBWG0lswgFkeqeu-82" value="+&amp;nbsp;Name: string" style="text;strokeColor=none;fillColor=none;align=left;verticalAlign=top;spacingLeft=4;spacingRight=4;overflow=hidden;rotatable=0;points=[[0,0.5],[1,0.5]];portConstraint=eastwest;whiteSpace=wrap;html=1;" vertex="1" parent="BszTIMBWG0lswgFkeqeu-79">
          <mxGeometry y="78" width="110" height="26" as="geometry" />
        </mxCell>
        <mxCell id="BszTIMBWG0lswgFkeqeu-83" value="+ Score: int" style="text;strokeColor=none;fillColor=none;align=left;verticalAlign=top;spacingLeft=4;spacingRight=4;overflow=hidden;rotatable=0;points=[[0,0.5],[1,0.5]];portConstraint=eastwest;whiteSpace=wrap;html=1;" vertex="1" parent="BszTIMBWG0lswgFkeqeu-79">
          <mxGeometry y="104" width="110" height="26" as="geometry" />
        </mxCell>
        <mxCell id="BszTIMBWG0lswgFkeqeu-84" value="+&amp;nbsp;UserId: int" style="text;strokeColor=none;fillColor=none;align=left;verticalAlign=top;spacingLeft=4;spacingRight=4;overflow=hidden;rotatable=0;points=[[0,0.5],[1,0.5]];portConstraint=eastwest;whiteSpace=wrap;html=1;" vertex="1" parent="BszTIMBWG0lswgFkeqeu-79">
          <mxGeometry y="130" width="110" height="26" as="geometry" />
        </mxCell>
        <mxCell id="BszTIMBWG0lswgFkeqeu-85" value="+&amp;nbsp;User: User" style="text;strokeColor=none;fillColor=none;align=left;verticalAlign=top;spacingLeft=4;spacingRight=4;overflow=hidden;rotatable=0;points=[[0,0.5],[1,0.5]];portConstraint=eastwest;whiteSpace=wrap;html=1;" vertex="1" parent="BszTIMBWG0lswgFkeqeu-79">
          <mxGeometry y="156" width="110" height="26" as="geometry" />
        </mxCell>
        <mxCell id="BszTIMBWG0lswgFkeqeu-182" style="edgeStyle=orthogonalEdgeStyle;rounded=0;orthogonalLoop=1;jettySize=auto;html=1;entryX=1;entryY=0.5;entryDx=0;entryDy=0;endArrow=block;endFill=0;" edge="1" parent="1" source="BszTIMBWG0lswgFkeqeu-86" target="BszTIMBWG0lswgFkeqeu-167">
          <mxGeometry relative="1" as="geometry">
            <Array as="points">
              <mxPoint x="130" y="-350" />
              <mxPoint x="520" y="-350" />
            </Array>
          </mxGeometry>
        </mxCell>
        <mxCell id="BszTIMBWG0lswgFkeqeu-86" value="Quiz" style="swimlane;fontStyle=0;childLayout=stackLayout;horizontal=1;startSize=26;fillColor=none;horizontalStack=0;resizeParent=1;resizeParentMax=0;resizeLast=0;collapsible=1;marginBottom=0;whiteSpace=wrap;html=1;" vertex="1" parent="1">
          <mxGeometry x="50" y="-108" width="200" height="260" as="geometry" />
        </mxCell>
        <mxCell id="BszTIMBWG0lswgFkeqeu-87" value="+ GameName: string" style="text;strokeColor=none;fillColor=none;align=left;verticalAlign=top;spacingLeft=4;spacingRight=4;overflow=hidden;rotatable=0;points=[[0,0.5],[1,0.5]];portConstraint=eastwest;whiteSpace=wrap;html=1;" vertex="1" parent="BszTIMBWG0lswgFkeqeu-86">
          <mxGeometry y="26" width="200" height="26" as="geometry" />
        </mxCell>
        <mxCell id="BszTIMBWG0lswgFkeqeu-88" value="+ GameCoverImageUrl:&amp;nbsp;string" style="text;strokeColor=none;fillColor=none;align=left;verticalAlign=top;spacingLeft=4;spacingRight=4;overflow=hidden;rotatable=0;points=[[0,0.5],[1,0.5]];portConstraint=eastwest;whiteSpace=wrap;html=1;" vertex="1" parent="BszTIMBWG0lswgFkeqeu-86">
          <mxGeometry y="52" width="200" height="26" as="geometry" />
        </mxCell>
        <mxCell id="BszTIMBWG0lswgFkeqeu-89" value="+&amp;nbsp;IsDraft: bool" style="text;strokeColor=none;fillColor=none;align=left;verticalAlign=top;spacingLeft=4;spacingRight=4;overflow=hidden;rotatable=0;points=[[0,0.5],[1,0.5]];portConstraint=eastwest;whiteSpace=wrap;html=1;" vertex="1" parent="BszTIMBWG0lswgFkeqeu-86">
          <mxGeometry y="78" width="200" height="26" as="geometry" />
        </mxCell>
        <mxCell id="BszTIMBWG0lswgFkeqeu-90" value="+ StartTime: DateTIme" style="text;strokeColor=none;fillColor=none;align=left;verticalAlign=top;spacingLeft=4;spacingRight=4;overflow=hidden;rotatable=0;points=[[0,0.5],[1,0.5]];portConstraint=eastwest;whiteSpace=wrap;html=1;" vertex="1" parent="BszTIMBWG0lswgFkeqeu-86">
          <mxGeometry y="104" width="200" height="26" as="geometry" />
        </mxCell>
        <mxCell id="BszTIMBWG0lswgFkeqeu-91" value="+&amp;nbsp;EndTime: DateTime" style="text;strokeColor=none;fillColor=none;align=left;verticalAlign=top;spacingLeft=4;spacingRight=4;overflow=hidden;rotatable=0;points=[[0,0.5],[1,0.5]];portConstraint=eastwest;whiteSpace=wrap;html=1;" vertex="1" parent="BszTIMBWG0lswgFkeqeu-86">
          <mxGeometry y="130" width="200" height="26" as="geometry" />
        </mxCell>
        <mxCell id="BszTIMBWG0lswgFkeqeu-92" value="+&amp;nbsp;User: User" style="text;strokeColor=none;fillColor=none;align=left;verticalAlign=top;spacingLeft=4;spacingRight=4;overflow=hidden;rotatable=0;points=[[0,0.5],[1,0.5]];portConstraint=eastwest;whiteSpace=wrap;html=1;" vertex="1" parent="BszTIMBWG0lswgFkeqeu-86">
          <mxGeometry y="156" width="200" height="26" as="geometry" />
        </mxCell>
        <mxCell id="BszTIMBWG0lswgFkeqeu-93" value="+ Questions:&amp;nbsp;List&amp;lt;QuizQuestion&amp;gt;" style="text;strokeColor=none;fillColor=none;align=left;verticalAlign=top;spacingLeft=4;spacingRight=4;overflow=hidden;rotatable=0;points=[[0,0.5],[1,0.5]];portConstraint=eastwest;whiteSpace=wrap;html=1;" vertex="1" parent="BszTIMBWG0lswgFkeqeu-86">
          <mxGeometry y="182" width="200" height="26" as="geometry" />
        </mxCell>
        <mxCell id="BszTIMBWG0lswgFkeqeu-94" value="+ QuizResults:&amp;nbsp;List&amp;lt;QuizResults&amp;gt;" style="text;strokeColor=none;fillColor=none;align=left;verticalAlign=top;spacingLeft=4;spacingRight=4;overflow=hidden;rotatable=0;points=[[0,0.5],[1,0.5]];portConstraint=eastwest;whiteSpace=wrap;html=1;" vertex="1" parent="BszTIMBWG0lswgFkeqeu-86">
          <mxGeometry y="208" width="200" height="26" as="geometry" />
        </mxCell>
        <mxCell id="BszTIMBWG0lswgFkeqeu-95" value="+ Comments:&amp;nbsp;List&amp;lt;QuizComment&amp;gt;" style="text;strokeColor=none;fillColor=none;align=left;verticalAlign=top;spacingLeft=4;spacingRight=4;overflow=hidden;rotatable=0;points=[[0,0.5],[1,0.5]];portConstraint=eastwest;whiteSpace=wrap;html=1;" vertex="1" parent="BszTIMBWG0lswgFkeqeu-86">
          <mxGeometry y="234" width="200" height="26" as="geometry" />
        </mxCell>
        <mxCell id="BszTIMBWG0lswgFkeqeu-178" style="edgeStyle=orthogonalEdgeStyle;rounded=0;orthogonalLoop=1;jettySize=auto;html=1;exitX=0.5;exitY=0;exitDx=0;exitDy=0;entryX=1;entryY=0.5;entryDx=0;entryDy=0;endArrow=block;endFill=0;" edge="1" parent="1" source="BszTIMBWG0lswgFkeqeu-96" target="BszTIMBWG0lswgFkeqeu-167">
          <mxGeometry relative="1" as="geometry">
            <Array as="points">
              <mxPoint x="960" y="-350" />
              <mxPoint x="520" y="-350" />
            </Array>
          </mxGeometry>
        </mxCell>
        <mxCell id="BszTIMBWG0lswgFkeqeu-96" value="QuizAnswerOption" style="swimlane;fontStyle=0;childLayout=stackLayout;horizontal=1;startSize=26;fillColor=none;horizontalStack=0;resizeParent=1;resizeParentMax=0;resizeLast=0;collapsible=1;marginBottom=0;whiteSpace=wrap;html=1;" vertex="1" parent="1">
          <mxGeometry x="870" y="-310" width="180" height="130" as="geometry" />
        </mxCell>
        <mxCell id="BszTIMBWG0lswgFkeqeu-97" value="+ Text: string" style="text;strokeColor=none;fillColor=none;align=left;verticalAlign=top;spacingLeft=4;spacingRight=4;overflow=hidden;rotatable=0;points=[[0,0.5],[1,0.5]];portConstraint=eastwest;whiteSpace=wrap;html=1;" vertex="1" parent="BszTIMBWG0lswgFkeqeu-96">
          <mxGeometry y="26" width="180" height="26" as="geometry" />
        </mxCell>
        <mxCell id="BszTIMBWG0lswgFkeqeu-98" value="+ IsCorrect: bool" style="text;strokeColor=none;fillColor=none;align=left;verticalAlign=top;spacingLeft=4;spacingRight=4;overflow=hidden;rotatable=0;points=[[0,0.5],[1,0.5]];portConstraint=eastwest;whiteSpace=wrap;html=1;" vertex="1" parent="BszTIMBWG0lswgFkeqeu-96">
          <mxGeometry y="52" width="180" height="26" as="geometry" />
        </mxCell>
        <mxCell id="BszTIMBWG0lswgFkeqeu-99" value="+ QuizQuestionId: int" style="text;strokeColor=none;fillColor=none;align=left;verticalAlign=top;spacingLeft=4;spacingRight=4;overflow=hidden;rotatable=0;points=[[0,0.5],[1,0.5]];portConstraint=eastwest;whiteSpace=wrap;html=1;" vertex="1" parent="BszTIMBWG0lswgFkeqeu-96">
          <mxGeometry y="78" width="180" height="26" as="geometry" />
        </mxCell>
        <mxCell id="BszTIMBWG0lswgFkeqeu-100" value="+&amp;nbsp;QuizQuestion:&amp;nbsp;QuizQuestion" style="text;strokeColor=none;fillColor=none;align=left;verticalAlign=top;spacingLeft=4;spacingRight=4;overflow=hidden;rotatable=0;points=[[0,0.5],[1,0.5]];portConstraint=eastwest;whiteSpace=wrap;html=1;" vertex="1" parent="BszTIMBWG0lswgFkeqeu-96">
          <mxGeometry y="104" width="180" height="26" as="geometry" />
        </mxCell>
        <mxCell id="BszTIMBWG0lswgFkeqeu-187" style="edgeStyle=orthogonalEdgeStyle;rounded=0;orthogonalLoop=1;jettySize=auto;html=1;exitX=0.5;exitY=0;exitDx=0;exitDy=0;entryX=1;entryY=0.5;entryDx=0;entryDy=0;endArrow=block;endFill=0;" edge="1" parent="1" source="BszTIMBWG0lswgFkeqeu-101" target="BszTIMBWG0lswgFkeqeu-167">
          <mxGeometry relative="1" as="geometry">
            <Array as="points">
              <mxPoint x="1470" y="-350" />
              <mxPoint x="520" y="-350" />
            </Array>
          </mxGeometry>
        </mxCell>
        <mxCell id="BszTIMBWG0lswgFkeqeu-101" value="QuizComment" style="swimlane;fontStyle=0;childLayout=stackLayout;horizontal=1;startSize=26;fillColor=none;horizontalStack=0;resizeParent=1;resizeParentMax=0;resizeLast=0;collapsible=1;marginBottom=0;whiteSpace=wrap;html=1;" vertex="1" parent="1">
          <mxGeometry x="1390" y="-310" width="160" height="208" as="geometry" />
        </mxCell>
        <mxCell id="BszTIMBWG0lswgFkeqeu-102" value="+ QuizId: int" style="text;strokeColor=none;fillColor=none;align=left;verticalAlign=top;spacingLeft=4;spacingRight=4;overflow=hidden;rotatable=0;points=[[0,0.5],[1,0.5]];portConstraint=eastwest;whiteSpace=wrap;html=1;" vertex="1" parent="BszTIMBWG0lswgFkeqeu-101">
          <mxGeometry y="26" width="160" height="26" as="geometry" />
        </mxCell>
        <mxCell id="BszTIMBWG0lswgFkeqeu-103" value="+ UserId: int" style="text;strokeColor=none;fillColor=none;align=left;verticalAlign=top;spacingLeft=4;spacingRight=4;overflow=hidden;rotatable=0;points=[[0,0.5],[1,0.5]];portConstraint=eastwest;whiteSpace=wrap;html=1;" vertex="1" parent="BszTIMBWG0lswgFkeqeu-101">
          <mxGeometry y="52" width="160" height="26" as="geometry" />
        </mxCell>
        <mxCell id="BszTIMBWG0lswgFkeqeu-104" value="+ Content: string" style="text;strokeColor=none;fillColor=none;align=left;verticalAlign=top;spacingLeft=4;spacingRight=4;overflow=hidden;rotatable=0;points=[[0,0.5],[1,0.5]];portConstraint=eastwest;whiteSpace=wrap;html=1;" vertex="1" parent="BszTIMBWG0lswgFkeqeu-101">
          <mxGeometry y="78" width="160" height="26" as="geometry" />
        </mxCell>
        <mxCell id="BszTIMBWG0lswgFkeqeu-105" value="+&amp;nbsp;Username:&amp;nbsp;string" style="text;strokeColor=none;fillColor=none;align=left;verticalAlign=top;spacingLeft=4;spacingRight=4;overflow=hidden;rotatable=0;points=[[0,0.5],[1,0.5]];portConstraint=eastwest;whiteSpace=wrap;html=1;" vertex="1" parent="BszTIMBWG0lswgFkeqeu-101">
          <mxGeometry y="104" width="160" height="26" as="geometry" />
        </mxCell>
        <mxCell id="BszTIMBWG0lswgFkeqeu-106" value="+&amp;nbsp;ProfileImageUrl: string" style="text;strokeColor=none;fillColor=none;align=left;verticalAlign=top;spacingLeft=4;spacingRight=4;overflow=hidden;rotatable=0;points=[[0,0.5],[1,0.5]];portConstraint=eastwest;whiteSpace=wrap;html=1;" vertex="1" parent="BszTIMBWG0lswgFkeqeu-101">
          <mxGeometry y="130" width="160" height="26" as="geometry" />
        </mxCell>
        <mxCell id="BszTIMBWG0lswgFkeqeu-107" value="+&amp;nbsp;CommentDate: DateTIme" style="text;strokeColor=none;fillColor=none;align=left;verticalAlign=top;spacingLeft=4;spacingRight=4;overflow=hidden;rotatable=0;points=[[0,0.5],[1,0.5]];portConstraint=eastwest;whiteSpace=wrap;html=1;" vertex="1" parent="BszTIMBWG0lswgFkeqeu-101">
          <mxGeometry y="156" width="160" height="26" as="geometry" />
        </mxCell>
        <mxCell id="BszTIMBWG0lswgFkeqeu-108" value="+ Quiz:&amp;nbsp;Quiz" style="text;strokeColor=none;fillColor=none;align=left;verticalAlign=top;spacingLeft=4;spacingRight=4;overflow=hidden;rotatable=0;points=[[0,0.5],[1,0.5]];portConstraint=eastwest;whiteSpace=wrap;html=1;" vertex="1" parent="BszTIMBWG0lswgFkeqeu-101">
          <mxGeometry y="182" width="160" height="26" as="geometry" />
        </mxCell>
        <mxCell id="BszTIMBWG0lswgFkeqeu-180" style="edgeStyle=orthogonalEdgeStyle;rounded=0;orthogonalLoop=1;jettySize=auto;html=1;entryX=1;entryY=0.5;entryDx=0;entryDy=0;endArrow=block;endFill=0;" edge="1" parent="1" source="BszTIMBWG0lswgFkeqeu-109" target="BszTIMBWG0lswgFkeqeu-167">
          <mxGeometry relative="1" as="geometry">
            <Array as="points">
              <mxPoint x="265" y="-350" />
              <mxPoint x="520" y="-350" />
            </Array>
          </mxGeometry>
        </mxCell>
        <mxCell id="BszTIMBWG0lswgFkeqeu-109" value="QuizQuestion" style="swimlane;fontStyle=0;childLayout=stackLayout;horizontal=1;startSize=26;fillColor=none;horizontalStack=0;resizeParent=1;resizeParentMax=0;resizeLast=0;collapsible=1;marginBottom=0;whiteSpace=wrap;html=1;" vertex="1" parent="1">
          <mxGeometry x="145" y="-310" width="250" height="156" as="geometry" />
        </mxCell>
        <mxCell id="BszTIMBWG0lswgFkeqeu-110" value="+ Text: string" style="text;strokeColor=none;fillColor=none;align=left;verticalAlign=top;spacingLeft=4;spacingRight=4;overflow=hidden;rotatable=0;points=[[0,0.5],[1,0.5]];portConstraint=eastwest;whiteSpace=wrap;html=1;" vertex="1" parent="BszTIMBWG0lswgFkeqeu-109">
          <mxGeometry y="26" width="250" height="26" as="geometry" />
        </mxCell>
        <mxCell id="BszTIMBWG0lswgFkeqeu-111" value="+ QuizId: int" style="text;strokeColor=none;fillColor=none;align=left;verticalAlign=top;spacingLeft=4;spacingRight=4;overflow=hidden;rotatable=0;points=[[0,0.5],[1,0.5]];portConstraint=eastwest;whiteSpace=wrap;html=1;" vertex="1" parent="BszTIMBWG0lswgFkeqeu-109">
          <mxGeometry y="52" width="250" height="26" as="geometry" />
        </mxCell>
        <mxCell id="BszTIMBWG0lswgFkeqeu-112" value="+ Quiz: Quiz" style="text;strokeColor=none;fillColor=none;align=left;verticalAlign=top;spacingLeft=4;spacingRight=4;overflow=hidden;rotatable=0;points=[[0,0.5],[1,0.5]];portConstraint=eastwest;whiteSpace=wrap;html=1;" vertex="1" parent="BszTIMBWG0lswgFkeqeu-109">
          <mxGeometry y="78" width="250" height="26" as="geometry" />
        </mxCell>
        <mxCell id="BszTIMBWG0lswgFkeqeu-113" value="+&amp;nbsp;QuestionImageUrl:&amp;nbsp;string" style="text;strokeColor=none;fillColor=none;align=left;verticalAlign=top;spacingLeft=4;spacingRight=4;overflow=hidden;rotatable=0;points=[[0,0.5],[1,0.5]];portConstraint=eastwest;whiteSpace=wrap;html=1;" vertex="1" parent="BszTIMBWG0lswgFkeqeu-109">
          <mxGeometry y="104" width="250" height="26" as="geometry" />
        </mxCell>
        <mxCell id="BszTIMBWG0lswgFkeqeu-115" value="+&amp;nbsp;AnswerOptions: &amp;nbsp;List&amp;lt;QuizAnswerOption&amp;gt;" style="text;strokeColor=none;fillColor=none;align=left;verticalAlign=top;spacingLeft=4;spacingRight=4;overflow=hidden;rotatable=0;points=[[0,0.5],[1,0.5]];portConstraint=eastwest;whiteSpace=wrap;html=1;" vertex="1" parent="BszTIMBWG0lswgFkeqeu-109">
          <mxGeometry y="130" width="250" height="26" as="geometry" />
        </mxCell>
        <mxCell id="BszTIMBWG0lswgFkeqeu-176" style="edgeStyle=orthogonalEdgeStyle;rounded=0;orthogonalLoop=1;jettySize=auto;html=1;entryX=1;entryY=0.5;entryDx=0;entryDy=0;endArrow=block;endFill=0;" edge="1" parent="1" source="BszTIMBWG0lswgFkeqeu-116" target="BszTIMBWG0lswgFkeqeu-167">
          <mxGeometry relative="1" as="geometry">
            <Array as="points">
              <mxPoint x="855" y="-350" />
              <mxPoint x="520" y="-350" />
            </Array>
          </mxGeometry>
        </mxCell>
        <mxCell id="BszTIMBWG0lswgFkeqeu-116" value="QuizResults" style="swimlane;fontStyle=0;childLayout=stackLayout;horizontal=1;startSize=26;fillColor=none;horizontalStack=0;resizeParent=1;resizeParentMax=0;resizeLast=0;collapsible=1;marginBottom=0;whiteSpace=wrap;html=1;" vertex="1" parent="1">
          <mxGeometry x="760" y="-160" width="190" height="234" as="geometry" />
        </mxCell>
        <mxCell id="BszTIMBWG0lswgFkeqeu-117" value="+ NumberOfCorrectAnswers: int" style="text;strokeColor=none;fillColor=none;align=left;verticalAlign=top;spacingLeft=4;spacingRight=4;overflow=hidden;rotatable=0;points=[[0,0.5],[1,0.5]];portConstraint=eastwest;whiteSpace=wrap;html=1;" vertex="1" parent="BszTIMBWG0lswgFkeqeu-116">
          <mxGeometry y="26" width="190" height="26" as="geometry" />
        </mxCell>
        <mxCell id="BszTIMBWG0lswgFkeqeu-118" value="+ NumberOfQuestions: int" style="text;strokeColor=none;fillColor=none;align=left;verticalAlign=top;spacingLeft=4;spacingRight=4;overflow=hidden;rotatable=0;points=[[0,0.5],[1,0.5]];portConstraint=eastwest;whiteSpace=wrap;html=1;" vertex="1" parent="BszTIMBWG0lswgFkeqeu-116">
          <mxGeometry y="52" width="190" height="26" as="geometry" />
        </mxCell>
        <mxCell id="BszTIMBWG0lswgFkeqeu-119" value="+ UserId: int" style="text;strokeColor=none;fillColor=none;align=left;verticalAlign=top;spacingLeft=4;spacingRight=4;overflow=hidden;rotatable=0;points=[[0,0.5],[1,0.5]];portConstraint=eastwest;whiteSpace=wrap;html=1;" vertex="1" parent="BszTIMBWG0lswgFkeqeu-116">
          <mxGeometry y="78" width="190" height="26" as="geometry" />
        </mxCell>
        <mxCell id="BszTIMBWG0lswgFkeqeu-120" value="+&amp;nbsp;User:&amp;nbsp;User" style="text;strokeColor=none;fillColor=none;align=left;verticalAlign=top;spacingLeft=4;spacingRight=4;overflow=hidden;rotatable=0;points=[[0,0.5],[1,0.5]];portConstraint=eastwest;whiteSpace=wrap;html=1;" vertex="1" parent="BszTIMBWG0lswgFkeqeu-116">
          <mxGeometry y="104" width="190" height="26" as="geometry" />
        </mxCell>
        <mxCell id="BszTIMBWG0lswgFkeqeu-121" value="+&amp;nbsp;Quiz: int" style="text;strokeColor=none;fillColor=none;align=left;verticalAlign=top;spacingLeft=4;spacingRight=4;overflow=hidden;rotatable=0;points=[[0,0.5],[1,0.5]];portConstraint=eastwest;whiteSpace=wrap;html=1;" vertex="1" parent="BszTIMBWG0lswgFkeqeu-116">
          <mxGeometry y="130" width="190" height="26" as="geometry" />
        </mxCell>
        <mxCell id="BszTIMBWG0lswgFkeqeu-122" value="+&amp;nbsp;Quiz: &amp;nbsp;Game" style="text;strokeColor=none;fillColor=none;align=left;verticalAlign=top;spacingLeft=4;spacingRight=4;overflow=hidden;rotatable=0;points=[[0,0.5],[1,0.5]];portConstraint=eastwest;whiteSpace=wrap;html=1;" vertex="1" parent="BszTIMBWG0lswgFkeqeu-116">
          <mxGeometry y="156" width="190" height="26" as="geometry" />
        </mxCell>
        <mxCell id="BszTIMBWG0lswgFkeqeu-123" value="+ EndTime: DateTime" style="text;strokeColor=none;fillColor=none;align=left;verticalAlign=top;spacingLeft=4;spacingRight=4;overflow=hidden;rotatable=0;points=[[0,0.5],[1,0.5]];portConstraint=eastwest;whiteSpace=wrap;html=1;" vertex="1" parent="BszTIMBWG0lswgFkeqeu-116">
          <mxGeometry y="182" width="190" height="26" as="geometry" />
        </mxCell>
        <mxCell id="BszTIMBWG0lswgFkeqeu-124" value="+ IsReplay: bool" style="text;strokeColor=none;fillColor=none;align=left;verticalAlign=top;spacingLeft=4;spacingRight=4;overflow=hidden;rotatable=0;points=[[0,0.5],[1,0.5]];portConstraint=eastwest;whiteSpace=wrap;html=1;" vertex="1" parent="BszTIMBWG0lswgFkeqeu-116">
          <mxGeometry y="208" width="190" height="26" as="geometry" />
        </mxCell>
        <mxCell id="BszTIMBWG0lswgFkeqeu-181" style="edgeStyle=orthogonalEdgeStyle;rounded=0;orthogonalLoop=1;jettySize=auto;html=1;entryX=1;entryY=0.5;entryDx=0;entryDy=0;exitX=0.5;exitY=0;exitDx=0;exitDy=0;endArrow=block;endFill=0;" edge="1" parent="1" source="BszTIMBWG0lswgFkeqeu-125" target="BszTIMBWG0lswgFkeqeu-167">
          <mxGeometry relative="1" as="geometry">
            <Array as="points">
              <mxPoint x="1370" y="-350" />
              <mxPoint x="520" y="-350" />
            </Array>
          </mxGeometry>
        </mxCell>
        <mxCell id="BszTIMBWG0lswgFkeqeu-125" value="User" style="swimlane;fontStyle=0;childLayout=stackLayout;horizontal=1;startSize=26;fillColor=none;horizontalStack=0;resizeParent=1;resizeParentMax=0;resizeLast=0;collapsible=1;marginBottom=0;whiteSpace=wrap;html=1;" vertex="1" parent="1">
          <mxGeometry x="1250" y="-70" width="240" height="390" as="geometry" />
        </mxCell>
        <mxCell id="BszTIMBWG0lswgFkeqeu-126" value="+ Email: string" style="text;strokeColor=none;fillColor=none;align=left;verticalAlign=top;spacingLeft=4;spacingRight=4;overflow=hidden;rotatable=0;points=[[0,0.5],[1,0.5]];portConstraint=eastwest;whiteSpace=wrap;html=1;" vertex="1" parent="BszTIMBWG0lswgFkeqeu-125">
          <mxGeometry y="26" width="240" height="26" as="geometry" />
        </mxCell>
        <mxCell id="BszTIMBWG0lswgFkeqeu-127" value="+ Username: string" style="text;strokeColor=none;fillColor=none;align=left;verticalAlign=top;spacingLeft=4;spacingRight=4;overflow=hidden;rotatable=0;points=[[0,0.5],[1,0.5]];portConstraint=eastwest;whiteSpace=wrap;html=1;" vertex="1" parent="BszTIMBWG0lswgFkeqeu-125">
          <mxGeometry y="52" width="240" height="26" as="geometry" />
        </mxCell>
        <mxCell id="BszTIMBWG0lswgFkeqeu-128" value="+ Password: string" style="text;strokeColor=none;fillColor=none;align=left;verticalAlign=top;spacingLeft=4;spacingRight=4;overflow=hidden;rotatable=0;points=[[0,0.5],[1,0.5]];portConstraint=eastwest;whiteSpace=wrap;html=1;" vertex="1" parent="BszTIMBWG0lswgFkeqeu-125">
          <mxGeometry y="78" width="240" height="26" as="geometry" />
        </mxCell>
        <mxCell id="BszTIMBWG0lswgFkeqeu-129" value="+&amp;nbsp;IsEmailVerified:&amp;nbsp;bool" style="text;strokeColor=none;fillColor=none;align=left;verticalAlign=top;spacingLeft=4;spacingRight=4;overflow=hidden;rotatable=0;points=[[0,0.5],[1,0.5]];portConstraint=eastwest;whiteSpace=wrap;html=1;" vertex="1" parent="BszTIMBWG0lswgFkeqeu-125">
          <mxGeometry y="104" width="240" height="26" as="geometry" />
        </mxCell>
        <mxCell id="BszTIMBWG0lswgFkeqeu-130" value="+&amp;nbsp;IsActive: bool" style="text;strokeColor=none;fillColor=none;align=left;verticalAlign=top;spacingLeft=4;spacingRight=4;overflow=hidden;rotatable=0;points=[[0,0.5],[1,0.5]];portConstraint=eastwest;whiteSpace=wrap;html=1;" vertex="1" parent="BszTIMBWG0lswgFkeqeu-125">
          <mxGeometry y="130" width="240" height="26" as="geometry" />
        </mxCell>
        <mxCell id="BszTIMBWG0lswgFkeqeu-131" value="+&amp;nbsp;IsAdmin: &amp;nbsp;bool" style="text;strokeColor=none;fillColor=none;align=left;verticalAlign=top;spacingLeft=4;spacingRight=4;overflow=hidden;rotatable=0;points=[[0,0.5],[1,0.5]];portConstraint=eastwest;whiteSpace=wrap;html=1;" vertex="1" parent="BszTIMBWG0lswgFkeqeu-125">
          <mxGeometry y="156" width="240" height="26" as="geometry" />
        </mxCell>
        <mxCell id="BszTIMBWG0lswgFkeqeu-132" value="+ FirstName: string" style="text;strokeColor=none;fillColor=none;align=left;verticalAlign=top;spacingLeft=4;spacingRight=4;overflow=hidden;rotatable=0;points=[[0,0.5],[1,0.5]];portConstraint=eastwest;whiteSpace=wrap;html=1;" vertex="1" parent="BszTIMBWG0lswgFkeqeu-125">
          <mxGeometry y="182" width="240" height="26" as="geometry" />
        </mxCell>
        <mxCell id="BszTIMBWG0lswgFkeqeu-133" value="+ LastName: string" style="text;strokeColor=none;fillColor=none;align=left;verticalAlign=top;spacingLeft=4;spacingRight=4;overflow=hidden;rotatable=0;points=[[0,0.5],[1,0.5]];portConstraint=eastwest;whiteSpace=wrap;html=1;" vertex="1" parent="BszTIMBWG0lswgFkeqeu-125">
          <mxGeometry y="208" width="240" height="26" as="geometry" />
        </mxCell>
        <mxCell id="BszTIMBWG0lswgFkeqeu-134" value="+&amp;nbsp;ProfileImageUrl: string" style="text;strokeColor=none;fillColor=none;align=left;verticalAlign=top;spacingLeft=4;spacingRight=4;overflow=hidden;rotatable=0;points=[[0,0.5],[1,0.5]];portConstraint=eastwest;whiteSpace=wrap;html=1;" vertex="1" parent="BszTIMBWG0lswgFkeqeu-125">
          <mxGeometry y="234" width="240" height="26" as="geometry" />
        </mxCell>
        <mxCell id="BszTIMBWG0lswgFkeqeu-135" value="+ Statistics:&amp;nbsp;UserStatistics" style="text;strokeColor=none;fillColor=none;align=left;verticalAlign=top;spacingLeft=4;spacingRight=4;overflow=hidden;rotatable=0;points=[[0,0.5],[1,0.5]];portConstraint=eastwest;whiteSpace=wrap;html=1;" vertex="1" parent="BszTIMBWG0lswgFkeqeu-125">
          <mxGeometry y="260" width="240" height="26" as="geometry" />
        </mxCell>
        <mxCell id="BszTIMBWG0lswgFkeqeu-136" value="+ Notifications:&amp;nbsp;List&amp;lt;Notification&amp;gt;" style="text;strokeColor=none;fillColor=none;align=left;verticalAlign=top;spacingLeft=4;spacingRight=4;overflow=hidden;rotatable=0;points=[[0,0.5],[1,0.5]];portConstraint=eastwest;whiteSpace=wrap;html=1;" vertex="1" parent="BszTIMBWG0lswgFkeqeu-125">
          <mxGeometry y="286" width="240" height="26" as="geometry" />
        </mxCell>
        <mxCell id="BszTIMBWG0lswgFkeqeu-137" value="+ QuizResults: List&amp;lt;QuizResults&amp;gt;" style="text;strokeColor=none;fillColor=none;align=left;verticalAlign=top;spacingLeft=4;spacingRight=4;overflow=hidden;rotatable=0;points=[[0,0.5],[1,0.5]];portConstraint=eastwest;whiteSpace=wrap;html=1;" vertex="1" parent="BszTIMBWG0lswgFkeqeu-125">
          <mxGeometry y="312" width="240" height="26" as="geometry" />
        </mxCell>
        <mxCell id="BszTIMBWG0lswgFkeqeu-138" value="+ GameResults: List&amp;lt;GameResults&amp;gt;" style="text;strokeColor=none;fillColor=none;align=left;verticalAlign=top;spacingLeft=4;spacingRight=4;overflow=hidden;rotatable=0;points=[[0,0.5],[1,0.5]];portConstraint=eastwest;whiteSpace=wrap;html=1;" vertex="1" parent="BszTIMBWG0lswgFkeqeu-125">
          <mxGeometry y="338" width="240" height="26" as="geometry" />
        </mxCell>
        <mxCell id="BszTIMBWG0lswgFkeqeu-140" value="+&amp;nbsp;Achievements:&amp;nbsp;List&amp;lt;UserAchievement&amp;gt;" style="text;strokeColor=none;fillColor=none;align=left;verticalAlign=top;spacingLeft=4;spacingRight=4;overflow=hidden;rotatable=0;points=[[0,0.5],[1,0.5]];portConstraint=eastwest;whiteSpace=wrap;html=1;" vertex="1" parent="BszTIMBWG0lswgFkeqeu-125">
          <mxGeometry y="364" width="240" height="26" as="geometry" />
        </mxCell>
        <mxCell id="BszTIMBWG0lswgFkeqeu-169" style="edgeStyle=orthogonalEdgeStyle;rounded=0;orthogonalLoop=1;jettySize=auto;html=1;exitX=0.5;exitY=0;exitDx=0;exitDy=0;entryX=1;entryY=0.5;entryDx=0;entryDy=0;endArrow=block;endFill=0;" edge="1" parent="1" source="BszTIMBWG0lswgFkeqeu-141" target="BszTIMBWG0lswgFkeqeu-167">
          <mxGeometry relative="1" as="geometry">
            <Array as="points">
              <mxPoint x="740" y="-350" />
              <mxPoint x="520" y="-350" />
            </Array>
          </mxGeometry>
        </mxCell>
        <mxCell id="BszTIMBWG0lswgFkeqeu-141" value="UserAchievement" style="swimlane;fontStyle=0;childLayout=stackLayout;horizontal=1;startSize=26;fillColor=none;horizontalStack=0;resizeParent=1;resizeParentMax=0;resizeLast=0;collapsible=1;marginBottom=0;whiteSpace=wrap;html=1;" vertex="1" parent="1">
          <mxGeometry x="640" y="-310" width="200" height="130" as="geometry" />
        </mxCell>
        <mxCell id="BszTIMBWG0lswgFkeqeu-142" value="+ UserId: int" style="text;strokeColor=none;fillColor=none;align=left;verticalAlign=top;spacingLeft=4;spacingRight=4;overflow=hidden;rotatable=0;points=[[0,0.5],[1,0.5]];portConstraint=eastwest;whiteSpace=wrap;html=1;" vertex="1" parent="BszTIMBWG0lswgFkeqeu-141">
          <mxGeometry y="26" width="200" height="26" as="geometry" />
        </mxCell>
        <mxCell id="BszTIMBWG0lswgFkeqeu-143" value="+ User: User" style="text;strokeColor=none;fillColor=none;align=left;verticalAlign=top;spacingLeft=4;spacingRight=4;overflow=hidden;rotatable=0;points=[[0,0.5],[1,0.5]];portConstraint=eastwest;whiteSpace=wrap;html=1;" vertex="1" parent="BszTIMBWG0lswgFkeqeu-141">
          <mxGeometry y="52" width="200" height="26" as="geometry" />
        </mxCell>
        <mxCell id="BszTIMBWG0lswgFkeqeu-144" value="+ Achievement: AchievementType" style="text;strokeColor=none;fillColor=none;align=left;verticalAlign=top;spacingLeft=4;spacingRight=4;overflow=hidden;rotatable=0;points=[[0,0.5],[1,0.5]];portConstraint=eastwest;whiteSpace=wrap;html=1;" vertex="1" parent="BszTIMBWG0lswgFkeqeu-141">
          <mxGeometry y="78" width="200" height="26" as="geometry" />
        </mxCell>
        <mxCell id="BszTIMBWG0lswgFkeqeu-145" value="+&amp;nbsp;AchievedAt:&amp;nbsp;DateTime" style="text;strokeColor=none;fillColor=none;align=left;verticalAlign=top;spacingLeft=4;spacingRight=4;overflow=hidden;rotatable=0;points=[[0,0.5],[1,0.5]];portConstraint=eastwest;whiteSpace=wrap;html=1;" vertex="1" parent="BszTIMBWG0lswgFkeqeu-141">
          <mxGeometry y="104" width="200" height="26" as="geometry" />
        </mxCell>
        <mxCell id="BszTIMBWG0lswgFkeqeu-173" style="edgeStyle=orthogonalEdgeStyle;rounded=0;orthogonalLoop=1;jettySize=auto;html=1;entryX=1;entryY=0.5;entryDx=0;entryDy=0;exitX=0.5;exitY=0;exitDx=0;exitDy=0;endArrow=block;endFill=0;" edge="1" parent="1" source="BszTIMBWG0lswgFkeqeu-147" target="BszTIMBWG0lswgFkeqeu-167">
          <mxGeometry relative="1" as="geometry">
            <Array as="points">
              <mxPoint x="630" y="-350" />
              <mxPoint x="520" y="-350" />
            </Array>
          </mxGeometry>
        </mxCell>
        <mxCell id="BszTIMBWG0lswgFkeqeu-147" value="UserStatistics" style="swimlane;fontStyle=0;childLayout=stackLayout;horizontal=1;startSize=26;fillColor=none;horizontalStack=0;resizeParent=1;resizeParentMax=0;resizeLast=0;collapsible=1;marginBottom=0;whiteSpace=wrap;html=1;" vertex="1" parent="1">
          <mxGeometry x="550" y="-160" width="160" height="312" as="geometry" />
        </mxCell>
        <mxCell id="BszTIMBWG0lswgFkeqeu-148" value="+ UserId: int" style="text;strokeColor=none;fillColor=none;align=left;verticalAlign=top;spacingLeft=4;spacingRight=4;overflow=hidden;rotatable=0;points=[[0,0.5],[1,0.5]];portConstraint=eastwest;whiteSpace=wrap;html=1;" vertex="1" parent="BszTIMBWG0lswgFkeqeu-147">
          <mxGeometry y="26" width="160" height="26" as="geometry" />
        </mxCell>
        <mxCell id="BszTIMBWG0lswgFkeqeu-149" value="+ User: User" style="text;strokeColor=none;fillColor=none;align=left;verticalAlign=top;spacingLeft=4;spacingRight=4;overflow=hidden;rotatable=0;points=[[0,0.5],[1,0.5]];portConstraint=eastwest;whiteSpace=wrap;html=1;" vertex="1" parent="BszTIMBWG0lswgFkeqeu-147">
          <mxGeometry y="52" width="160" height="26" as="geometry" />
        </mxCell>
        <mxCell id="BszTIMBWG0lswgFkeqeu-150" value="+ ProfileEdits: int" style="text;strokeColor=none;fillColor=none;align=left;verticalAlign=top;spacingLeft=4;spacingRight=4;overflow=hidden;rotatable=0;points=[[0,0.5],[1,0.5]];portConstraint=eastwest;whiteSpace=wrap;html=1;" vertex="1" parent="BszTIMBWG0lswgFkeqeu-147">
          <mxGeometry y="78" width="160" height="26" as="geometry" />
        </mxCell>
        <mxCell id="BszTIMBWG0lswgFkeqeu-151" value="+&amp;nbsp;AvatarsSet:&amp;nbsp;itn" style="text;strokeColor=none;fillColor=none;align=left;verticalAlign=top;spacingLeft=4;spacingRight=4;overflow=hidden;rotatable=0;points=[[0,0.5],[1,0.5]];portConstraint=eastwest;whiteSpace=wrap;html=1;" vertex="1" parent="BszTIMBWG0lswgFkeqeu-147">
          <mxGeometry y="104" width="160" height="26" as="geometry" />
        </mxCell>
        <mxCell id="BszTIMBWG0lswgFkeqeu-152" value="+&amp;nbsp;QuizzesCompleted: int" style="text;strokeColor=none;fillColor=none;align=left;verticalAlign=top;spacingLeft=4;spacingRight=4;overflow=hidden;rotatable=0;points=[[0,0.5],[1,0.5]];portConstraint=eastwest;whiteSpace=wrap;html=1;" vertex="1" parent="BszTIMBWG0lswgFkeqeu-147">
          <mxGeometry y="130" width="160" height="26" as="geometry" />
        </mxCell>
        <mxCell id="BszTIMBWG0lswgFkeqeu-153" value="+&amp;nbsp;GamesPlayed: int" style="text;strokeColor=none;fillColor=none;align=left;verticalAlign=top;spacingLeft=4;spacingRight=4;overflow=hidden;rotatable=0;points=[[0,0.5],[1,0.5]];portConstraint=eastwest;whiteSpace=wrap;html=1;" vertex="1" parent="BszTIMBWG0lswgFkeqeu-147">
          <mxGeometry y="156" width="160" height="26" as="geometry" />
        </mxCell>
        <mxCell id="BszTIMBWG0lswgFkeqeu-154" value="+&amp;nbsp;QuizComments: int" style="text;strokeColor=none;fillColor=none;align=left;verticalAlign=top;spacingLeft=4;spacingRight=4;overflow=hidden;rotatable=0;points=[[0,0.5],[1,0.5]];portConstraint=eastwest;whiteSpace=wrap;html=1;" vertex="1" parent="BszTIMBWG0lswgFkeqeu-147">
          <mxGeometry y="182" width="160" height="26" as="geometry" />
        </mxCell>
        <mxCell id="BszTIMBWG0lswgFkeqeu-155" value="+&amp;nbsp;GameComments: int" style="text;strokeColor=none;fillColor=none;align=left;verticalAlign=top;spacingLeft=4;spacingRight=4;overflow=hidden;rotatable=0;points=[[0,0.5],[1,0.5]];portConstraint=eastwest;whiteSpace=wrap;html=1;" vertex="1" parent="BszTIMBWG0lswgFkeqeu-147">
          <mxGeometry y="208" width="160" height="26" as="geometry" />
        </mxCell>
        <mxCell id="BszTIMBWG0lswgFkeqeu-156" value="+&amp;nbsp;QuizzesCreated: int" style="text;strokeColor=none;fillColor=none;align=left;verticalAlign=top;spacingLeft=4;spacingRight=4;overflow=hidden;rotatable=0;points=[[0,0.5],[1,0.5]];portConstraint=eastwest;whiteSpace=wrap;html=1;" vertex="1" parent="BszTIMBWG0lswgFkeqeu-147">
          <mxGeometry y="234" width="160" height="26" as="geometry" />
        </mxCell>
        <mxCell id="BszTIMBWG0lswgFkeqeu-157" value="+&amp;nbsp;GameCreated: int" style="text;strokeColor=none;fillColor=none;align=left;verticalAlign=top;spacingLeft=4;spacingRight=4;overflow=hidden;rotatable=0;points=[[0,0.5],[1,0.5]];portConstraint=eastwest;whiteSpace=wrap;html=1;" vertex="1" parent="BszTIMBWG0lswgFkeqeu-147">
          <mxGeometry y="260" width="160" height="26" as="geometry" />
        </mxCell>
        <mxCell id="BszTIMBWG0lswgFkeqeu-158" value="+&amp;nbsp;QuestionsCreated" style="text;strokeColor=none;fillColor=none;align=left;verticalAlign=top;spacingLeft=4;spacingRight=4;overflow=hidden;rotatable=0;points=[[0,0.5],[1,0.5]];portConstraint=eastwest;whiteSpace=wrap;html=1;" vertex="1" parent="BszTIMBWG0lswgFkeqeu-147">
          <mxGeometry y="286" width="160" height="26" as="geometry" />
        </mxCell>
        <mxCell id="BszTIMBWG0lswgFkeqeu-167" value="" style="triangle;whiteSpace=wrap;html=1;rotation=90;strokeColor=none;" vertex="1" parent="1">
          <mxGeometry x="510" y="-468" width="20" height="20" as="geometry" />
        </mxCell>
        <mxCell id="BszTIMBWG0lswgFkeqeu-17" value="&lt;i style=&quot;&quot;&gt;BaseModel&lt;/i&gt;" style="swimlane;fontStyle=0;childLayout=stackLayout;horizontal=1;startSize=26;fillColor=none;horizontalStack=0;resizeParent=1;resizeParentMax=0;resizeLast=0;collapsible=1;marginBottom=0;whiteSpace=wrap;html=1;" vertex="1" parent="1">
          <mxGeometry x="440" y="-500" width="160" height="52" as="geometry" />
        </mxCell>
        <mxCell id="BszTIMBWG0lswgFkeqeu-18" value="+ Id: string" style="text;strokeColor=none;fillColor=none;align=left;verticalAlign=top;spacingLeft=4;spacingRight=4;overflow=hidden;rotatable=0;points=[[0,0.5],[1,0.5]];portConstraint=eastwest;whiteSpace=wrap;html=1;" vertex="1" parent="BszTIMBWG0lswgFkeqeu-17">
          <mxGeometry y="26" width="160" height="26" as="geometry" />
        </mxCell>
      </root>
    </mxGraphModel>
  </diagram>
  <diagram id="r73of5-hD1IQOn7HPmvm" name="Страница — 2">
    <mxGraphModel dx="987" dy="672" grid="1" gridSize="10" guides="1" tooltips="1" connect="1" arrows="1" fold="1" page="1" pageScale="1" pageWidth="827" pageHeight="1169" math="0" shadow="0">
      <root>
        <mxCell id="0" />
        <mxCell id="1" parent="0" />
      </root>
    </mxGraphModel>
  </diagram>
  <diagram name="Page-1" id="FL_W1vov6KCajC7XXBTQ">
    <mxGraphModel dx="3598" dy="157" grid="1" gridSize="10" guides="1" tooltips="1" connect="1" arrows="1" fold="1" page="1" pageScale="1" pageWidth="850" pageHeight="1100" math="0" shadow="0">
      <root>
        <mxCell id="0" />
        <mxCell id="1" parent="0" />
        <mxCell id="ckAOM5WRGEyRrlcUhF3o-15" value="&lt;div&gt;OC Windows Server 2022 Datacener Evalution 21H2&lt;/div&gt;" style="verticalAlign=top;align=left;spacingTop=8;spacingLeft=2;spacingRight=12;shape=cube;size=10;direction=south;fontStyle=4;html=1;whiteSpace=wrap;" parent="1" vertex="1">
          <mxGeometry x="-1150" y="1470" width="1720" height="1200" as="geometry" />
        </mxCell>
        <mxCell id="ckAOM5WRGEyRrlcUhF3o-14" value="&lt;div&gt;Docker Engine 27.1.1&lt;/div&gt;" style="verticalAlign=top;align=left;spacingTop=8;spacingLeft=2;spacingRight=12;shape=cube;size=10;direction=south;fontStyle=4;html=1;whiteSpace=wrap;movable=1;resizable=1;rotatable=1;deletable=1;editable=1;locked=0;connectable=1;" parent="1" vertex="1">
          <mxGeometry x="-1120" y="1510" width="1660" height="950" as="geometry" />
        </mxCell>
        <mxCell id="ckAOM5WRGEyRrlcUhF3o-2" value="ОС Linux. Debian GNU/Linux 12" style="verticalAlign=top;align=left;spacingTop=8;spacingLeft=2;spacingRight=12;shape=cube;size=10;direction=south;fontStyle=4;html=1;whiteSpace=wrap;" parent="1" vertex="1">
          <mxGeometry x="-1080" y="2115" width="260" height="240" as="geometry" />
        </mxCell>
        <mxCell id="ckAOM5WRGEyRrlcUhF3o-29" value="" style="endArrow=block;html=1;rounded=0;startArrow=block;startFill=1;endFill=1;entryX=0.003;entryY=0.282;entryDx=0;entryDy=0;entryPerimeter=0;exitX=1.017;exitY=0.349;exitDx=0;exitDy=0;exitPerimeter=0;" parent="1" source="ckAOM5WRGEyRrlcUhF3o-2" target="ckAOM5WRGEyRrlcUhF3o-27" edge="1">
          <mxGeometry relative="1" as="geometry">
            <mxPoint x="-801" y="2415" as="sourcePoint" />
            <mxPoint x="-870" y="2475" as="targetPoint" />
          </mxGeometry>
        </mxCell>
        <mxCell id="ckAOM5WRGEyRrlcUhF3o-30" value="&lt;div&gt;HTTP 1.1 (SSE)&lt;/div&gt;" style="edgeLabel;resizable=0;html=1;;align=center;verticalAlign=middle;" parent="ckAOM5WRGEyRrlcUhF3o-29" connectable="0" vertex="1">
          <mxGeometry relative="1" as="geometry">
            <mxPoint y="-12" as="offset" />
          </mxGeometry>
        </mxCell>
        <mxCell id="ckAOM5WRGEyRrlcUhF3o-31" value="" style="endArrow=block;html=1;rounded=0;startArrow=block;startFill=1;endFill=1;entryX=0.002;entryY=0.776;entryDx=0;entryDy=0;entryPerimeter=0;" parent="1" target="ckAOM5WRGEyRrlcUhF3o-27" edge="1">
          <mxGeometry relative="1" as="geometry">
            <mxPoint x="-1017" y="2356" as="sourcePoint" />
            <mxPoint x="-1026" y="2530" as="targetPoint" />
          </mxGeometry>
        </mxCell>
        <mxCell id="ckAOM5WRGEyRrlcUhF3o-32" value="HTTP 1.1" style="edgeLabel;resizable=0;html=1;;align=center;verticalAlign=middle;" parent="ckAOM5WRGEyRrlcUhF3o-31" connectable="0" vertex="1">
          <mxGeometry relative="1" as="geometry">
            <mxPoint x="6" y="-10" as="offset" />
          </mxGeometry>
        </mxCell>
        <mxCell id="ckAOM5WRGEyRrlcUhF3o-37" value="&lt;div&gt;ОС Linux. Debian GNU/Linux 12&lt;/div&gt;&lt;div&gt;{ApiGateway}&lt;/div&gt;" style="verticalAlign=top;align=left;spacingTop=8;spacingLeft=2;spacingRight=12;shape=cube;size=10;direction=south;fontStyle=4;html=1;whiteSpace=wrap;" parent="1" vertex="1">
          <mxGeometry x="-630" y="2135" width="320" height="200" as="geometry" />
        </mxCell>
        <mxCell id="ckAOM5WRGEyRrlcUhF3o-48" value="" style="endArrow=block;html=1;rounded=0;exitX=0.328;exitY=0.999;exitDx=0;exitDy=0;exitPerimeter=0;startArrow=block;startFill=1;endFill=1;" parent="1" source="ckAOM5WRGEyRrlcUhF3o-37" edge="1">
          <mxGeometry relative="1" as="geometry">
            <mxPoint x="-655.5" y="2090" as="sourcePoint" />
            <mxPoint x="-820" y="2200" as="targetPoint" />
          </mxGeometry>
        </mxCell>
        <mxCell id="ckAOM5WRGEyRrlcUhF3o-49" value="HTTP 1.1" style="edgeLabel;resizable=0;html=1;;align=center;verticalAlign=middle;" parent="ckAOM5WRGEyRrlcUhF3o-48" connectable="0" vertex="1">
          <mxGeometry relative="1" as="geometry" />
        </mxCell>
        <mxCell id="ckAOM5WRGEyRrlcUhF3o-51" value="" style="endArrow=block;html=1;rounded=0;entryX=0.66;entryY=1.003;entryDx=0;entryDy=0;entryPerimeter=0;startArrow=block;startFill=1;endFill=1;exitX=0.633;exitY=-0.001;exitDx=0;exitDy=0;exitPerimeter=0;" parent="1" source="ckAOM5WRGEyRrlcUhF3o-2" target="ckAOM5WRGEyRrlcUhF3o-37" edge="1">
          <mxGeometry relative="1" as="geometry">
            <mxPoint x="-430" y="2150" as="sourcePoint" />
            <mxPoint x="-609" y="2290" as="targetPoint" />
          </mxGeometry>
        </mxCell>
        <mxCell id="ckAOM5WRGEyRrlcUhF3o-52" value="&lt;div&gt;HTTP 1.1 (SSE)&lt;/div&gt;" style="edgeLabel;resizable=0;html=1;;align=center;verticalAlign=middle;" parent="ckAOM5WRGEyRrlcUhF3o-51" connectable="0" vertex="1">
          <mxGeometry relative="1" as="geometry">
            <mxPoint x="-2" y="-2" as="offset" />
          </mxGeometry>
        </mxCell>
        <mxCell id="ckAOM5WRGEyRrlcUhF3o-73" value="" style="endArrow=block;html=1;rounded=0;startArrow=block;startFill=1;endFill=1;exitX=0;exitY=0;exitDx=190;exitDy=169.655;exitPerimeter=0;elbow=vertical;edgeStyle=orthogonalEdgeStyle;entryX=0.001;entryY=0.506;entryDx=0;entryDy=0;entryPerimeter=0;" parent="1" source="ckAOM5WRGEyRrlcUhF3o-42" target="ckAOM5WRGEyRrlcUhF3o-37" edge="1">
          <mxGeometry relative="1" as="geometry">
            <mxPoint x="-510" y="1837" as="sourcePoint" />
            <mxPoint x="-509" y="1840" as="targetPoint" />
            <Array as="points">
              <mxPoint x="-620" y="2030" />
              <mxPoint x="-472" y="2030" />
            </Array>
          </mxGeometry>
        </mxCell>
        <mxCell id="ckAOM5WRGEyRrlcUhF3o-74" value="HTTP 1.1" style="edgeLabel;resizable=0;html=1;;align=center;verticalAlign=middle;" parent="ckAOM5WRGEyRrlcUhF3o-73" connectable="0" vertex="1">
          <mxGeometry relative="1" as="geometry">
            <mxPoint x="144" y="49" as="offset" />
          </mxGeometry>
        </mxCell>
        <mxCell id="ckAOM5WRGEyRrlcUhF3o-75" value="" style="endArrow=block;html=1;rounded=0;startArrow=block;startFill=1;endFill=1;exitX=0;exitY=0;exitDx=190;exitDy=170;exitPerimeter=0;elbow=vertical;edgeStyle=orthogonalEdgeStyle;entryX=0.004;entryY=0.281;entryDx=0;entryDy=0;entryPerimeter=0;" parent="1" source="ckAOM5WRGEyRrlcUhF3o-46" target="ckAOM5WRGEyRrlcUhF3o-37" edge="1">
          <mxGeometry relative="1" as="geometry">
            <mxPoint x="-129" y="1750.6" as="sourcePoint" />
            <mxPoint x="-421" y="2134" as="targetPoint" />
            <Array as="points" />
          </mxGeometry>
        </mxCell>
        <mxCell id="ckAOM5WRGEyRrlcUhF3o-76" value="HTTP 1.1" style="edgeLabel;resizable=0;html=1;;align=center;verticalAlign=middle;" parent="ckAOM5WRGEyRrlcUhF3o-75" connectable="0" vertex="1">
          <mxGeometry relative="1" as="geometry">
            <mxPoint x="-1" y="11" as="offset" />
          </mxGeometry>
        </mxCell>
        <mxCell id="ckAOM5WRGEyRrlcUhF3o-77" value="" style="endArrow=block;html=1;rounded=0;startArrow=block;startFill=1;endFill=1;elbow=vertical;edgeStyle=orthogonalEdgeStyle;exitX=0;exitY=0;exitDx=125;exitDy=330;exitPerimeter=0;entryX=0.002;entryY=0.096;entryDx=0;entryDy=0;entryPerimeter=0;" parent="1" source="ckAOM5WRGEyRrlcUhF3o-44" target="ckAOM5WRGEyRrlcUhF3o-37" edge="1">
          <mxGeometry relative="1" as="geometry">
            <mxPoint x="-250" y="1830" as="sourcePoint" />
            <mxPoint x="-340" y="2130" as="targetPoint" />
            <Array as="points">
              <mxPoint x="-341" y="2055" />
            </Array>
          </mxGeometry>
        </mxCell>
        <mxCell id="ckAOM5WRGEyRrlcUhF3o-78" value="HTTP 1.1" style="edgeLabel;resizable=0;html=1;;align=center;verticalAlign=middle;" parent="ckAOM5WRGEyRrlcUhF3o-77" connectable="0" vertex="1">
          <mxGeometry relative="1" as="geometry">
            <mxPoint x="-23" y="24" as="offset" />
          </mxGeometry>
        </mxCell>
        <mxCell id="ckAOM5WRGEyRrlcUhF3o-84" value="" style="endArrow=block;html=1;rounded=0;startArrow=block;startFill=1;endFill=1;exitX=0;exitY=0;exitDx=200;exitDy=165;exitPerimeter=0;edgeStyle=orthogonalEdgeStyle;" parent="1" source="ckAOM5WRGEyRrlcUhF3o-37" edge="1">
          <mxGeometry relative="1" as="geometry">
            <mxPoint x="-334" y="2009" as="sourcePoint" />
            <mxPoint x="-211" y="2380" as="targetPoint" />
            <Array as="points">
              <mxPoint x="-475" y="2380" />
            </Array>
          </mxGeometry>
        </mxCell>
        <mxCell id="ckAOM5WRGEyRrlcUhF3o-85" value="&lt;div&gt;HTTP 1.1 (SSE)&lt;/div&gt;" style="edgeLabel;resizable=0;html=1;;align=center;verticalAlign=middle;" parent="ckAOM5WRGEyRrlcUhF3o-84" connectable="0" vertex="1">
          <mxGeometry relative="1" as="geometry">
            <mxPoint x="-2" y="-2" as="offset" />
          </mxGeometry>
        </mxCell>
        <mxCell id="ckAOM5WRGEyRrlcUhF3o-86" value="" style="endArrow=block;html=1;rounded=0;startArrow=block;startFill=1;endFill=1;exitX=0.373;exitY=1.002;exitDx=0;exitDy=0;exitPerimeter=0;elbow=vertical;entryX=0;entryY=0;entryDx=95;entryDy=0;entryPerimeter=0;edgeStyle=orthogonalEdgeStyle;" parent="1" source="ckAOM5WRGEyRrlcUhF3o-39" target="ckAOM5WRGEyRrlcUhF3o-37" edge="1">
          <mxGeometry relative="1" as="geometry">
            <mxPoint x="180" y="2179" as="sourcePoint" />
            <mxPoint x="-310" y="2198" as="targetPoint" />
          </mxGeometry>
        </mxCell>
        <mxCell id="ckAOM5WRGEyRrlcUhF3o-87" value="HTTP 1.1" style="edgeLabel;resizable=0;html=1;;align=center;verticalAlign=middle;" parent="ckAOM5WRGEyRrlcUhF3o-86" connectable="0" vertex="1">
          <mxGeometry relative="1" as="geometry" />
        </mxCell>
        <mxCell id="xe0UmYvgqOULLllQZo8k-4" value="Application Server" style="verticalAlign=top;align=left;spacingTop=8;spacingLeft=2;spacingRight=12;shape=cube;size=10;direction=south;fontStyle=4;html=1;whiteSpace=wrap;" parent="1" vertex="1">
          <mxGeometry x="-610" y="2195" width="271.25" height="120" as="geometry" />
        </mxCell>
        <mxCell id="ckAOM5WRGEyRrlcUhF3o-38" value="ASP.NET Core Web API 8.0.400&lt;div&gt;Ocelot 23.3.3&lt;/div&gt;" style="shape=module;align=left;spacingLeft=20;align=center;verticalAlign=top;whiteSpace=wrap;html=1;" parent="1" vertex="1">
          <mxGeometry x="-590" y="2242" width="210" height="53" as="geometry" />
        </mxCell>
        <mxCell id="ckAOM5WRGEyRrlcUhF3o-53" value="" style="group" parent="1" vertex="1" connectable="0">
          <mxGeometry x="210" y="2052" width="300" height="190" as="geometry" />
        </mxCell>
        <mxCell id="ckAOM5WRGEyRrlcUhF3o-35" value="ОС Linux. Debian GNU/Linux 12" style="verticalAlign=top;align=left;spacingTop=8;spacingLeft=2;spacingRight=12;shape=cube;size=10;direction=south;fontStyle=4;html=1;whiteSpace=wrap;" parent="ckAOM5WRGEyRrlcUhF3o-53" vertex="1">
          <mxGeometry width="240" height="190" as="geometry" />
        </mxCell>
        <mxCell id="xe0UmYvgqOULLllQZo8k-5" value="Database Server" style="verticalAlign=top;align=left;spacingTop=8;spacingLeft=2;spacingRight=12;shape=cube;size=10;direction=south;fontStyle=4;html=1;whiteSpace=wrap;" parent="ckAOM5WRGEyRrlcUhF3o-53" vertex="1">
          <mxGeometry x="25" y="40" width="180" height="130" as="geometry" />
        </mxCell>
        <mxCell id="ckAOM5WRGEyRrlcUhF3o-36" value="&lt;font face=&quot;Times New Roman&quot;&gt;&lt;span style=&quot;font-size: 14px;&quot;&gt;Redis 7.4.0&lt;/span&gt;&lt;/font&gt;" style="shape=module;align=left;spacingLeft=20;align=center;verticalAlign=top;whiteSpace=wrap;html=1;" parent="ckAOM5WRGEyRrlcUhF3o-53" vertex="1">
          <mxGeometry x="40" y="80" width="133.84" height="70" as="geometry" />
        </mxCell>
        <mxCell id="ckAOM5WRGEyRrlcUhF3o-54" value="" style="group" parent="1" vertex="1" connectable="0">
          <mxGeometry x="-180" y="1564" width="321.29" height="210" as="geometry" />
        </mxCell>
        <mxCell id="ckAOM5WRGEyRrlcUhF3o-33" value="ОС Linux. Debian GNU/Linux 12" style="verticalAlign=top;align=left;spacingTop=8;spacingLeft=2;spacingRight=12;shape=cube;size=10;direction=south;fontStyle=4;html=1;whiteSpace=wrap;" parent="ckAOM5WRGEyRrlcUhF3o-54" vertex="1">
          <mxGeometry width="279.83322580645165" height="210" as="geometry" />
        </mxCell>
        <mxCell id="xe0UmYvgqOULLllQZo8k-2" value="Database Server" style="verticalAlign=top;align=left;spacingTop=8;spacingLeft=2;spacingRight=12;shape=cube;size=10;direction=south;fontStyle=4;html=1;whiteSpace=wrap;" parent="ckAOM5WRGEyRrlcUhF3o-54" vertex="1">
          <mxGeometry x="25.91048387096774" y="50" width="222.8301612903226" height="130" as="geometry" />
        </mxCell>
        <mxCell id="xe0UmYvgqOULLllQZo8k-1" value="" style="group" parent="ckAOM5WRGEyRrlcUhF3o-54" vertex="1" connectable="0">
          <mxGeometry x="93.27774193548387" y="27.5" width="228.01225806451615" height="145" as="geometry" />
        </mxCell>
        <mxCell id="ckAOM5WRGEyRrlcUhF3o-34" value="&lt;div&gt;MS SQL Server 2019&amp;nbsp;&lt;/div&gt;&lt;div&gt;&amp;nbsp;(RTM) 15.0.2000.5&lt;/div&gt;" style="shape=module;align=left;spacingLeft=20;align=center;verticalAlign=top;whiteSpace=wrap;html=1;" parent="xe0UmYvgqOULLllQZo8k-1" vertex="1">
          <mxGeometry x="-41.45677419354839" y="70" width="165.82709677419356" height="60" as="geometry" />
        </mxCell>
        <mxCell id="ckAOM5WRGEyRrlcUhF3o-55" value="" style="group" parent="1" vertex="1" connectable="0">
          <mxGeometry x="-210" y="2010" width="330" height="197" as="geometry" />
        </mxCell>
        <mxCell id="ckAOM5WRGEyRrlcUhF3o-44" value="&lt;div&gt;ОС Linux. Debian GNU/Linux 12&lt;/div&gt;&lt;div&gt;{Authentication Service}&lt;/div&gt;" style="verticalAlign=top;align=left;spacingTop=8;spacingLeft=2;spacingRight=12;shape=cube;size=10;direction=south;fontStyle=4;html=1;whiteSpace=wrap;" parent="ckAOM5WRGEyRrlcUhF3o-55" vertex="1">
          <mxGeometry y="-80" width="330" height="240" as="geometry" />
        </mxCell>
        <mxCell id="xe0UmYvgqOULLllQZo8k-21" value="" style="group" parent="ckAOM5WRGEyRrlcUhF3o-55" vertex="1" connectable="0">
          <mxGeometry x="21.29" y="-20" width="278.71" height="160" as="geometry" />
        </mxCell>
        <mxCell id="xe0UmYvgqOULLllQZo8k-22" value="Application Server" style="verticalAlign=top;align=left;spacingTop=8;spacingLeft=2;spacingRight=12;shape=cube;size=10;direction=south;fontStyle=4;html=1;whiteSpace=wrap;" parent="xe0UmYvgqOULLllQZo8k-21" vertex="1">
          <mxGeometry width="278.71" height="160" as="geometry" />
        </mxCell>
        <mxCell id="xe0UmYvgqOULLllQZo8k-23" value="ASP.NET Core Web API 8.0.400&lt;div&gt;Entity Framework Core 8.0.8&lt;/div&gt;&lt;div&gt;&lt;div&gt;StackExchange.Redis 2.8.16&lt;/div&gt;&lt;/div&gt;&lt;div&gt;MimeKit 4.7.1.1&lt;/div&gt;&lt;div&gt;&amp;nbsp;JwtBearer 8.0.7&lt;/div&gt;&lt;div&gt;BCrypt.Net-Next 4.0.3&lt;/div&gt;" style="shape=module;align=left;spacingLeft=20;align=center;verticalAlign=top;whiteSpace=wrap;html=1;" parent="xe0UmYvgqOULLllQZo8k-21" vertex="1">
          <mxGeometry x="18.23" y="40" width="227.04" height="98.67" as="geometry" />
        </mxCell>
        <mxCell id="ckAOM5WRGEyRrlcUhF3o-56" value="" style="group" parent="1" vertex="1" connectable="0">
          <mxGeometry x="-210" y="2190" width="351.29" height="250" as="geometry" />
        </mxCell>
        <mxCell id="ckAOM5WRGEyRrlcUhF3o-39" value="ОС Linux. Debian GNU/Linux 12&lt;br&gt;&lt;div&gt;{Game Service}&lt;/div&gt;" style="verticalAlign=top;align=left;spacingTop=8;spacingLeft=2;spacingRight=12;shape=cube;size=10;direction=south;fontStyle=4;html=1;whiteSpace=wrap;" parent="ckAOM5WRGEyRrlcUhF3o-56" vertex="1">
          <mxGeometry width="330" height="240" as="geometry" />
        </mxCell>
        <mxCell id="xe0UmYvgqOULLllQZo8k-18" value="" style="group" parent="ckAOM5WRGEyRrlcUhF3o-56" vertex="1" connectable="0">
          <mxGeometry x="21.29" y="55" width="330" height="160" as="geometry" />
        </mxCell>
        <mxCell id="xe0UmYvgqOULLllQZo8k-19" value="Application Server" style="verticalAlign=top;align=left;spacingTop=8;spacingLeft=2;spacingRight=12;shape=cube;size=10;direction=south;fontStyle=4;html=1;whiteSpace=wrap;" parent="xe0UmYvgqOULLllQZo8k-18" vertex="1">
          <mxGeometry width="280" height="160" as="geometry" />
        </mxCell>
        <mxCell id="xe0UmYvgqOULLllQZo8k-20" value="ASP.NET Core Web API 8.0.400&lt;div&gt;Entity Framework Core 8.0.8&lt;/div&gt;&lt;div&gt;StackExchange.Redis 2.8.16&lt;/div&gt;&lt;div&gt;MimeKit 4.7.1.1&lt;/div&gt;&lt;div&gt;SignalR 8.0.7&lt;/div&gt;&lt;div&gt;&lt;br&gt;&lt;/div&gt;" style="shape=module;align=left;spacingLeft=20;align=center;verticalAlign=top;whiteSpace=wrap;html=1;" parent="xe0UmYvgqOULLllQZo8k-18" vertex="1">
          <mxGeometry x="18.8" y="46.5" width="231.2" height="93.5" as="geometry" />
        </mxCell>
        <mxCell id="ckAOM5WRGEyRrlcUhF3o-62" value="" style="group" parent="1" vertex="1" connectable="0">
          <mxGeometry x="-780" y="1550" width="329.31" height="230" as="geometry" />
        </mxCell>
        <mxCell id="ckAOM5WRGEyRrlcUhF3o-42" value="ОС Linux. Debian GNU/Linux 12&lt;div&gt;{Profile Service}&lt;/div&gt;" style="verticalAlign=top;align=left;spacingTop=8;spacingLeft=2;spacingRight=12;shape=cube;size=10;direction=south;fontStyle=4;html=1;whiteSpace=wrap;" parent="ckAOM5WRGEyRrlcUhF3o-62" vertex="1">
          <mxGeometry y="40" width="329.31" height="190" as="geometry" />
        </mxCell>
        <mxCell id="xe0UmYvgqOULLllQZo8k-27" value="Application Server" style="verticalAlign=top;align=left;spacingTop=8;spacingLeft=2;spacingRight=12;shape=cube;size=10;direction=south;fontStyle=4;html=1;whiteSpace=wrap;" parent="ckAOM5WRGEyRrlcUhF3o-62" vertex="1">
          <mxGeometry x="21.890000000000015" y="90" width="278.71" height="120" as="geometry" />
        </mxCell>
        <mxCell id="xe0UmYvgqOULLllQZo8k-28" value="ASP.NET Core Web API 8.0.400&lt;div&gt;Entity Framework Core 8.0.8&lt;/div&gt;&lt;div&gt;MimeKit 4.7.1.1&lt;br&gt;&lt;/div&gt;" style="shape=module;align=left;spacingLeft=20;align=center;verticalAlign=top;whiteSpace=wrap;html=1;" parent="ckAOM5WRGEyRrlcUhF3o-62" vertex="1">
          <mxGeometry x="41.41" y="132" width="227.04" height="60" as="geometry" />
        </mxCell>
        <mxCell id="ckAOM5WRGEyRrlcUhF3o-81" value="" style="endArrow=block;html=1;rounded=0;startArrow=block;startFill=1;endFill=1;entryX=0;entryY=0;entryDx=90;entryDy=0;entryPerimeter=0;edgeStyle=orthogonalEdgeStyle;" parent="1" target="ckAOM5WRGEyRrlcUhF3o-42" edge="1">
          <mxGeometry relative="1" as="geometry">
            <mxPoint x="-180" y="1680" as="sourcePoint" />
            <mxPoint x="51" y="1650" as="targetPoint" />
            <Array as="points">
              <mxPoint x="-180" y="1680" />
            </Array>
          </mxGeometry>
        </mxCell>
        <mxCell id="ckAOM5WRGEyRrlcUhF3o-82" value="TCP" style="edgeLabel;resizable=0;html=1;;align=center;verticalAlign=middle;" parent="ckAOM5WRGEyRrlcUhF3o-81" connectable="0" vertex="1">
          <mxGeometry relative="1" as="geometry">
            <mxPoint x="5" y="-1" as="offset" />
          </mxGeometry>
        </mxCell>
        <mxCell id="ckAOM5WRGEyRrlcUhF3o-93" value="" style="endArrow=block;html=1;rounded=0;exitX=0.385;exitY=1.001;exitDx=0;exitDy=0;exitPerimeter=0;startArrow=block;startFill=1;endFill=1;entryX=0;entryY=0;entryDx=115.00000000000001;entryDy=0;entryPerimeter=0;edgeStyle=orthogonalEdgeStyle;" parent="1" source="ckAOM5WRGEyRrlcUhF3o-35" target="ckAOM5WRGEyRrlcUhF3o-44" edge="1">
          <mxGeometry relative="1" as="geometry">
            <mxPoint x="309" y="1695" as="sourcePoint" />
            <mxPoint x="60" y="1765" as="targetPoint" />
          </mxGeometry>
        </mxCell>
        <mxCell id="ckAOM5WRGEyRrlcUhF3o-94" value="TCP" style="edgeLabel;resizable=0;html=1;;align=center;verticalAlign=middle;" parent="ckAOM5WRGEyRrlcUhF3o-93" connectable="0" vertex="1">
          <mxGeometry relative="1" as="geometry" />
        </mxCell>
        <mxCell id="ckAOM5WRGEyRrlcUhF3o-95" value="" style="endArrow=block;html=1;rounded=0;exitX=0.732;exitY=1;exitDx=0;exitDy=0;exitPerimeter=0;startArrow=block;startFill=1;endFill=1;entryX=0;entryY=0;entryDx=70;entryDy=0;entryPerimeter=0;edgeStyle=orthogonalEdgeStyle;" parent="1" source="ckAOM5WRGEyRrlcUhF3o-35" target="ckAOM5WRGEyRrlcUhF3o-39" edge="1">
          <mxGeometry relative="1" as="geometry">
            <mxPoint x="222" y="2053" as="sourcePoint" />
            <mxPoint x="50" y="1960" as="targetPoint" />
          </mxGeometry>
        </mxCell>
        <mxCell id="ckAOM5WRGEyRrlcUhF3o-96" value="TCP" style="edgeLabel;resizable=0;html=1;;align=center;verticalAlign=middle;" parent="ckAOM5WRGEyRrlcUhF3o-95" connectable="0" vertex="1">
          <mxGeometry relative="1" as="geometry" />
        </mxCell>
        <mxCell id="ckAOM5WRGEyRrlcUhF3o-98" value="" style="endArrow=block;html=1;rounded=0;startArrow=block;startFill=1;endFill=1;edgeStyle=orthogonalEdgeStyle;exitX=0;exitY=0;exitDx=100;exitDy=0;exitPerimeter=0;" parent="1" source="ckAOM5WRGEyRrlcUhF3o-33" edge="1">
          <mxGeometry relative="1" as="geometry">
            <mxPoint x="150" y="2102" as="sourcePoint" />
            <mxPoint x="120" y="2354" as="targetPoint" />
            <Array as="points">
              <mxPoint x="500" y="1640" />
              <mxPoint x="500" y="2354" />
            </Array>
          </mxGeometry>
        </mxCell>
        <mxCell id="ckAOM5WRGEyRrlcUhF3o-99" value="TCP" style="edgeLabel;resizable=0;html=1;;align=center;verticalAlign=middle;" parent="ckAOM5WRGEyRrlcUhF3o-98" connectable="0" vertex="1">
          <mxGeometry relative="1" as="geometry">
            <mxPoint y="-114" as="offset" />
          </mxGeometry>
        </mxCell>
        <mxCell id="ckAOM5WRGEyRrlcUhF3o-107" value="" style="endArrow=block;html=1;rounded=0;startArrow=block;startFill=1;endFill=1;entryX=0;entryY=0;entryDx=0;entryDy=160;entryPerimeter=0;edgeStyle=orthogonalEdgeStyle;exitX=0;exitY=0;exitDx=210;exitDy=140;exitPerimeter=0;" parent="1" source="ckAOM5WRGEyRrlcUhF3o-33" target="ckAOM5WRGEyRrlcUhF3o-44" edge="1">
          <mxGeometry relative="1" as="geometry">
            <mxPoint x="410" y="1740" as="sourcePoint" />
            <mxPoint x="70" y="1987.85" as="targetPoint" />
            <Array as="points">
              <mxPoint x="-40" y="1750" />
              <mxPoint x="-40" y="1750" />
            </Array>
          </mxGeometry>
        </mxCell>
        <mxCell id="ckAOM5WRGEyRrlcUhF3o-108" value="TCP" style="edgeLabel;resizable=0;html=1;;align=center;verticalAlign=middle;" parent="ckAOM5WRGEyRrlcUhF3o-107" connectable="0" vertex="1">
          <mxGeometry relative="1" as="geometry">
            <mxPoint y="-2" as="offset" />
          </mxGeometry>
        </mxCell>
        <mxCell id="xe0UmYvgqOULLllQZo8k-31" style="edgeStyle=orthogonalEdgeStyle;rounded=0;orthogonalLoop=1;jettySize=auto;html=1;endArrow=block;endFill=1;startArrow=block;startFill=1;exitX=0;exitY=0;exitDx=0;exitDy=160;exitPerimeter=0;" parent="1" source="ckAOM5WRGEyRrlcUhF3o-46" edge="1">
          <mxGeometry relative="1" as="geometry">
            <mxPoint x="-180" y="1730" as="targetPoint" />
            <Array as="points">
              <mxPoint x="-390" y="1730" />
            </Array>
          </mxGeometry>
        </mxCell>
        <mxCell id="xe0UmYvgqOULLllQZo8k-32" value="TCP" style="edgeLabel;html=1;align=center;verticalAlign=middle;resizable=0;points=[];" parent="xe0UmYvgqOULLllQZo8k-31" vertex="1" connectable="0">
          <mxGeometry x="0.0469" y="2" relative="1" as="geometry">
            <mxPoint x="8" y="3" as="offset" />
          </mxGeometry>
        </mxCell>
        <mxCell id="xe0UmYvgqOULLllQZo8k-38" value="" style="group" parent="1" vertex="1" connectable="0">
          <mxGeometry x="-1060" y="2156" width="240" height="180" as="geometry" />
        </mxCell>
        <mxCell id="xe0UmYvgqOULLllQZo8k-36" value="Web Server" style="verticalAlign=top;align=left;spacingTop=8;spacingLeft=2;spacingRight=12;shape=cube;size=10;direction=south;fontStyle=4;html=1;whiteSpace=wrap;" parent="xe0UmYvgqOULLllQZo8k-38" vertex="1">
          <mxGeometry width="210" height="180" as="geometry" />
        </mxCell>
        <mxCell id="xe0UmYvgqOULLllQZo8k-37" value="" style="group" parent="xe0UmYvgqOULLllQZo8k-38" vertex="1" connectable="0">
          <mxGeometry x="20" y="40" width="220" height="120" as="geometry" />
        </mxCell>
        <mxCell id="ckAOM5WRGEyRrlcUhF3o-3" value="&lt;div&gt;&lt;span style=&quot;font-size: 14px;&quot;&gt;&lt;font face=&quot;Helvetica&quot;&gt;Nginx 1.27.3&lt;/font&gt;&lt;/span&gt;&lt;/div&gt;" style="shape=module;align=left;spacingLeft=20;align=center;verticalAlign=top;whiteSpace=wrap;html=1;" parent="xe0UmYvgqOULLllQZo8k-37" vertex="1">
          <mxGeometry width="160" height="120" as="geometry" />
        </mxCell>
        <mxCell id="ckAOM5WRGEyRrlcUhF3o-12" value="" style="group" parent="xe0UmYvgqOULLllQZo8k-37" vertex="1" connectable="0">
          <mxGeometry x="20" y="30" width="200" height="80" as="geometry" />
        </mxCell>
        <mxCell id="ckAOM5WRGEyRrlcUhF3o-8" value="" style="shape=note;whiteSpace=wrap;html=1;backgroundOutline=1;darkOpacity=0.05;size=15;" parent="ckAOM5WRGEyRrlcUhF3o-12" vertex="1">
          <mxGeometry x="80" width="40" height="50" as="geometry" />
        </mxCell>
        <mxCell id="ckAOM5WRGEyRrlcUhF3o-9" value="nginx.conf" style="text;html=1;align=center;verticalAlign=middle;whiteSpace=wrap;rounded=0;" parent="ckAOM5WRGEyRrlcUhF3o-12" vertex="1">
          <mxGeometry x="70" y="50" width="60" height="30" as="geometry" />
        </mxCell>
        <mxCell id="ckAOM5WRGEyRrlcUhF3o-10" value="" style="shape=note;whiteSpace=wrap;html=1;backgroundOutline=1;darkOpacity=0.05;size=15;" parent="ckAOM5WRGEyRrlcUhF3o-12" vertex="1">
          <mxGeometry x="10" width="40" height="50" as="geometry" />
        </mxCell>
        <mxCell id="ckAOM5WRGEyRrlcUhF3o-11" value="bundle.js" style="text;html=1;align=center;verticalAlign=middle;whiteSpace=wrap;rounded=0;" parent="ckAOM5WRGEyRrlcUhF3o-12" vertex="1">
          <mxGeometry y="50" width="60" height="30" as="geometry" />
        </mxCell>
        <mxCell id="xe0UmYvgqOULLllQZo8k-41" value="" style="group" parent="1" vertex="1" connectable="0">
          <mxGeometry x="-1065" y="2530" width="215" height="120" as="geometry" />
        </mxCell>
        <mxCell id="ckAOM5WRGEyRrlcUhF3o-27" value="&lt;div&gt;Web Browser&lt;/div&gt;" style="verticalAlign=top;align=left;spacingTop=8;spacingLeft=2;spacingRight=12;shape=cube;size=10;direction=south;fontStyle=4;html=1;whiteSpace=wrap;" parent="xe0UmYvgqOULLllQZo8k-41" vertex="1">
          <mxGeometry width="215" height="120" as="geometry" />
        </mxCell>
        <mxCell id="ckAOM5WRGEyRrlcUhF3o-28" value="&lt;div&gt;Microsoft Edge&amp;nbsp;&lt;/div&gt;&lt;div&gt;131.0.2903.112&lt;/div&gt;" style="shape=module;align=left;spacingLeft=20;align=center;verticalAlign=top;whiteSpace=wrap;html=1;" parent="xe0UmYvgqOULLllQZo8k-41" vertex="1">
          <mxGeometry x="25" y="45" width="150" height="55" as="geometry" />
        </mxCell>
        <mxCell id="1UBmldHhn7O4GViiC7BB-2" value="" style="group" vertex="1" connectable="0" parent="1">
          <mxGeometry x="-560" y="1810" width="330" height="190" as="geometry" />
        </mxCell>
        <mxCell id="ckAOM5WRGEyRrlcUhF3o-46" value="&lt;div&gt;ОС Linux. Debian GNU/Linux 12&lt;/div&gt;&lt;div&gt;{Notification Service}&lt;/div&gt;" style="verticalAlign=top;align=left;spacingTop=8;spacingLeft=2;spacingRight=12;shape=cube;size=10;direction=south;fontStyle=4;html=1;whiteSpace=wrap;" parent="1UBmldHhn7O4GViiC7BB-2" vertex="1">
          <mxGeometry width="330" height="190" as="geometry" />
        </mxCell>
        <mxCell id="xe0UmYvgqOULLllQZo8k-25" value="Application Server" style="verticalAlign=top;align=left;spacingTop=8;spacingLeft=2;spacingRight=12;shape=cube;size=10;direction=south;fontStyle=4;html=1;whiteSpace=wrap;" parent="1UBmldHhn7O4GViiC7BB-2" vertex="1">
          <mxGeometry x="20" y="50" width="278.71" height="120" as="geometry" />
        </mxCell>
        <mxCell id="xe0UmYvgqOULLllQZo8k-26" value="ASP.NET Core Web API 8.0.400&lt;div&gt;Entity Framework Core 8.0.8&lt;/div&gt;&lt;div&gt;MimeKit 4.7.1.1&lt;br&gt;&lt;/div&gt;" style="shape=module;align=left;spacingLeft=20;align=center;verticalAlign=top;whiteSpace=wrap;html=1;" parent="1UBmldHhn7O4GViiC7BB-2" vertex="1">
          <mxGeometry x="39.51999999999998" y="92" width="227.04" height="60" as="geometry" />
        </mxCell>
        <mxCell id="1UBmldHhn7O4GViiC7BB-3" value="" style="group" vertex="1" connectable="0" parent="1">
          <mxGeometry x="-1010.0000000000001" y="1780" width="329.31" height="230" as="geometry" />
        </mxCell>
        <mxCell id="1UBmldHhn7O4GViiC7BB-4" value="ОС Linux. Debian GNU/Linux 12&lt;div&gt;{Admin Service}&lt;/div&gt;" style="verticalAlign=top;align=left;spacingTop=8;spacingLeft=2;spacingRight=12;shape=cube;size=10;direction=south;fontStyle=4;html=1;whiteSpace=wrap;" vertex="1" parent="1UBmldHhn7O4GViiC7BB-3">
          <mxGeometry y="40" width="329.31" height="190" as="geometry" />
        </mxCell>
        <mxCell id="1UBmldHhn7O4GViiC7BB-5" value="Application Server" style="verticalAlign=top;align=left;spacingTop=8;spacingLeft=2;spacingRight=12;shape=cube;size=10;direction=south;fontStyle=4;html=1;whiteSpace=wrap;" vertex="1" parent="1UBmldHhn7O4GViiC7BB-3">
          <mxGeometry x="21.890000000000015" y="90" width="278.71" height="120" as="geometry" />
        </mxCell>
        <mxCell id="1UBmldHhn7O4GViiC7BB-6" value="ASP.NET Core Web API 8.0.400&lt;div&gt;Entity Framework Core 8.0.8&lt;/div&gt;&lt;div&gt;MimeKit 4.7.1.1&lt;br&gt;&lt;/div&gt;" style="shape=module;align=left;spacingLeft=20;align=center;verticalAlign=top;whiteSpace=wrap;html=1;" vertex="1" parent="1UBmldHhn7O4GViiC7BB-3">
          <mxGeometry x="41.41" y="132" width="227.04" height="60" as="geometry" />
        </mxCell>
        <mxCell id="1UBmldHhn7O4GViiC7BB-7" value="" style="endArrow=block;html=1;rounded=0;exitX=0.283;exitY=0.997;exitDx=0;exitDy=0;exitPerimeter=0;startArrow=block;startFill=1;endFill=1;edgeStyle=orthogonalEdgeStyle;entryX=0;entryY=0;entryDx=0;entryDy=159.655;entryPerimeter=0;" edge="1" parent="1" source="ckAOM5WRGEyRrlcUhF3o-33" target="1UBmldHhn7O4GViiC7BB-4">
          <mxGeometry relative="1" as="geometry">
            <mxPoint x="-199.66" y="1578.09" as="sourcePoint" />
            <mxPoint x="-860" y="1820" as="targetPoint" />
            <Array as="points">
              <mxPoint x="-250" y="1623" />
              <mxPoint x="-390" y="1623" />
              <mxPoint x="-390" y="1540" />
              <mxPoint x="-840" y="1540" />
            </Array>
          </mxGeometry>
        </mxCell>
        <mxCell id="1UBmldHhn7O4GViiC7BB-8" value="TCP" style="edgeLabel;resizable=0;html=1;;align=center;verticalAlign=middle;" connectable="0" vertex="1" parent="1UBmldHhn7O4GViiC7BB-7">
          <mxGeometry relative="1" as="geometry">
            <mxPoint x="298" y="80" as="offset" />
          </mxGeometry>
        </mxCell>
        <mxCell id="1UBmldHhn7O4GViiC7BB-11" value="" style="endArrow=block;html=1;rounded=0;startArrow=block;startFill=1;endFill=1;exitX=0;exitY=0;exitDx=190;exitDy=169.655;exitPerimeter=0;elbow=vertical;edgeStyle=orthogonalEdgeStyle;entryX=0.01;entryY=0.799;entryDx=0;entryDy=0;entryPerimeter=0;" edge="1" parent="1" source="1UBmldHhn7O4GViiC7BB-4" target="ckAOM5WRGEyRrlcUhF3o-37">
          <mxGeometry relative="1" as="geometry">
            <mxPoint x="-640" y="1845" as="sourcePoint" />
            <mxPoint x="-492.00000000000006" y="2200" as="targetPoint" />
            <Array as="points">
              <mxPoint x="-850" y="2080" />
              <mxPoint x="-566" y="2080" />
            </Array>
          </mxGeometry>
        </mxCell>
        <mxCell id="1UBmldHhn7O4GViiC7BB-12" value="HTTP 1.1" style="edgeLabel;resizable=0;html=1;;align=center;verticalAlign=middle;" connectable="0" vertex="1" parent="1UBmldHhn7O4GViiC7BB-11">
          <mxGeometry relative="1" as="geometry">
            <mxPoint x="-5" y="-1" as="offset" />
          </mxGeometry>
        </mxCell>
      </root>
    </mxGraphModel>
  </diagram>
  <diagram name="Страница — 2" id="t8fHhE25kMSaFLR3rruh">
    <mxGraphModel dx="987" dy="672" grid="1" gridSize="10" guides="1" tooltips="1" connect="1" arrows="1" fold="1" page="1" pageScale="1" pageWidth="827" pageHeight="1169" math="0" shadow="0">
      <root>
        <mxCell id="0" />
        <mxCell id="1" parent="0" />
      </root>
    </mxGraphModel>
  </diagram>
  <diagram name="Page-1" id="lWc1Sdi1lk9Oq-sLj5X9">
    <mxGraphModel dx="3598" dy="157" grid="1" gridSize="10" guides="1" tooltips="1" connect="1" arrows="1" fold="1" page="1" pageScale="1" pageWidth="850" pageHeight="1100" math="0" shadow="0">
      <root>
        <mxCell id="0" />
        <mxCell id="1" parent="0" />
        <mxCell id="ckAOM5WRGEyRrlcUhF3o-15" value="&lt;div&gt;OC Windows Server 2022 Datacener Evalution 21H2&lt;/div&gt;" style="verticalAlign=top;align=left;spacingTop=8;spacingLeft=2;spacingRight=12;shape=cube;size=10;direction=south;fontStyle=4;html=1;whiteSpace=wrap;" parent="1" vertex="1">
          <mxGeometry x="-1150" y="1470" width="1720" height="1200" as="geometry" />
        </mxCell>
        <mxCell id="ckAOM5WRGEyRrlcUhF3o-14" value="&lt;div&gt;Docker Engine 27.1.1&lt;/div&gt;" style="verticalAlign=top;align=left;spacingTop=8;spacingLeft=2;spacingRight=12;shape=cube;size=10;direction=south;fontStyle=4;html=1;whiteSpace=wrap;movable=1;resizable=1;rotatable=1;deletable=1;editable=1;locked=0;connectable=1;" parent="1" vertex="1">
          <mxGeometry x="-1120" y="1510" width="1660" height="950" as="geometry" />
        </mxCell>
        <mxCell id="ckAOM5WRGEyRrlcUhF3o-2" value="ОС Linux. Debian GNU/Linux 12" style="verticalAlign=top;align=left;spacingTop=8;spacingLeft=2;spacingRight=12;shape=cube;size=10;direction=south;fontStyle=4;html=1;whiteSpace=wrap;" parent="1" vertex="1">
          <mxGeometry x="-1080" y="2115" width="260" height="240" as="geometry" />
        </mxCell>
        <mxCell id="ckAOM5WRGEyRrlcUhF3o-29" value="" style="endArrow=block;html=1;rounded=0;startArrow=block;startFill=1;endFill=1;entryX=0.003;entryY=0.282;entryDx=0;entryDy=0;entryPerimeter=0;exitX=1.017;exitY=0.349;exitDx=0;exitDy=0;exitPerimeter=0;" parent="1" source="ckAOM5WRGEyRrlcUhF3o-2" target="ckAOM5WRGEyRrlcUhF3o-27" edge="1">
          <mxGeometry relative="1" as="geometry">
            <mxPoint x="-801" y="2415" as="sourcePoint" />
            <mxPoint x="-870" y="2475" as="targetPoint" />
          </mxGeometry>
        </mxCell>
        <mxCell id="ckAOM5WRGEyRrlcUhF3o-30" value="&lt;div&gt;HTTP 1.1 (SSE)&lt;/div&gt;" style="edgeLabel;resizable=0;html=1;;align=center;verticalAlign=middle;" parent="ckAOM5WRGEyRrlcUhF3o-29" connectable="0" vertex="1">
          <mxGeometry relative="1" as="geometry">
            <mxPoint y="-12" as="offset" />
          </mxGeometry>
        </mxCell>
        <mxCell id="ckAOM5WRGEyRrlcUhF3o-31" value="" style="endArrow=block;html=1;rounded=0;startArrow=block;startFill=1;endFill=1;entryX=0.002;entryY=0.776;entryDx=0;entryDy=0;entryPerimeter=0;" parent="1" target="ckAOM5WRGEyRrlcUhF3o-27" edge="1">
          <mxGeometry relative="1" as="geometry">
            <mxPoint x="-1017" y="2356" as="sourcePoint" />
            <mxPoint x="-1026" y="2530" as="targetPoint" />
          </mxGeometry>
        </mxCell>
        <mxCell id="ckAOM5WRGEyRrlcUhF3o-32" value="HTTP 1.1" style="edgeLabel;resizable=0;html=1;;align=center;verticalAlign=middle;" parent="ckAOM5WRGEyRrlcUhF3o-31" connectable="0" vertex="1">
          <mxGeometry relative="1" as="geometry">
            <mxPoint x="6" y="-10" as="offset" />
          </mxGeometry>
        </mxCell>
        <mxCell id="ckAOM5WRGEyRrlcUhF3o-37" value="&lt;div&gt;ОС Linux. Debian GNU/Linux 12&lt;/div&gt;&lt;div&gt;{ApiGateway}&lt;/div&gt;" style="verticalAlign=top;align=left;spacingTop=8;spacingLeft=2;spacingRight=12;shape=cube;size=10;direction=south;fontStyle=4;html=1;whiteSpace=wrap;" parent="1" vertex="1">
          <mxGeometry x="-630" y="2135" width="320" height="200" as="geometry" />
        </mxCell>
        <mxCell id="ckAOM5WRGEyRrlcUhF3o-48" value="" style="endArrow=block;html=1;rounded=0;exitX=0.328;exitY=0.999;exitDx=0;exitDy=0;exitPerimeter=0;startArrow=block;startFill=1;endFill=1;" parent="1" source="ckAOM5WRGEyRrlcUhF3o-37" edge="1">
          <mxGeometry relative="1" as="geometry">
            <mxPoint x="-655.5" y="2090" as="sourcePoint" />
            <mxPoint x="-820" y="2200" as="targetPoint" />
          </mxGeometry>
        </mxCell>
        <mxCell id="ckAOM5WRGEyRrlcUhF3o-49" value="HTTP 1.1" style="edgeLabel;resizable=0;html=1;;align=center;verticalAlign=middle;" parent="ckAOM5WRGEyRrlcUhF3o-48" connectable="0" vertex="1">
          <mxGeometry relative="1" as="geometry" />
        </mxCell>
        <mxCell id="ckAOM5WRGEyRrlcUhF3o-51" value="" style="endArrow=block;html=1;rounded=0;entryX=0.66;entryY=1.003;entryDx=0;entryDy=0;entryPerimeter=0;startArrow=block;startFill=1;endFill=1;exitX=0.633;exitY=-0.001;exitDx=0;exitDy=0;exitPerimeter=0;" parent="1" source="ckAOM5WRGEyRrlcUhF3o-2" target="ckAOM5WRGEyRrlcUhF3o-37" edge="1">
          <mxGeometry relative="1" as="geometry">
            <mxPoint x="-430" y="2150" as="sourcePoint" />
            <mxPoint x="-609" y="2290" as="targetPoint" />
          </mxGeometry>
        </mxCell>
        <mxCell id="ckAOM5WRGEyRrlcUhF3o-52" value="&lt;div&gt;HTTP 1.1 (SSE)&lt;/div&gt;" style="edgeLabel;resizable=0;html=1;;align=center;verticalAlign=middle;" parent="ckAOM5WRGEyRrlcUhF3o-51" connectable="0" vertex="1">
          <mxGeometry relative="1" as="geometry">
            <mxPoint x="-2" y="-2" as="offset" />
          </mxGeometry>
        </mxCell>
        <mxCell id="ckAOM5WRGEyRrlcUhF3o-73" value="" style="endArrow=block;html=1;rounded=0;startArrow=block;startFill=1;endFill=1;exitX=0;exitY=0;exitDx=190;exitDy=169.655;exitPerimeter=0;elbow=vertical;edgeStyle=orthogonalEdgeStyle;entryX=0.001;entryY=0.506;entryDx=0;entryDy=0;entryPerimeter=0;" parent="1" source="ckAOM5WRGEyRrlcUhF3o-42" target="ckAOM5WRGEyRrlcUhF3o-37" edge="1">
          <mxGeometry relative="1" as="geometry">
            <mxPoint x="-510" y="1837" as="sourcePoint" />
            <mxPoint x="-509" y="1840" as="targetPoint" />
            <Array as="points">
              <mxPoint x="-620" y="2030" />
              <mxPoint x="-472" y="2030" />
            </Array>
          </mxGeometry>
        </mxCell>
        <mxCell id="ckAOM5WRGEyRrlcUhF3o-74" value="HTTP 1.1" style="edgeLabel;resizable=0;html=1;;align=center;verticalAlign=middle;" parent="ckAOM5WRGEyRrlcUhF3o-73" connectable="0" vertex="1">
          <mxGeometry relative="1" as="geometry">
            <mxPoint x="144" y="49" as="offset" />
          </mxGeometry>
        </mxCell>
        <mxCell id="ckAOM5WRGEyRrlcUhF3o-75" value="" style="endArrow=block;html=1;rounded=0;startArrow=block;startFill=1;endFill=1;exitX=0;exitY=0;exitDx=190;exitDy=170;exitPerimeter=0;elbow=vertical;edgeStyle=orthogonalEdgeStyle;entryX=0.004;entryY=0.281;entryDx=0;entryDy=0;entryPerimeter=0;" parent="1" source="ckAOM5WRGEyRrlcUhF3o-46" target="ckAOM5WRGEyRrlcUhF3o-37" edge="1">
          <mxGeometry relative="1" as="geometry">
            <mxPoint x="-129" y="1750.6" as="sourcePoint" />
            <mxPoint x="-421" y="2134" as="targetPoint" />
            <Array as="points" />
          </mxGeometry>
        </mxCell>
        <mxCell id="ckAOM5WRGEyRrlcUhF3o-76" value="HTTP 1.1" style="edgeLabel;resizable=0;html=1;;align=center;verticalAlign=middle;" parent="ckAOM5WRGEyRrlcUhF3o-75" connectable="0" vertex="1">
          <mxGeometry relative="1" as="geometry">
            <mxPoint x="-1" y="11" as="offset" />
          </mxGeometry>
        </mxCell>
        <mxCell id="ckAOM5WRGEyRrlcUhF3o-77" value="" style="endArrow=block;html=1;rounded=0;startArrow=block;startFill=1;endFill=1;elbow=vertical;edgeStyle=orthogonalEdgeStyle;exitX=0;exitY=0;exitDx=125;exitDy=330;exitPerimeter=0;entryX=0.002;entryY=0.096;entryDx=0;entryDy=0;entryPerimeter=0;" parent="1" source="ckAOM5WRGEyRrlcUhF3o-44" target="ckAOM5WRGEyRrlcUhF3o-37" edge="1">
          <mxGeometry relative="1" as="geometry">
            <mxPoint x="-250" y="1830" as="sourcePoint" />
            <mxPoint x="-340" y="2130" as="targetPoint" />
            <Array as="points">
              <mxPoint x="-341" y="2055" />
            </Array>
          </mxGeometry>
        </mxCell>
        <mxCell id="ckAOM5WRGEyRrlcUhF3o-78" value="HTTP 1.1" style="edgeLabel;resizable=0;html=1;;align=center;verticalAlign=middle;" parent="ckAOM5WRGEyRrlcUhF3o-77" connectable="0" vertex="1">
          <mxGeometry relative="1" as="geometry">
            <mxPoint x="-23" y="24" as="offset" />
          </mxGeometry>
        </mxCell>
        <mxCell id="ckAOM5WRGEyRrlcUhF3o-84" value="" style="endArrow=block;html=1;rounded=0;startArrow=block;startFill=1;endFill=1;exitX=0;exitY=0;exitDx=200;exitDy=165;exitPerimeter=0;edgeStyle=orthogonalEdgeStyle;" parent="1" source="ckAOM5WRGEyRrlcUhF3o-37" edge="1">
          <mxGeometry relative="1" as="geometry">
            <mxPoint x="-334" y="2009" as="sourcePoint" />
            <mxPoint x="-211" y="2380" as="targetPoint" />
            <Array as="points">
              <mxPoint x="-475" y="2380" />
            </Array>
          </mxGeometry>
        </mxCell>
        <mxCell id="ckAOM5WRGEyRrlcUhF3o-85" value="&lt;div&gt;HTTP 1.1 (SSE)&lt;/div&gt;" style="edgeLabel;resizable=0;html=1;;align=center;verticalAlign=middle;" parent="ckAOM5WRGEyRrlcUhF3o-84" connectable="0" vertex="1">
          <mxGeometry relative="1" as="geometry">
            <mxPoint x="-2" y="-2" as="offset" />
          </mxGeometry>
        </mxCell>
        <mxCell id="ckAOM5WRGEyRrlcUhF3o-86" value="" style="endArrow=block;html=1;rounded=0;startArrow=block;startFill=1;endFill=1;exitX=0.373;exitY=1.002;exitDx=0;exitDy=0;exitPerimeter=0;elbow=vertical;entryX=0;entryY=0;entryDx=95;entryDy=0;entryPerimeter=0;edgeStyle=orthogonalEdgeStyle;" parent="1" source="ckAOM5WRGEyRrlcUhF3o-39" target="ckAOM5WRGEyRrlcUhF3o-37" edge="1">
          <mxGeometry relative="1" as="geometry">
            <mxPoint x="180" y="2179" as="sourcePoint" />
            <mxPoint x="-310" y="2198" as="targetPoint" />
          </mxGeometry>
        </mxCell>
        <mxCell id="ckAOM5WRGEyRrlcUhF3o-87" value="HTTP 1.1" style="edgeLabel;resizable=0;html=1;;align=center;verticalAlign=middle;" parent="ckAOM5WRGEyRrlcUhF3o-86" connectable="0" vertex="1">
          <mxGeometry relative="1" as="geometry" />
        </mxCell>
        <mxCell id="xe0UmYvgqOULLllQZo8k-4" value="Application Server" style="verticalAlign=top;align=left;spacingTop=8;spacingLeft=2;spacingRight=12;shape=cube;size=10;direction=south;fontStyle=4;html=1;whiteSpace=wrap;" parent="1" vertex="1">
          <mxGeometry x="-610" y="2195" width="271.25" height="120" as="geometry" />
        </mxCell>
        <mxCell id="ckAOM5WRGEyRrlcUhF3o-38" value="ASP.NET Core Web API 8.0.400&lt;div&gt;Ocelot 23.3.3&lt;/div&gt;" style="shape=module;align=left;spacingLeft=20;align=center;verticalAlign=top;whiteSpace=wrap;html=1;" parent="1" vertex="1">
          <mxGeometry x="-590" y="2242" width="210" height="53" as="geometry" />
        </mxCell>
        <mxCell id="ckAOM5WRGEyRrlcUhF3o-53" value="" style="group" parent="1" vertex="1" connectable="0">
          <mxGeometry x="210" y="2052" width="300" height="190" as="geometry" />
        </mxCell>
        <mxCell id="ckAOM5WRGEyRrlcUhF3o-35" value="ОС Linux. Debian GNU/Linux 12" style="verticalAlign=top;align=left;spacingTop=8;spacingLeft=2;spacingRight=12;shape=cube;size=10;direction=south;fontStyle=4;html=1;whiteSpace=wrap;" parent="ckAOM5WRGEyRrlcUhF3o-53" vertex="1">
          <mxGeometry width="240" height="190" as="geometry" />
        </mxCell>
        <mxCell id="xe0UmYvgqOULLllQZo8k-5" value="Database Server" style="verticalAlign=top;align=left;spacingTop=8;spacingLeft=2;spacingRight=12;shape=cube;size=10;direction=south;fontStyle=4;html=1;whiteSpace=wrap;" parent="ckAOM5WRGEyRrlcUhF3o-53" vertex="1">
          <mxGeometry x="25" y="40" width="180" height="130" as="geometry" />
        </mxCell>
        <mxCell id="ckAOM5WRGEyRrlcUhF3o-36" value="&lt;font face=&quot;Times New Roman&quot;&gt;&lt;span style=&quot;font-size: 14px;&quot;&gt;Redis 7.4.0&lt;/span&gt;&lt;/font&gt;" style="shape=module;align=left;spacingLeft=20;align=center;verticalAlign=top;whiteSpace=wrap;html=1;" parent="ckAOM5WRGEyRrlcUhF3o-53" vertex="1">
          <mxGeometry x="40" y="80" width="133.84" height="70" as="geometry" />
        </mxCell>
        <mxCell id="ckAOM5WRGEyRrlcUhF3o-54" value="" style="group" parent="1" vertex="1" connectable="0">
          <mxGeometry x="-180" y="1564" width="321.29" height="210" as="geometry" />
        </mxCell>
        <mxCell id="ckAOM5WRGEyRrlcUhF3o-33" value="ОС Linux. Debian GNU/Linux 12" style="verticalAlign=top;align=left;spacingTop=8;spacingLeft=2;spacingRight=12;shape=cube;size=10;direction=south;fontStyle=4;html=1;whiteSpace=wrap;" parent="ckAOM5WRGEyRrlcUhF3o-54" vertex="1">
          <mxGeometry width="279.83322580645165" height="210" as="geometry" />
        </mxCell>
        <mxCell id="xe0UmYvgqOULLllQZo8k-2" value="Database Server" style="verticalAlign=top;align=left;spacingTop=8;spacingLeft=2;spacingRight=12;shape=cube;size=10;direction=south;fontStyle=4;html=1;whiteSpace=wrap;" parent="ckAOM5WRGEyRrlcUhF3o-54" vertex="1">
          <mxGeometry x="25.91048387096774" y="50" width="222.8301612903226" height="130" as="geometry" />
        </mxCell>
        <mxCell id="xe0UmYvgqOULLllQZo8k-1" value="" style="group" parent="ckAOM5WRGEyRrlcUhF3o-54" vertex="1" connectable="0">
          <mxGeometry x="93.27774193548387" y="27.5" width="228.01225806451615" height="145" as="geometry" />
        </mxCell>
        <mxCell id="ckAOM5WRGEyRrlcUhF3o-34" value="&lt;div&gt;MS SQL Server 2019&amp;nbsp;&lt;/div&gt;&lt;div&gt;&amp;nbsp;(RTM) 15.0.2000.5&lt;/div&gt;" style="shape=module;align=left;spacingLeft=20;align=center;verticalAlign=top;whiteSpace=wrap;html=1;" parent="xe0UmYvgqOULLllQZo8k-1" vertex="1">
          <mxGeometry x="-41.45677419354839" y="70" width="165.82709677419356" height="60" as="geometry" />
        </mxCell>
        <mxCell id="ckAOM5WRGEyRrlcUhF3o-55" value="" style="group" parent="1" vertex="1" connectable="0">
          <mxGeometry x="-210" y="2010" width="330" height="197" as="geometry" />
        </mxCell>
        <mxCell id="ckAOM5WRGEyRrlcUhF3o-44" value="&lt;div&gt;ОС Linux. Debian GNU/Linux 12&lt;/div&gt;&lt;div&gt;{Authentication Service}&lt;/div&gt;" style="verticalAlign=top;align=left;spacingTop=8;spacingLeft=2;spacingRight=12;shape=cube;size=10;direction=south;fontStyle=4;html=1;whiteSpace=wrap;" parent="ckAOM5WRGEyRrlcUhF3o-55" vertex="1">
          <mxGeometry y="-80" width="330" height="240" as="geometry" />
        </mxCell>
        <mxCell id="xe0UmYvgqOULLllQZo8k-21" value="" style="group" parent="ckAOM5WRGEyRrlcUhF3o-55" vertex="1" connectable="0">
          <mxGeometry x="21.29" y="-20" width="278.71" height="160" as="geometry" />
        </mxCell>
        <mxCell id="xe0UmYvgqOULLllQZo8k-22" value="Application Server" style="verticalAlign=top;align=left;spacingTop=8;spacingLeft=2;spacingRight=12;shape=cube;size=10;direction=south;fontStyle=4;html=1;whiteSpace=wrap;" parent="xe0UmYvgqOULLllQZo8k-21" vertex="1">
          <mxGeometry width="278.71" height="160" as="geometry" />
        </mxCell>
        <mxCell id="xe0UmYvgqOULLllQZo8k-23" value="ASP.NET Core Web API 8.0.400&lt;div&gt;Entity Framework Core 8.0.8&lt;/div&gt;&lt;div&gt;&lt;div&gt;StackExchange.Redis 2.8.16&lt;/div&gt;&lt;/div&gt;&lt;div&gt;MimeKit 4.7.1.1&lt;/div&gt;&lt;div&gt;&amp;nbsp;JwtBearer 8.0.7&lt;/div&gt;&lt;div&gt;BCrypt.Net-Next 4.0.3&lt;/div&gt;" style="shape=module;align=left;spacingLeft=20;align=center;verticalAlign=top;whiteSpace=wrap;html=1;" parent="xe0UmYvgqOULLllQZo8k-21" vertex="1">
          <mxGeometry x="18.23" y="40" width="227.04" height="98.67" as="geometry" />
        </mxCell>
        <mxCell id="ckAOM5WRGEyRrlcUhF3o-56" value="" style="group" parent="1" vertex="1" connectable="0">
          <mxGeometry x="-210" y="2190" width="351.29" height="250" as="geometry" />
        </mxCell>
        <mxCell id="ckAOM5WRGEyRrlcUhF3o-39" value="ОС Linux. Debian GNU/Linux 12&lt;br&gt;&lt;div&gt;{Game Service}&lt;/div&gt;" style="verticalAlign=top;align=left;spacingTop=8;spacingLeft=2;spacingRight=12;shape=cube;size=10;direction=south;fontStyle=4;html=1;whiteSpace=wrap;" parent="ckAOM5WRGEyRrlcUhF3o-56" vertex="1">
          <mxGeometry width="330" height="240" as="geometry" />
        </mxCell>
        <mxCell id="xe0UmYvgqOULLllQZo8k-18" value="" style="group" parent="ckAOM5WRGEyRrlcUhF3o-56" vertex="1" connectable="0">
          <mxGeometry x="21.29" y="55" width="330" height="160" as="geometry" />
        </mxCell>
        <mxCell id="xe0UmYvgqOULLllQZo8k-19" value="Application Server" style="verticalAlign=top;align=left;spacingTop=8;spacingLeft=2;spacingRight=12;shape=cube;size=10;direction=south;fontStyle=4;html=1;whiteSpace=wrap;" parent="xe0UmYvgqOULLllQZo8k-18" vertex="1">
          <mxGeometry width="280" height="160" as="geometry" />
        </mxCell>
        <mxCell id="xe0UmYvgqOULLllQZo8k-20" value="ASP.NET Core Web API 8.0.400&lt;div&gt;Entity Framework Core 8.0.8&lt;/div&gt;&lt;div&gt;StackExchange.Redis 2.8.16&lt;/div&gt;&lt;div&gt;MimeKit 4.7.1.1&lt;/div&gt;&lt;div&gt;SignalR 8.0.7&lt;/div&gt;&lt;div&gt;&lt;br&gt;&lt;/div&gt;" style="shape=module;align=left;spacingLeft=20;align=center;verticalAlign=top;whiteSpace=wrap;html=1;" parent="xe0UmYvgqOULLllQZo8k-18" vertex="1">
          <mxGeometry x="18.8" y="46.5" width="231.2" height="93.5" as="geometry" />
        </mxCell>
        <mxCell id="ckAOM5WRGEyRrlcUhF3o-62" value="" style="group" parent="1" vertex="1" connectable="0">
          <mxGeometry x="-780" y="1550" width="329.31" height="230" as="geometry" />
        </mxCell>
        <mxCell id="ckAOM5WRGEyRrlcUhF3o-42" value="ОС Linux. Debian GNU/Linux 12&lt;div&gt;{Profile Service}&lt;/div&gt;" style="verticalAlign=top;align=left;spacingTop=8;spacingLeft=2;spacingRight=12;shape=cube;size=10;direction=south;fontStyle=4;html=1;whiteSpace=wrap;" parent="ckAOM5WRGEyRrlcUhF3o-62" vertex="1">
          <mxGeometry y="40" width="329.31" height="190" as="geometry" />
        </mxCell>
        <mxCell id="xe0UmYvgqOULLllQZo8k-27" value="Application Server" style="verticalAlign=top;align=left;spacingTop=8;spacingLeft=2;spacingRight=12;shape=cube;size=10;direction=south;fontStyle=4;html=1;whiteSpace=wrap;" parent="ckAOM5WRGEyRrlcUhF3o-62" vertex="1">
          <mxGeometry x="21.890000000000015" y="90" width="278.71" height="120" as="geometry" />
        </mxCell>
        <mxCell id="xe0UmYvgqOULLllQZo8k-28" value="ASP.NET Core Web API 8.0.400&lt;div&gt;Entity Framework Core 8.0.8&lt;/div&gt;&lt;div&gt;MimeKit 4.7.1.1&lt;br&gt;&lt;/div&gt;" style="shape=module;align=left;spacingLeft=20;align=center;verticalAlign=top;whiteSpace=wrap;html=1;" parent="ckAOM5WRGEyRrlcUhF3o-62" vertex="1">
          <mxGeometry x="41.41" y="132" width="227.04" height="60" as="geometry" />
        </mxCell>
        <mxCell id="ckAOM5WRGEyRrlcUhF3o-81" value="" style="endArrow=block;html=1;rounded=0;startArrow=block;startFill=1;endFill=1;entryX=0;entryY=0;entryDx=90;entryDy=0;entryPerimeter=0;edgeStyle=orthogonalEdgeStyle;" parent="1" target="ckAOM5WRGEyRrlcUhF3o-42" edge="1">
          <mxGeometry relative="1" as="geometry">
            <mxPoint x="-180" y="1680" as="sourcePoint" />
            <mxPoint x="51" y="1650" as="targetPoint" />
            <Array as="points">
              <mxPoint x="-180" y="1680" />
            </Array>
          </mxGeometry>
        </mxCell>
        <mxCell id="ckAOM5WRGEyRrlcUhF3o-82" value="TCP" style="edgeLabel;resizable=0;html=1;;align=center;verticalAlign=middle;" parent="ckAOM5WRGEyRrlcUhF3o-81" connectable="0" vertex="1">
          <mxGeometry relative="1" as="geometry">
            <mxPoint x="5" y="-1" as="offset" />
          </mxGeometry>
        </mxCell>
        <mxCell id="ckAOM5WRGEyRrlcUhF3o-93" value="" style="endArrow=block;html=1;rounded=0;exitX=0.385;exitY=1.001;exitDx=0;exitDy=0;exitPerimeter=0;startArrow=block;startFill=1;endFill=1;entryX=0;entryY=0;entryDx=115.00000000000001;entryDy=0;entryPerimeter=0;edgeStyle=orthogonalEdgeStyle;" parent="1" source="ckAOM5WRGEyRrlcUhF3o-35" target="ckAOM5WRGEyRrlcUhF3o-44" edge="1">
          <mxGeometry relative="1" as="geometry">
            <mxPoint x="309" y="1695" as="sourcePoint" />
            <mxPoint x="60" y="1765" as="targetPoint" />
          </mxGeometry>
        </mxCell>
        <mxCell id="ckAOM5WRGEyRrlcUhF3o-94" value="TCP" style="edgeLabel;resizable=0;html=1;;align=center;verticalAlign=middle;" parent="ckAOM5WRGEyRrlcUhF3o-93" connectable="0" vertex="1">
          <mxGeometry relative="1" as="geometry" />
        </mxCell>
        <mxCell id="ckAOM5WRGEyRrlcUhF3o-95" value="" style="endArrow=block;html=1;rounded=0;exitX=0.732;exitY=1;exitDx=0;exitDy=0;exitPerimeter=0;startArrow=block;startFill=1;endFill=1;entryX=0;entryY=0;entryDx=70;entryDy=0;entryPerimeter=0;edgeStyle=orthogonalEdgeStyle;" parent="1" source="ckAOM5WRGEyRrlcUhF3o-35" target="ckAOM5WRGEyRrlcUhF3o-39" edge="1">
          <mxGeometry relative="1" as="geometry">
            <mxPoint x="222" y="2053" as="sourcePoint" />
            <mxPoint x="50" y="1960" as="targetPoint" />
          </mxGeometry>
        </mxCell>
        <mxCell id="ckAOM5WRGEyRrlcUhF3o-96" value="TCP" style="edgeLabel;resizable=0;html=1;;align=center;verticalAlign=middle;" parent="ckAOM5WRGEyRrlcUhF3o-95" connectable="0" vertex="1">
          <mxGeometry relative="1" as="geometry" />
        </mxCell>
        <mxCell id="ckAOM5WRGEyRrlcUhF3o-98" value="" style="endArrow=block;html=1;rounded=0;startArrow=block;startFill=1;endFill=1;edgeStyle=orthogonalEdgeStyle;exitX=0;exitY=0;exitDx=100;exitDy=0;exitPerimeter=0;" parent="1" source="ckAOM5WRGEyRrlcUhF3o-33" edge="1">
          <mxGeometry relative="1" as="geometry">
            <mxPoint x="150" y="2102" as="sourcePoint" />
            <mxPoint x="120" y="2354" as="targetPoint" />
            <Array as="points">
              <mxPoint x="500" y="1640" />
              <mxPoint x="500" y="2354" />
            </Array>
          </mxGeometry>
        </mxCell>
        <mxCell id="ckAOM5WRGEyRrlcUhF3o-99" value="TCP" style="edgeLabel;resizable=0;html=1;;align=center;verticalAlign=middle;" parent="ckAOM5WRGEyRrlcUhF3o-98" connectable="0" vertex="1">
          <mxGeometry relative="1" as="geometry">
            <mxPoint y="-114" as="offset" />
          </mxGeometry>
        </mxCell>
        <mxCell id="ckAOM5WRGEyRrlcUhF3o-107" value="" style="endArrow=block;html=1;rounded=0;startArrow=block;startFill=1;endFill=1;entryX=0;entryY=0;entryDx=0;entryDy=160;entryPerimeter=0;edgeStyle=orthogonalEdgeStyle;exitX=0;exitY=0;exitDx=210;exitDy=140;exitPerimeter=0;" parent="1" source="ckAOM5WRGEyRrlcUhF3o-33" target="ckAOM5WRGEyRrlcUhF3o-44" edge="1">
          <mxGeometry relative="1" as="geometry">
            <mxPoint x="410" y="1740" as="sourcePoint" />
            <mxPoint x="70" y="1987.85" as="targetPoint" />
            <Array as="points">
              <mxPoint x="-40" y="1750" />
              <mxPoint x="-40" y="1750" />
            </Array>
          </mxGeometry>
        </mxCell>
        <mxCell id="ckAOM5WRGEyRrlcUhF3o-108" value="TCP" style="edgeLabel;resizable=0;html=1;;align=center;verticalAlign=middle;" parent="ckAOM5WRGEyRrlcUhF3o-107" connectable="0" vertex="1">
          <mxGeometry relative="1" as="geometry">
            <mxPoint y="-2" as="offset" />
          </mxGeometry>
        </mxCell>
        <mxCell id="xe0UmYvgqOULLllQZo8k-31" style="edgeStyle=orthogonalEdgeStyle;rounded=0;orthogonalLoop=1;jettySize=auto;html=1;endArrow=block;endFill=1;startArrow=block;startFill=1;exitX=0;exitY=0;exitDx=0;exitDy=160;exitPerimeter=0;" parent="1" source="ckAOM5WRGEyRrlcUhF3o-46" edge="1">
          <mxGeometry relative="1" as="geometry">
            <mxPoint x="-180" y="1730" as="targetPoint" />
            <Array as="points">
              <mxPoint x="-390" y="1730" />
            </Array>
          </mxGeometry>
        </mxCell>
        <mxCell id="xe0UmYvgqOULLllQZo8k-32" value="TCP" style="edgeLabel;html=1;align=center;verticalAlign=middle;resizable=0;points=[];" parent="xe0UmYvgqOULLllQZo8k-31" vertex="1" connectable="0">
          <mxGeometry x="0.0469" y="2" relative="1" as="geometry">
            <mxPoint x="8" y="3" as="offset" />
          </mxGeometry>
        </mxCell>
        <mxCell id="xe0UmYvgqOULLllQZo8k-38" value="" style="group" parent="1" vertex="1" connectable="0">
          <mxGeometry x="-1060" y="2156" width="240" height="180" as="geometry" />
        </mxCell>
        <mxCell id="xe0UmYvgqOULLllQZo8k-36" value="Web Server" style="verticalAlign=top;align=left;spacingTop=8;spacingLeft=2;spacingRight=12;shape=cube;size=10;direction=south;fontStyle=4;html=1;whiteSpace=wrap;" parent="xe0UmYvgqOULLllQZo8k-38" vertex="1">
          <mxGeometry width="210" height="180" as="geometry" />
        </mxCell>
        <mxCell id="xe0UmYvgqOULLllQZo8k-37" value="" style="group" parent="xe0UmYvgqOULLllQZo8k-38" vertex="1" connectable="0">
          <mxGeometry x="20" y="40" width="220" height="120" as="geometry" />
        </mxCell>
        <mxCell id="ckAOM5WRGEyRrlcUhF3o-3" value="&lt;div&gt;&lt;span style=&quot;font-size: 14px;&quot;&gt;&lt;font face=&quot;Helvetica&quot;&gt;Nginx 1.27.3&lt;/font&gt;&lt;/span&gt;&lt;/div&gt;" style="shape=module;align=left;spacingLeft=20;align=center;verticalAlign=top;whiteSpace=wrap;html=1;" parent="xe0UmYvgqOULLllQZo8k-37" vertex="1">
          <mxGeometry width="160" height="120" as="geometry" />
        </mxCell>
        <mxCell id="ckAOM5WRGEyRrlcUhF3o-12" value="" style="group" parent="xe0UmYvgqOULLllQZo8k-37" vertex="1" connectable="0">
          <mxGeometry x="20" y="30" width="200" height="80" as="geometry" />
        </mxCell>
        <mxCell id="ckAOM5WRGEyRrlcUhF3o-8" value="" style="shape=note;whiteSpace=wrap;html=1;backgroundOutline=1;darkOpacity=0.05;size=15;" parent="ckAOM5WRGEyRrlcUhF3o-12" vertex="1">
          <mxGeometry x="80" width="40" height="50" as="geometry" />
        </mxCell>
        <mxCell id="ckAOM5WRGEyRrlcUhF3o-9" value="nginx.conf" style="text;html=1;align=center;verticalAlign=middle;whiteSpace=wrap;rounded=0;" parent="ckAOM5WRGEyRrlcUhF3o-12" vertex="1">
          <mxGeometry x="70" y="50" width="60" height="30" as="geometry" />
        </mxCell>
        <mxCell id="ckAOM5WRGEyRrlcUhF3o-10" value="" style="shape=note;whiteSpace=wrap;html=1;backgroundOutline=1;darkOpacity=0.05;size=15;" parent="ckAOM5WRGEyRrlcUhF3o-12" vertex="1">
          <mxGeometry x="10" width="40" height="50" as="geometry" />
        </mxCell>
        <mxCell id="ckAOM5WRGEyRrlcUhF3o-11" value="bundle.js" style="text;html=1;align=center;verticalAlign=middle;whiteSpace=wrap;rounded=0;" parent="ckAOM5WRGEyRrlcUhF3o-12" vertex="1">
          <mxGeometry y="50" width="60" height="30" as="geometry" />
        </mxCell>
        <mxCell id="xe0UmYvgqOULLllQZo8k-41" value="" style="group" parent="1" vertex="1" connectable="0">
          <mxGeometry x="-1065" y="2530" width="215" height="120" as="geometry" />
        </mxCell>
        <mxCell id="ckAOM5WRGEyRrlcUhF3o-27" value="&lt;div&gt;Web Browser&lt;/div&gt;" style="verticalAlign=top;align=left;spacingTop=8;spacingLeft=2;spacingRight=12;shape=cube;size=10;direction=south;fontStyle=4;html=1;whiteSpace=wrap;" parent="xe0UmYvgqOULLllQZo8k-41" vertex="1">
          <mxGeometry width="215" height="120" as="geometry" />
        </mxCell>
        <mxCell id="ckAOM5WRGEyRrlcUhF3o-28" value="&lt;div&gt;Microsoft Edge&amp;nbsp;&lt;/div&gt;&lt;div&gt;131.0.2903.112&lt;/div&gt;" style="shape=module;align=left;spacingLeft=20;align=center;verticalAlign=top;whiteSpace=wrap;html=1;" parent="xe0UmYvgqOULLllQZo8k-41" vertex="1">
          <mxGeometry x="25" y="45" width="150" height="55" as="geometry" />
        </mxCell>
        <mxCell id="1UBmldHhn7O4GViiC7BB-2" value="" style="group" vertex="1" connectable="0" parent="1">
          <mxGeometry x="-560" y="1810" width="330" height="190" as="geometry" />
        </mxCell>
        <mxCell id="ckAOM5WRGEyRrlcUhF3o-46" value="&lt;div&gt;ОС Linux. Debian GNU/Linux 12&lt;/div&gt;&lt;div&gt;{Notification Service}&lt;/div&gt;" style="verticalAlign=top;align=left;spacingTop=8;spacingLeft=2;spacingRight=12;shape=cube;size=10;direction=south;fontStyle=4;html=1;whiteSpace=wrap;" parent="1UBmldHhn7O4GViiC7BB-2" vertex="1">
          <mxGeometry width="330" height="190" as="geometry" />
        </mxCell>
        <mxCell id="xe0UmYvgqOULLllQZo8k-25" value="Application Server" style="verticalAlign=top;align=left;spacingTop=8;spacingLeft=2;spacingRight=12;shape=cube;size=10;direction=south;fontStyle=4;html=1;whiteSpace=wrap;" parent="1UBmldHhn7O4GViiC7BB-2" vertex="1">
          <mxGeometry x="20" y="50" width="278.71" height="120" as="geometry" />
        </mxCell>
        <mxCell id="xe0UmYvgqOULLllQZo8k-26" value="ASP.NET Core Web API 8.0.400&lt;div&gt;Entity Framework Core 8.0.8&lt;/div&gt;&lt;div&gt;MimeKit 4.7.1.1&lt;br&gt;&lt;/div&gt;" style="shape=module;align=left;spacingLeft=20;align=center;verticalAlign=top;whiteSpace=wrap;html=1;" parent="1UBmldHhn7O4GViiC7BB-2" vertex="1">
          <mxGeometry x="39.51999999999998" y="92" width="227.04" height="60" as="geometry" />
        </mxCell>
        <mxCell id="1UBmldHhn7O4GViiC7BB-3" value="" style="group" vertex="1" connectable="0" parent="1">
          <mxGeometry x="-1010.0000000000001" y="1780" width="329.31" height="230" as="geometry" />
        </mxCell>
        <mxCell id="1UBmldHhn7O4GViiC7BB-4" value="ОС Linux. Debian GNU/Linux 12&lt;div&gt;{Admin Service}&lt;/div&gt;" style="verticalAlign=top;align=left;spacingTop=8;spacingLeft=2;spacingRight=12;shape=cube;size=10;direction=south;fontStyle=4;html=1;whiteSpace=wrap;" vertex="1" parent="1UBmldHhn7O4GViiC7BB-3">
          <mxGeometry y="40" width="329.31" height="190" as="geometry" />
        </mxCell>
        <mxCell id="1UBmldHhn7O4GViiC7BB-5" value="Application Server" style="verticalAlign=top;align=left;spacingTop=8;spacingLeft=2;spacingRight=12;shape=cube;size=10;direction=south;fontStyle=4;html=1;whiteSpace=wrap;" vertex="1" parent="1UBmldHhn7O4GViiC7BB-3">
          <mxGeometry x="21.890000000000015" y="90" width="278.71" height="120" as="geometry" />
        </mxCell>
        <mxCell id="1UBmldHhn7O4GViiC7BB-6" value="ASP.NET Core Web API 8.0.400&lt;div&gt;Entity Framework Core 8.0.8&lt;/div&gt;&lt;div&gt;MimeKit 4.7.1.1&lt;br&gt;&lt;/div&gt;" style="shape=module;align=left;spacingLeft=20;align=center;verticalAlign=top;whiteSpace=wrap;html=1;" vertex="1" parent="1UBmldHhn7O4GViiC7BB-3">
          <mxGeometry x="41.41" y="132" width="227.04" height="60" as="geometry" />
        </mxCell>
        <mxCell id="1UBmldHhn7O4GViiC7BB-7" value="" style="endArrow=block;html=1;rounded=0;exitX=0.283;exitY=0.997;exitDx=0;exitDy=0;exitPerimeter=0;startArrow=block;startFill=1;endFill=1;edgeStyle=orthogonalEdgeStyle;entryX=0;entryY=0;entryDx=0;entryDy=159.655;entryPerimeter=0;" edge="1" parent="1" source="ckAOM5WRGEyRrlcUhF3o-33" target="1UBmldHhn7O4GViiC7BB-4">
          <mxGeometry relative="1" as="geometry">
            <mxPoint x="-199.66" y="1578.09" as="sourcePoint" />
            <mxPoint x="-860" y="1820" as="targetPoint" />
            <Array as="points">
              <mxPoint x="-250" y="1623" />
              <mxPoint x="-390" y="1623" />
              <mxPoint x="-390" y="1540" />
              <mxPoint x="-840" y="1540" />
            </Array>
          </mxGeometry>
        </mxCell>
        <mxCell id="1UBmldHhn7O4GViiC7BB-8" value="TCP" style="edgeLabel;resizable=0;html=1;;align=center;verticalAlign=middle;" connectable="0" vertex="1" parent="1UBmldHhn7O4GViiC7BB-7">
          <mxGeometry relative="1" as="geometry">
            <mxPoint x="298" y="80" as="offset" />
          </mxGeometry>
        </mxCell>
        <mxCell id="1UBmldHhn7O4GViiC7BB-11" value="" style="endArrow=block;html=1;rounded=0;startArrow=block;startFill=1;endFill=1;exitX=0;exitY=0;exitDx=190;exitDy=169.655;exitPerimeter=0;elbow=vertical;edgeStyle=orthogonalEdgeStyle;entryX=0.01;entryY=0.799;entryDx=0;entryDy=0;entryPerimeter=0;" edge="1" parent="1" source="1UBmldHhn7O4GViiC7BB-4" target="ckAOM5WRGEyRrlcUhF3o-37">
          <mxGeometry relative="1" as="geometry">
            <mxPoint x="-640" y="1845" as="sourcePoint" />
            <mxPoint x="-492.00000000000006" y="2200" as="targetPoint" />
            <Array as="points">
              <mxPoint x="-850" y="2080" />
              <mxPoint x="-566" y="2080" />
            </Array>
          </mxGeometry>
        </mxCell>
        <mxCell id="1UBmldHhn7O4GViiC7BB-12" value="HTTP 1.1" style="edgeLabel;resizable=0;html=1;;align=center;verticalAlign=middle;" connectable="0" vertex="1" parent="1UBmldHhn7O4GViiC7BB-11">
          <mxGeometry relative="1" as="geometry">
            <mxPoint x="-5" y="-1" as="offset" />
          </mxGeometry>
        </mxCell>
      </root>
    </mxGraphModel>
  </diagram>
  <diagram name="Страница — 2" id="LHznE1LBaVg8vuAKRet3">
    <mxGraphModel dx="987" dy="672" grid="1" gridSize="10" guides="1" tooltips="1" connect="1" arrows="1" fold="1" page="1" pageScale="1" pageWidth="827" pageHeight="1169" math="0" shadow="0">
      <root>
        <mxCell id="0" />
        <mxCell id="1" parent="0" />
      </root>
    </mxGraphModel>
  </diagram>
  <diagram name="Page-1" id="r7qI4INERHyYY6grJtX4">
    <mxGraphModel dx="3598" dy="157" grid="1" gridSize="10" guides="1" tooltips="1" connect="1" arrows="1" fold="1" page="1" pageScale="1" pageWidth="850" pageHeight="1100" math="0" shadow="0">
      <root>
        <mxCell id="0" />
        <mxCell id="1" parent="0" />
        <mxCell id="ckAOM5WRGEyRrlcUhF3o-15" value="&lt;div&gt;OC Windows Server 2022 Datacener Evalution 21H2&lt;/div&gt;" style="verticalAlign=top;align=left;spacingTop=8;spacingLeft=2;spacingRight=12;shape=cube;size=10;direction=south;fontStyle=4;html=1;whiteSpace=wrap;" parent="1" vertex="1">
          <mxGeometry x="-1150" y="1470" width="1720" height="1200" as="geometry" />
        </mxCell>
        <mxCell id="ckAOM5WRGEyRrlcUhF3o-14" value="&lt;div&gt;Docker Engine 27.1.1&lt;/div&gt;" style="verticalAlign=top;align=left;spacingTop=8;spacingLeft=2;spacingRight=12;shape=cube;size=10;direction=south;fontStyle=4;html=1;whiteSpace=wrap;movable=1;resizable=1;rotatable=1;deletable=1;editable=1;locked=0;connectable=1;" parent="1" vertex="1">
          <mxGeometry x="-1120" y="1510" width="1660" height="950" as="geometry" />
        </mxCell>
        <mxCell id="ckAOM5WRGEyRrlcUhF3o-2" value="ОС Linux. Debian GNU/Linux 12" style="verticalAlign=top;align=left;spacingTop=8;spacingLeft=2;spacingRight=12;shape=cube;size=10;direction=south;fontStyle=4;html=1;whiteSpace=wrap;" parent="1" vertex="1">
          <mxGeometry x="-1080" y="2115" width="260" height="240" as="geometry" />
        </mxCell>
        <mxCell id="ckAOM5WRGEyRrlcUhF3o-29" value="" style="endArrow=block;html=1;rounded=0;startArrow=block;startFill=1;endFill=1;entryX=0.003;entryY=0.282;entryDx=0;entryDy=0;entryPerimeter=0;exitX=1.017;exitY=0.349;exitDx=0;exitDy=0;exitPerimeter=0;" parent="1" source="ckAOM5WRGEyRrlcUhF3o-2" target="ckAOM5WRGEyRrlcUhF3o-27" edge="1">
          <mxGeometry relative="1" as="geometry">
            <mxPoint x="-801" y="2415" as="sourcePoint" />
            <mxPoint x="-870" y="2475" as="targetPoint" />
          </mxGeometry>
        </mxCell>
        <mxCell id="ckAOM5WRGEyRrlcUhF3o-30" value="&lt;div&gt;HTTP 1.1 (SSE)&lt;/div&gt;" style="edgeLabel;resizable=0;html=1;;align=center;verticalAlign=middle;" parent="ckAOM5WRGEyRrlcUhF3o-29" connectable="0" vertex="1">
          <mxGeometry relative="1" as="geometry">
            <mxPoint y="-12" as="offset" />
          </mxGeometry>
        </mxCell>
        <mxCell id="ckAOM5WRGEyRrlcUhF3o-31" value="" style="endArrow=block;html=1;rounded=0;startArrow=block;startFill=1;endFill=1;entryX=0.002;entryY=0.776;entryDx=0;entryDy=0;entryPerimeter=0;" parent="1" target="ckAOM5WRGEyRrlcUhF3o-27" edge="1">
          <mxGeometry relative="1" as="geometry">
            <mxPoint x="-1017" y="2356" as="sourcePoint" />
            <mxPoint x="-1026" y="2530" as="targetPoint" />
          </mxGeometry>
        </mxCell>
        <mxCell id="ckAOM5WRGEyRrlcUhF3o-32" value="HTTP 1.1" style="edgeLabel;resizable=0;html=1;;align=center;verticalAlign=middle;" parent="ckAOM5WRGEyRrlcUhF3o-31" connectable="0" vertex="1">
          <mxGeometry relative="1" as="geometry">
            <mxPoint x="6" y="-10" as="offset" />
          </mxGeometry>
        </mxCell>
        <mxCell id="ckAOM5WRGEyRrlcUhF3o-37" value="&lt;div&gt;ОС Linux. Debian GNU/Linux 12&lt;/div&gt;&lt;div&gt;{ApiGateway}&lt;/div&gt;" style="verticalAlign=top;align=left;spacingTop=8;spacingLeft=2;spacingRight=12;shape=cube;size=10;direction=south;fontStyle=4;html=1;whiteSpace=wrap;" parent="1" vertex="1">
          <mxGeometry x="-630" y="2135" width="320" height="200" as="geometry" />
        </mxCell>
        <mxCell id="ckAOM5WRGEyRrlcUhF3o-48" value="" style="endArrow=block;html=1;rounded=0;exitX=0.328;exitY=0.999;exitDx=0;exitDy=0;exitPerimeter=0;startArrow=block;startFill=1;endFill=1;" parent="1" source="ckAOM5WRGEyRrlcUhF3o-37" edge="1">
          <mxGeometry relative="1" as="geometry">
            <mxPoint x="-655.5" y="2090" as="sourcePoint" />
            <mxPoint x="-820" y="2200" as="targetPoint" />
          </mxGeometry>
        </mxCell>
        <mxCell id="ckAOM5WRGEyRrlcUhF3o-49" value="HTTP 1.1" style="edgeLabel;resizable=0;html=1;;align=center;verticalAlign=middle;" parent="ckAOM5WRGEyRrlcUhF3o-48" connectable="0" vertex="1">
          <mxGeometry relative="1" as="geometry" />
        </mxCell>
        <mxCell id="ckAOM5WRGEyRrlcUhF3o-51" value="" style="endArrow=block;html=1;rounded=0;entryX=0.66;entryY=1.003;entryDx=0;entryDy=0;entryPerimeter=0;startArrow=block;startFill=1;endFill=1;exitX=0.633;exitY=-0.001;exitDx=0;exitDy=0;exitPerimeter=0;" parent="1" source="ckAOM5WRGEyRrlcUhF3o-2" target="ckAOM5WRGEyRrlcUhF3o-37" edge="1">
          <mxGeometry relative="1" as="geometry">
            <mxPoint x="-430" y="2150" as="sourcePoint" />
            <mxPoint x="-609" y="2290" as="targetPoint" />
          </mxGeometry>
        </mxCell>
        <mxCell id="ckAOM5WRGEyRrlcUhF3o-52" value="&lt;div&gt;HTTP 1.1 (SSE)&lt;/div&gt;" style="edgeLabel;resizable=0;html=1;;align=center;verticalAlign=middle;" parent="ckAOM5WRGEyRrlcUhF3o-51" connectable="0" vertex="1">
          <mxGeometry relative="1" as="geometry">
            <mxPoint x="-2" y="-2" as="offset" />
          </mxGeometry>
        </mxCell>
        <mxCell id="ckAOM5WRGEyRrlcUhF3o-73" value="" style="endArrow=block;html=1;rounded=0;startArrow=block;startFill=1;endFill=1;exitX=0;exitY=0;exitDx=190;exitDy=169.655;exitPerimeter=0;elbow=vertical;edgeStyle=orthogonalEdgeStyle;entryX=0.001;entryY=0.506;entryDx=0;entryDy=0;entryPerimeter=0;" parent="1" source="ckAOM5WRGEyRrlcUhF3o-42" target="ckAOM5WRGEyRrlcUhF3o-37" edge="1">
          <mxGeometry relative="1" as="geometry">
            <mxPoint x="-510" y="1837" as="sourcePoint" />
            <mxPoint x="-509" y="1840" as="targetPoint" />
            <Array as="points">
              <mxPoint x="-620" y="2030" />
              <mxPoint x="-472" y="2030" />
            </Array>
          </mxGeometry>
        </mxCell>
        <mxCell id="ckAOM5WRGEyRrlcUhF3o-74" value="HTTP 1.1" style="edgeLabel;resizable=0;html=1;;align=center;verticalAlign=middle;" parent="ckAOM5WRGEyRrlcUhF3o-73" connectable="0" vertex="1">
          <mxGeometry relative="1" as="geometry">
            <mxPoint x="144" y="49" as="offset" />
          </mxGeometry>
        </mxCell>
        <mxCell id="ckAOM5WRGEyRrlcUhF3o-75" value="" style="endArrow=block;html=1;rounded=0;startArrow=block;startFill=1;endFill=1;exitX=0;exitY=0;exitDx=190;exitDy=170;exitPerimeter=0;elbow=vertical;edgeStyle=orthogonalEdgeStyle;entryX=0.004;entryY=0.281;entryDx=0;entryDy=0;entryPerimeter=0;" parent="1" source="ckAOM5WRGEyRrlcUhF3o-46" target="ckAOM5WRGEyRrlcUhF3o-37" edge="1">
          <mxGeometry relative="1" as="geometry">
            <mxPoint x="-129" y="1750.6" as="sourcePoint" />
            <mxPoint x="-421" y="2134" as="targetPoint" />
            <Array as="points" />
          </mxGeometry>
        </mxCell>
        <mxCell id="ckAOM5WRGEyRrlcUhF3o-76" value="HTTP 1.1" style="edgeLabel;resizable=0;html=1;;align=center;verticalAlign=middle;" parent="ckAOM5WRGEyRrlcUhF3o-75" connectable="0" vertex="1">
          <mxGeometry relative="1" as="geometry">
            <mxPoint x="-1" y="11" as="offset" />
          </mxGeometry>
        </mxCell>
        <mxCell id="ckAOM5WRGEyRrlcUhF3o-77" value="" style="endArrow=block;html=1;rounded=0;startArrow=block;startFill=1;endFill=1;elbow=vertical;edgeStyle=orthogonalEdgeStyle;exitX=0;exitY=0;exitDx=125;exitDy=330;exitPerimeter=0;entryX=0.002;entryY=0.096;entryDx=0;entryDy=0;entryPerimeter=0;" parent="1" source="ckAOM5WRGEyRrlcUhF3o-44" target="ckAOM5WRGEyRrlcUhF3o-37" edge="1">
          <mxGeometry relative="1" as="geometry">
            <mxPoint x="-250" y="1830" as="sourcePoint" />
            <mxPoint x="-340" y="2130" as="targetPoint" />
            <Array as="points">
              <mxPoint x="-341" y="2055" />
            </Array>
          </mxGeometry>
        </mxCell>
        <mxCell id="ckAOM5WRGEyRrlcUhF3o-78" value="HTTP 1.1" style="edgeLabel;resizable=0;html=1;;align=center;verticalAlign=middle;" parent="ckAOM5WRGEyRrlcUhF3o-77" connectable="0" vertex="1">
          <mxGeometry relative="1" as="geometry">
            <mxPoint x="-23" y="24" as="offset" />
          </mxGeometry>
        </mxCell>
        <mxCell id="ckAOM5WRGEyRrlcUhF3o-84" value="" style="endArrow=block;html=1;rounded=0;startArrow=block;startFill=1;endFill=1;exitX=0;exitY=0;exitDx=200;exitDy=165;exitPerimeter=0;edgeStyle=orthogonalEdgeStyle;" parent="1" source="ckAOM5WRGEyRrlcUhF3o-37" edge="1">
          <mxGeometry relative="1" as="geometry">
            <mxPoint x="-334" y="2009" as="sourcePoint" />
            <mxPoint x="-211" y="2380" as="targetPoint" />
            <Array as="points">
              <mxPoint x="-475" y="2380" />
            </Array>
          </mxGeometry>
        </mxCell>
        <mxCell id="ckAOM5WRGEyRrlcUhF3o-85" value="&lt;div&gt;HTTP 1.1 (SSE)&lt;/div&gt;" style="edgeLabel;resizable=0;html=1;;align=center;verticalAlign=middle;" parent="ckAOM5WRGEyRrlcUhF3o-84" connectable="0" vertex="1">
          <mxGeometry relative="1" as="geometry">
            <mxPoint x="-2" y="-2" as="offset" />
          </mxGeometry>
        </mxCell>
        <mxCell id="ckAOM5WRGEyRrlcUhF3o-86" value="" style="endArrow=block;html=1;rounded=0;startArrow=block;startFill=1;endFill=1;exitX=0.373;exitY=1.002;exitDx=0;exitDy=0;exitPerimeter=0;elbow=vertical;entryX=0;entryY=0;entryDx=95;entryDy=0;entryPerimeter=0;edgeStyle=orthogonalEdgeStyle;" parent="1" source="ckAOM5WRGEyRrlcUhF3o-39" target="ckAOM5WRGEyRrlcUhF3o-37" edge="1">
          <mxGeometry relative="1" as="geometry">
            <mxPoint x="180" y="2179" as="sourcePoint" />
            <mxPoint x="-310" y="2198" as="targetPoint" />
          </mxGeometry>
        </mxCell>
        <mxCell id="ckAOM5WRGEyRrlcUhF3o-87" value="HTTP 1.1" style="edgeLabel;resizable=0;html=1;;align=center;verticalAlign=middle;" parent="ckAOM5WRGEyRrlcUhF3o-86" connectable="0" vertex="1">
          <mxGeometry relative="1" as="geometry" />
        </mxCell>
        <mxCell id="xe0UmYvgqOULLllQZo8k-4" value="Application Server" style="verticalAlign=top;align=left;spacingTop=8;spacingLeft=2;spacingRight=12;shape=cube;size=10;direction=south;fontStyle=4;html=1;whiteSpace=wrap;" parent="1" vertex="1">
          <mxGeometry x="-610" y="2195" width="271.25" height="120" as="geometry" />
        </mxCell>
        <mxCell id="ckAOM5WRGEyRrlcUhF3o-38" value="ASP.NET Core Web API 8.0.400&lt;div&gt;Ocelot 23.3.3&lt;/div&gt;" style="shape=module;align=left;spacingLeft=20;align=center;verticalAlign=top;whiteSpace=wrap;html=1;" parent="1" vertex="1">
          <mxGeometry x="-590" y="2242" width="210" height="53" as="geometry" />
        </mxCell>
        <mxCell id="ckAOM5WRGEyRrlcUhF3o-53" value="" style="group" parent="1" vertex="1" connectable="0">
          <mxGeometry x="210" y="2052" width="300" height="190" as="geometry" />
        </mxCell>
        <mxCell id="ckAOM5WRGEyRrlcUhF3o-35" value="ОС Linux. Debian GNU/Linux 12" style="verticalAlign=top;align=left;spacingTop=8;spacingLeft=2;spacingRight=12;shape=cube;size=10;direction=south;fontStyle=4;html=1;whiteSpace=wrap;" parent="ckAOM5WRGEyRrlcUhF3o-53" vertex="1">
          <mxGeometry width="240" height="190" as="geometry" />
        </mxCell>
        <mxCell id="xe0UmYvgqOULLllQZo8k-5" value="Database Server" style="verticalAlign=top;align=left;spacingTop=8;spacingLeft=2;spacingRight=12;shape=cube;size=10;direction=south;fontStyle=4;html=1;whiteSpace=wrap;" parent="ckAOM5WRGEyRrlcUhF3o-53" vertex="1">
          <mxGeometry x="25" y="40" width="180" height="130" as="geometry" />
        </mxCell>
        <mxCell id="ckAOM5WRGEyRrlcUhF3o-36" value="&lt;font face=&quot;Times New Roman&quot;&gt;&lt;span style=&quot;font-size: 14px;&quot;&gt;Redis 7.4.0&lt;/span&gt;&lt;/font&gt;" style="shape=module;align=left;spacingLeft=20;align=center;verticalAlign=top;whiteSpace=wrap;html=1;" parent="ckAOM5WRGEyRrlcUhF3o-53" vertex="1">
          <mxGeometry x="40" y="80" width="133.84" height="70" as="geometry" />
        </mxCell>
        <mxCell id="ckAOM5WRGEyRrlcUhF3o-54" value="" style="group" parent="1" vertex="1" connectable="0">
          <mxGeometry x="-180" y="1564" width="321.29" height="210" as="geometry" />
        </mxCell>
        <mxCell id="ckAOM5WRGEyRrlcUhF3o-33" value="ОС Linux. Debian GNU/Linux 12" style="verticalAlign=top;align=left;spacingTop=8;spacingLeft=2;spacingRight=12;shape=cube;size=10;direction=south;fontStyle=4;html=1;whiteSpace=wrap;" parent="ckAOM5WRGEyRrlcUhF3o-54" vertex="1">
          <mxGeometry width="279.83322580645165" height="210" as="geometry" />
        </mxCell>
        <mxCell id="xe0UmYvgqOULLllQZo8k-2" value="Database Server" style="verticalAlign=top;align=left;spacingTop=8;spacingLeft=2;spacingRight=12;shape=cube;size=10;direction=south;fontStyle=4;html=1;whiteSpace=wrap;" parent="ckAOM5WRGEyRrlcUhF3o-54" vertex="1">
          <mxGeometry x="25.91048387096774" y="50" width="222.8301612903226" height="130" as="geometry" />
        </mxCell>
        <mxCell id="xe0UmYvgqOULLllQZo8k-1" value="" style="group" parent="ckAOM5WRGEyRrlcUhF3o-54" vertex="1" connectable="0">
          <mxGeometry x="93.27774193548387" y="27.5" width="228.01225806451615" height="145" as="geometry" />
        </mxCell>
        <mxCell id="ckAOM5WRGEyRrlcUhF3o-34" value="&lt;div&gt;MS SQL Server 2019&amp;nbsp;&lt;/div&gt;&lt;div&gt;&amp;nbsp;(RTM) 15.0.2000.5&lt;/div&gt;" style="shape=module;align=left;spacingLeft=20;align=center;verticalAlign=top;whiteSpace=wrap;html=1;" parent="xe0UmYvgqOULLllQZo8k-1" vertex="1">
          <mxGeometry x="-41.45677419354839" y="70" width="165.82709677419356" height="60" as="geometry" />
        </mxCell>
        <mxCell id="ckAOM5WRGEyRrlcUhF3o-55" value="" style="group" parent="1" vertex="1" connectable="0">
          <mxGeometry x="-210" y="2010" width="330" height="197" as="geometry" />
        </mxCell>
        <mxCell id="ckAOM5WRGEyRrlcUhF3o-44" value="&lt;div&gt;ОС Linux. Debian GNU/Linux 12&lt;/div&gt;&lt;div&gt;{Authentication Service}&lt;/div&gt;" style="verticalAlign=top;align=left;spacingTop=8;spacingLeft=2;spacingRight=12;shape=cube;size=10;direction=south;fontStyle=4;html=1;whiteSpace=wrap;" parent="ckAOM5WRGEyRrlcUhF3o-55" vertex="1">
          <mxGeometry y="-80" width="330" height="240" as="geometry" />
        </mxCell>
        <mxCell id="xe0UmYvgqOULLllQZo8k-21" value="" style="group" parent="ckAOM5WRGEyRrlcUhF3o-55" vertex="1" connectable="0">
          <mxGeometry x="21.29" y="-20" width="278.71" height="160" as="geometry" />
        </mxCell>
        <mxCell id="xe0UmYvgqOULLllQZo8k-22" value="Application Server" style="verticalAlign=top;align=left;spacingTop=8;spacingLeft=2;spacingRight=12;shape=cube;size=10;direction=south;fontStyle=4;html=1;whiteSpace=wrap;" parent="xe0UmYvgqOULLllQZo8k-21" vertex="1">
          <mxGeometry width="278.71" height="160" as="geometry" />
        </mxCell>
        <mxCell id="xe0UmYvgqOULLllQZo8k-23" value="ASP.NET Core Web API 8.0.400&lt;div&gt;Entity Framework Core 8.0.8&lt;/div&gt;&lt;div&gt;&lt;div&gt;StackExchange.Redis 2.8.16&lt;/div&gt;&lt;/div&gt;&lt;div&gt;MimeKit 4.7.1.1&lt;/div&gt;&lt;div&gt;&amp;nbsp;JwtBearer 8.0.7&lt;/div&gt;&lt;div&gt;BCrypt.Net-Next 4.0.3&lt;/div&gt;" style="shape=module;align=left;spacingLeft=20;align=center;verticalAlign=top;whiteSpace=wrap;html=1;" parent="xe0UmYvgqOULLllQZo8k-21" vertex="1">
          <mxGeometry x="18.23" y="40" width="227.04" height="98.67" as="geometry" />
        </mxCell>
        <mxCell id="ckAOM5WRGEyRrlcUhF3o-56" value="" style="group" parent="1" vertex="1" connectable="0">
          <mxGeometry x="-210" y="2190" width="351.29" height="250" as="geometry" />
        </mxCell>
        <mxCell id="ckAOM5WRGEyRrlcUhF3o-39" value="ОС Linux. Debian GNU/Linux 12&lt;br&gt;&lt;div&gt;{Game Service}&lt;/div&gt;" style="verticalAlign=top;align=left;spacingTop=8;spacingLeft=2;spacingRight=12;shape=cube;size=10;direction=south;fontStyle=4;html=1;whiteSpace=wrap;" parent="ckAOM5WRGEyRrlcUhF3o-56" vertex="1">
          <mxGeometry width="330" height="240" as="geometry" />
        </mxCell>
        <mxCell id="xe0UmYvgqOULLllQZo8k-18" value="" style="group" parent="ckAOM5WRGEyRrlcUhF3o-56" vertex="1" connectable="0">
          <mxGeometry x="21.29" y="55" width="330" height="160" as="geometry" />
        </mxCell>
        <mxCell id="xe0UmYvgqOULLllQZo8k-19" value="Application Server" style="verticalAlign=top;align=left;spacingTop=8;spacingLeft=2;spacingRight=12;shape=cube;size=10;direction=south;fontStyle=4;html=1;whiteSpace=wrap;" parent="xe0UmYvgqOULLllQZo8k-18" vertex="1">
          <mxGeometry width="280" height="160" as="geometry" />
        </mxCell>
        <mxCell id="xe0UmYvgqOULLllQZo8k-20" value="ASP.NET Core Web API 8.0.400&lt;div&gt;Entity Framework Core 8.0.8&lt;/div&gt;&lt;div&gt;StackExchange.Redis 2.8.16&lt;/div&gt;&lt;div&gt;MimeKit 4.7.1.1&lt;/div&gt;&lt;div&gt;SignalR 8.0.7&lt;/div&gt;&lt;div&gt;&lt;br&gt;&lt;/div&gt;" style="shape=module;align=left;spacingLeft=20;align=center;verticalAlign=top;whiteSpace=wrap;html=1;" parent="xe0UmYvgqOULLllQZo8k-18" vertex="1">
          <mxGeometry x="18.8" y="46.5" width="231.2" height="93.5" as="geometry" />
        </mxCell>
        <mxCell id="ckAOM5WRGEyRrlcUhF3o-62" value="" style="group" parent="1" vertex="1" connectable="0">
          <mxGeometry x="-780" y="1550" width="329.31" height="230" as="geometry" />
        </mxCell>
        <mxCell id="ckAOM5WRGEyRrlcUhF3o-42" value="ОС Linux. Debian GNU/Linux 12&lt;div&gt;{Profile Service}&lt;/div&gt;" style="verticalAlign=top;align=left;spacingTop=8;spacingLeft=2;spacingRight=12;shape=cube;size=10;direction=south;fontStyle=4;html=1;whiteSpace=wrap;" parent="ckAOM5WRGEyRrlcUhF3o-62" vertex="1">
          <mxGeometry y="40" width="329.31" height="190" as="geometry" />
        </mxCell>
        <mxCell id="xe0UmYvgqOULLllQZo8k-27" value="Application Server" style="verticalAlign=top;align=left;spacingTop=8;spacingLeft=2;spacingRight=12;shape=cube;size=10;direction=south;fontStyle=4;html=1;whiteSpace=wrap;" parent="ckAOM5WRGEyRrlcUhF3o-62" vertex="1">
          <mxGeometry x="21.890000000000015" y="90" width="278.71" height="120" as="geometry" />
        </mxCell>
        <mxCell id="xe0UmYvgqOULLllQZo8k-28" value="ASP.NET Core Web API 8.0.400&lt;div&gt;Entity Framework Core 8.0.8&lt;/div&gt;&lt;div&gt;MimeKit 4.7.1.1&lt;br&gt;&lt;/div&gt;" style="shape=module;align=left;spacingLeft=20;align=center;verticalAlign=top;whiteSpace=wrap;html=1;" parent="ckAOM5WRGEyRrlcUhF3o-62" vertex="1">
          <mxGeometry x="41.41" y="132" width="227.04" height="60" as="geometry" />
        </mxCell>
        <mxCell id="ckAOM5WRGEyRrlcUhF3o-81" value="" style="endArrow=block;html=1;rounded=0;startArrow=block;startFill=1;endFill=1;entryX=0;entryY=0;entryDx=90;entryDy=0;entryPerimeter=0;edgeStyle=orthogonalEdgeStyle;" parent="1" target="ckAOM5WRGEyRrlcUhF3o-42" edge="1">
          <mxGeometry relative="1" as="geometry">
            <mxPoint x="-180" y="1680" as="sourcePoint" />
            <mxPoint x="51" y="1650" as="targetPoint" />
            <Array as="points">
              <mxPoint x="-180" y="1680" />
            </Array>
          </mxGeometry>
        </mxCell>
        <mxCell id="ckAOM5WRGEyRrlcUhF3o-82" value="TCP" style="edgeLabel;resizable=0;html=1;;align=center;verticalAlign=middle;" parent="ckAOM5WRGEyRrlcUhF3o-81" connectable="0" vertex="1">
          <mxGeometry relative="1" as="geometry">
            <mxPoint x="5" y="-1" as="offset" />
          </mxGeometry>
        </mxCell>
        <mxCell id="ckAOM5WRGEyRrlcUhF3o-93" value="" style="endArrow=block;html=1;rounded=0;exitX=0.385;exitY=1.001;exitDx=0;exitDy=0;exitPerimeter=0;startArrow=block;startFill=1;endFill=1;entryX=0;entryY=0;entryDx=115.00000000000001;entryDy=0;entryPerimeter=0;edgeStyle=orthogonalEdgeStyle;" parent="1" source="ckAOM5WRGEyRrlcUhF3o-35" target="ckAOM5WRGEyRrlcUhF3o-44" edge="1">
          <mxGeometry relative="1" as="geometry">
            <mxPoint x="309" y="1695" as="sourcePoint" />
            <mxPoint x="60" y="1765" as="targetPoint" />
          </mxGeometry>
        </mxCell>
        <mxCell id="ckAOM5WRGEyRrlcUhF3o-94" value="TCP" style="edgeLabel;resizable=0;html=1;;align=center;verticalAlign=middle;" parent="ckAOM5WRGEyRrlcUhF3o-93" connectable="0" vertex="1">
          <mxGeometry relative="1" as="geometry" />
        </mxCell>
        <mxCell id="ckAOM5WRGEyRrlcUhF3o-95" value="" style="endArrow=block;html=1;rounded=0;exitX=0.732;exitY=1;exitDx=0;exitDy=0;exitPerimeter=0;startArrow=block;startFill=1;endFill=1;entryX=0;entryY=0;entryDx=70;entryDy=0;entryPerimeter=0;edgeStyle=orthogonalEdgeStyle;" parent="1" source="ckAOM5WRGEyRrlcUhF3o-35" target="ckAOM5WRGEyRrlcUhF3o-39" edge="1">
          <mxGeometry relative="1" as="geometry">
            <mxPoint x="222" y="2053" as="sourcePoint" />
            <mxPoint x="50" y="1960" as="targetPoint" />
          </mxGeometry>
        </mxCell>
        <mxCell id="ckAOM5WRGEyRrlcUhF3o-96" value="TCP" style="edgeLabel;resizable=0;html=1;;align=center;verticalAlign=middle;" parent="ckAOM5WRGEyRrlcUhF3o-95" connectable="0" vertex="1">
          <mxGeometry relative="1" as="geometry" />
        </mxCell>
        <mxCell id="ckAOM5WRGEyRrlcUhF3o-98" value="" style="endArrow=block;html=1;rounded=0;startArrow=block;startFill=1;endFill=1;edgeStyle=orthogonalEdgeStyle;exitX=0;exitY=0;exitDx=100;exitDy=0;exitPerimeter=0;" parent="1" source="ckAOM5WRGEyRrlcUhF3o-33" edge="1">
          <mxGeometry relative="1" as="geometry">
            <mxPoint x="150" y="2102" as="sourcePoint" />
            <mxPoint x="120" y="2354" as="targetPoint" />
            <Array as="points">
              <mxPoint x="500" y="1640" />
              <mxPoint x="500" y="2354" />
            </Array>
          </mxGeometry>
        </mxCell>
        <mxCell id="ckAOM5WRGEyRrlcUhF3o-99" value="TCP" style="edgeLabel;resizable=0;html=1;;align=center;verticalAlign=middle;" parent="ckAOM5WRGEyRrlcUhF3o-98" connectable="0" vertex="1">
          <mxGeometry relative="1" as="geometry">
            <mxPoint y="-114" as="offset" />
          </mxGeometry>
        </mxCell>
        <mxCell id="ckAOM5WRGEyRrlcUhF3o-107" value="" style="endArrow=block;html=1;rounded=0;startArrow=block;startFill=1;endFill=1;entryX=0;entryY=0;entryDx=0;entryDy=160;entryPerimeter=0;edgeStyle=orthogonalEdgeStyle;exitX=0;exitY=0;exitDx=210;exitDy=140;exitPerimeter=0;" parent="1" source="ckAOM5WRGEyRrlcUhF3o-33" target="ckAOM5WRGEyRrlcUhF3o-44" edge="1">
          <mxGeometry relative="1" as="geometry">
            <mxPoint x="410" y="1740" as="sourcePoint" />
            <mxPoint x="70" y="1987.85" as="targetPoint" />
            <Array as="points">
              <mxPoint x="-40" y="1750" />
              <mxPoint x="-40" y="1750" />
            </Array>
          </mxGeometry>
        </mxCell>
        <mxCell id="ckAOM5WRGEyRrlcUhF3o-108" value="TCP" style="edgeLabel;resizable=0;html=1;;align=center;verticalAlign=middle;" parent="ckAOM5WRGEyRrlcUhF3o-107" connectable="0" vertex="1">
          <mxGeometry relative="1" as="geometry">
            <mxPoint y="-2" as="offset" />
          </mxGeometry>
        </mxCell>
        <mxCell id="xe0UmYvgqOULLllQZo8k-31" style="edgeStyle=orthogonalEdgeStyle;rounded=0;orthogonalLoop=1;jettySize=auto;html=1;endArrow=block;endFill=1;startArrow=block;startFill=1;exitX=0;exitY=0;exitDx=0;exitDy=160;exitPerimeter=0;" parent="1" source="ckAOM5WRGEyRrlcUhF3o-46" edge="1">
          <mxGeometry relative="1" as="geometry">
            <mxPoint x="-180" y="1730" as="targetPoint" />
            <Array as="points">
              <mxPoint x="-390" y="1730" />
            </Array>
          </mxGeometry>
        </mxCell>
        <mxCell id="xe0UmYvgqOULLllQZo8k-32" value="TCP" style="edgeLabel;html=1;align=center;verticalAlign=middle;resizable=0;points=[];" parent="xe0UmYvgqOULLllQZo8k-31" vertex="1" connectable="0">
          <mxGeometry x="0.0469" y="2" relative="1" as="geometry">
            <mxPoint x="8" y="3" as="offset" />
          </mxGeometry>
        </mxCell>
        <mxCell id="xe0UmYvgqOULLllQZo8k-38" value="" style="group" parent="1" vertex="1" connectable="0">
          <mxGeometry x="-1060" y="2156" width="240" height="180" as="geometry" />
        </mxCell>
        <mxCell id="xe0UmYvgqOULLllQZo8k-36" value="Web Server" style="verticalAlign=top;align=left;spacingTop=8;spacingLeft=2;spacingRight=12;shape=cube;size=10;direction=south;fontStyle=4;html=1;whiteSpace=wrap;" parent="xe0UmYvgqOULLllQZo8k-38" vertex="1">
          <mxGeometry width="210" height="180" as="geometry" />
        </mxCell>
        <mxCell id="xe0UmYvgqOULLllQZo8k-37" value="" style="group" parent="xe0UmYvgqOULLllQZo8k-38" vertex="1" connectable="0">
          <mxGeometry x="20" y="40" width="220" height="120" as="geometry" />
        </mxCell>
        <mxCell id="ckAOM5WRGEyRrlcUhF3o-3" value="&lt;div&gt;&lt;span style=&quot;font-size: 14px;&quot;&gt;&lt;font face=&quot;Helvetica&quot;&gt;Nginx 1.27.3&lt;/font&gt;&lt;/span&gt;&lt;/div&gt;" style="shape=module;align=left;spacingLeft=20;align=center;verticalAlign=top;whiteSpace=wrap;html=1;" parent="xe0UmYvgqOULLllQZo8k-37" vertex="1">
          <mxGeometry width="160" height="120" as="geometry" />
        </mxCell>
        <mxCell id="ckAOM5WRGEyRrlcUhF3o-12" value="" style="group" parent="xe0UmYvgqOULLllQZo8k-37" vertex="1" connectable="0">
          <mxGeometry x="20" y="30" width="200" height="80" as="geometry" />
        </mxCell>
        <mxCell id="ckAOM5WRGEyRrlcUhF3o-8" value="" style="shape=note;whiteSpace=wrap;html=1;backgroundOutline=1;darkOpacity=0.05;size=15;" parent="ckAOM5WRGEyRrlcUhF3o-12" vertex="1">
          <mxGeometry x="80" width="40" height="50" as="geometry" />
        </mxCell>
        <mxCell id="ckAOM5WRGEyRrlcUhF3o-9" value="nginx.conf" style="text;html=1;align=center;verticalAlign=middle;whiteSpace=wrap;rounded=0;" parent="ckAOM5WRGEyRrlcUhF3o-12" vertex="1">
          <mxGeometry x="70" y="50" width="60" height="30" as="geometry" />
        </mxCell>
        <mxCell id="ckAOM5WRGEyRrlcUhF3o-10" value="" style="shape=note;whiteSpace=wrap;html=1;backgroundOutline=1;darkOpacity=0.05;size=15;" parent="ckAOM5WRGEyRrlcUhF3o-12" vertex="1">
          <mxGeometry x="10" width="40" height="50" as="geometry" />
        </mxCell>
        <mxCell id="ckAOM5WRGEyRrlcUhF3o-11" value="bundle.js" style="text;html=1;align=center;verticalAlign=middle;whiteSpace=wrap;rounded=0;" parent="ckAOM5WRGEyRrlcUhF3o-12" vertex="1">
          <mxGeometry y="50" width="60" height="30" as="geometry" />
        </mxCell>
        <mxCell id="xe0UmYvgqOULLllQZo8k-41" value="" style="group" parent="1" vertex="1" connectable="0">
          <mxGeometry x="-1065" y="2530" width="215" height="120" as="geometry" />
        </mxCell>
        <mxCell id="ckAOM5WRGEyRrlcUhF3o-27" value="&lt;div&gt;Web Browser&lt;/div&gt;" style="verticalAlign=top;align=left;spacingTop=8;spacingLeft=2;spacingRight=12;shape=cube;size=10;direction=south;fontStyle=4;html=1;whiteSpace=wrap;" parent="xe0UmYvgqOULLllQZo8k-41" vertex="1">
          <mxGeometry width="215" height="120" as="geometry" />
        </mxCell>
        <mxCell id="ckAOM5WRGEyRrlcUhF3o-28" value="&lt;div&gt;Microsoft Edge&amp;nbsp;&lt;/div&gt;&lt;div&gt;131.0.2903.112&lt;/div&gt;" style="shape=module;align=left;spacingLeft=20;align=center;verticalAlign=top;whiteSpace=wrap;html=1;" parent="xe0UmYvgqOULLllQZo8k-41" vertex="1">
          <mxGeometry x="25" y="45" width="150" height="55" as="geometry" />
        </mxCell>
        <mxCell id="1UBmldHhn7O4GViiC7BB-2" value="" style="group" vertex="1" connectable="0" parent="1">
          <mxGeometry x="-560" y="1810" width="330" height="190" as="geometry" />
        </mxCell>
        <mxCell id="ckAOM5WRGEyRrlcUhF3o-46" value="&lt;div&gt;ОС Linux. Debian GNU/Linux 12&lt;/div&gt;&lt;div&gt;{Notification Service}&lt;/div&gt;" style="verticalAlign=top;align=left;spacingTop=8;spacingLeft=2;spacingRight=12;shape=cube;size=10;direction=south;fontStyle=4;html=1;whiteSpace=wrap;" parent="1UBmldHhn7O4GViiC7BB-2" vertex="1">
          <mxGeometry width="330" height="190" as="geometry" />
        </mxCell>
        <mxCell id="xe0UmYvgqOULLllQZo8k-25" value="Application Server" style="verticalAlign=top;align=left;spacingTop=8;spacingLeft=2;spacingRight=12;shape=cube;size=10;direction=south;fontStyle=4;html=1;whiteSpace=wrap;" parent="1UBmldHhn7O4GViiC7BB-2" vertex="1">
          <mxGeometry x="20" y="50" width="278.71" height="120" as="geometry" />
        </mxCell>
        <mxCell id="xe0UmYvgqOULLllQZo8k-26" value="ASP.NET Core Web API 8.0.400&lt;div&gt;Entity Framework Core 8.0.8&lt;/div&gt;&lt;div&gt;MimeKit 4.7.1.1&lt;br&gt;&lt;/div&gt;" style="shape=module;align=left;spacingLeft=20;align=center;verticalAlign=top;whiteSpace=wrap;html=1;" parent="1UBmldHhn7O4GViiC7BB-2" vertex="1">
          <mxGeometry x="39.51999999999998" y="92" width="227.04" height="60" as="geometry" />
        </mxCell>
        <mxCell id="1UBmldHhn7O4GViiC7BB-3" value="" style="group" vertex="1" connectable="0" parent="1">
          <mxGeometry x="-1010.0000000000001" y="1780" width="329.31" height="230" as="geometry" />
        </mxCell>
        <mxCell id="1UBmldHhn7O4GViiC7BB-4" value="ОС Linux. Debian GNU/Linux 12&lt;div&gt;{Admin Service}&lt;/div&gt;" style="verticalAlign=top;align=left;spacingTop=8;spacingLeft=2;spacingRight=12;shape=cube;size=10;direction=south;fontStyle=4;html=1;whiteSpace=wrap;" vertex="1" parent="1UBmldHhn7O4GViiC7BB-3">
          <mxGeometry y="40" width="329.31" height="190" as="geometry" />
        </mxCell>
        <mxCell id="1UBmldHhn7O4GViiC7BB-5" value="Application Server" style="verticalAlign=top;align=left;spacingTop=8;spacingLeft=2;spacingRight=12;shape=cube;size=10;direction=south;fontStyle=4;html=1;whiteSpace=wrap;" vertex="1" parent="1UBmldHhn7O4GViiC7BB-3">
          <mxGeometry x="21.890000000000015" y="90" width="278.71" height="120" as="geometry" />
        </mxCell>
        <mxCell id="1UBmldHhn7O4GViiC7BB-6" value="ASP.NET Core Web API 8.0.400&lt;div&gt;Entity Framework Core 8.0.8&lt;/div&gt;&lt;div&gt;MimeKit 4.7.1.1&lt;br&gt;&lt;/div&gt;" style="shape=module;align=left;spacingLeft=20;align=center;verticalAlign=top;whiteSpace=wrap;html=1;" vertex="1" parent="1UBmldHhn7O4GViiC7BB-3">
          <mxGeometry x="41.41" y="132" width="227.04" height="60" as="geometry" />
        </mxCell>
        <mxCell id="1UBmldHhn7O4GViiC7BB-7" value="" style="endArrow=block;html=1;rounded=0;exitX=0.283;exitY=0.997;exitDx=0;exitDy=0;exitPerimeter=0;startArrow=block;startFill=1;endFill=1;edgeStyle=orthogonalEdgeStyle;entryX=0;entryY=0;entryDx=0;entryDy=159.655;entryPerimeter=0;" edge="1" parent="1" source="ckAOM5WRGEyRrlcUhF3o-33" target="1UBmldHhn7O4GViiC7BB-4">
          <mxGeometry relative="1" as="geometry">
            <mxPoint x="-199.66" y="1578.09" as="sourcePoint" />
            <mxPoint x="-860" y="1820" as="targetPoint" />
            <Array as="points">
              <mxPoint x="-250" y="1623" />
              <mxPoint x="-390" y="1623" />
              <mxPoint x="-390" y="1540" />
              <mxPoint x="-840" y="1540" />
            </Array>
          </mxGeometry>
        </mxCell>
        <mxCell id="1UBmldHhn7O4GViiC7BB-8" value="TCP" style="edgeLabel;resizable=0;html=1;;align=center;verticalAlign=middle;" connectable="0" vertex="1" parent="1UBmldHhn7O4GViiC7BB-7">
          <mxGeometry relative="1" as="geometry">
            <mxPoint x="298" y="80" as="offset" />
          </mxGeometry>
        </mxCell>
        <mxCell id="1UBmldHhn7O4GViiC7BB-11" value="" style="endArrow=block;html=1;rounded=0;startArrow=block;startFill=1;endFill=1;exitX=0;exitY=0;exitDx=190;exitDy=169.655;exitPerimeter=0;elbow=vertical;edgeStyle=orthogonalEdgeStyle;entryX=0.01;entryY=0.799;entryDx=0;entryDy=0;entryPerimeter=0;" edge="1" parent="1" source="1UBmldHhn7O4GViiC7BB-4" target="ckAOM5WRGEyRrlcUhF3o-37">
          <mxGeometry relative="1" as="geometry">
            <mxPoint x="-640" y="1845" as="sourcePoint" />
            <mxPoint x="-492.00000000000006" y="2200" as="targetPoint" />
            <Array as="points">
              <mxPoint x="-850" y="2080" />
              <mxPoint x="-566" y="2080" />
            </Array>
          </mxGeometry>
        </mxCell>
        <mxCell id="1UBmldHhn7O4GViiC7BB-12" value="HTTP 1.1" style="edgeLabel;resizable=0;html=1;;align=center;verticalAlign=middle;" connectable="0" vertex="1" parent="1UBmldHhn7O4GViiC7BB-11">
          <mxGeometry relative="1" as="geometry">
            <mxPoint x="-5" y="-1" as="offset" />
          </mxGeometry>
        </mxCell>
      </root>
    </mxGraphModel>
  </diagram>
  <diagram name="Страница — 2" id="FnXwhTvPLlzBswWMaH5M">
    <mxGraphModel dx="987" dy="672" grid="1" gridSize="10" guides="1" tooltips="1" connect="1" arrows="1" fold="1" page="1" pageScale="1" pageWidth="827" pageHeight="1169" math="0" shadow="0">
      <root>
        <mxCell id="0" />
        <mxCell id="1" parent="0" />
      </root>
    </mxGraphModel>
  </diagram>
</mxfile>
